<svg width="284" height="436" viewBox="0 0 284 436" fill="none" xmlns="http://www.w3.org/2000/svg">
<path d="M198.298 4.46412C288.125 -21.6284 320.194 73.0173 325 123.602V775C307.524 758.541 240.241 712.042 198.298 648.622C145.869 569.348 148.054 549.417 152.86 512.271C157.666 475.125 126.646 432.997 42.7602 344.21C-24.3482 273.18 2.27379 200.46 23.9733 172.978C44.6535 127.679 108.471 30.5566 198.298 4.46412Z" fill="white"/>
<path d="M178.671 163.133L189.059 188.887C213.686 179.745 241.461 171.227 270.951 163.069L269.922 152.301L266.761 119.94C237.376 138.87 208.02 153.803 178.671 163.133Z" fill="#E94D1A"/>
<path d="M184.584 177.792L189.06 188.887C213.687 179.745 241.461 171.227 270.952 163.069L269.923 152.301C266.095 149.125 260.639 145.677 256.68 146.416C248.571 147.936 240.387 151.91 232.802 154.905C216.908 161.144 201.436 168.41 186.481 176.656L184.584 177.792Z" fill="#D93826"/>
<path d="M256.123 142.356C256.446 149.126 262.463 164.129 270.957 163.085C279.45 162.041 286.925 152.156 288.317 144.36C288.951 140.527 288.583 136.589 287.249 132.934C285.915 129.278 283.661 126.029 280.707 123.505C279.108 122.05 277.225 120.944 275.18 120.259C273.134 119.574 270.97 119.325 268.827 119.527C260.407 120.84 255.808 135.303 256.123 142.356Z" fill="#C73522"/>
<path d="M278.801 151.821C280.136 148.56 280.902 145.091 281.067 141.565C281.374 137.844 280.527 134.114 278.644 130.887C277.688 129.271 276.309 127.95 274.658 127.069C273.006 126.187 271.147 125.779 269.284 125.89C265.603 126.324 262.365 129.932 262.988 133.595C263.248 131.471 266.249 129.136 268.318 128.686C269.365 128.494 270.443 128.538 271.474 128.813C272.505 129.089 273.464 129.589 274.281 130.279C275.909 131.663 277.143 133.454 277.858 135.47C280.311 141.941 278.407 150.066 272.803 154.122C274.825 153.252 276.944 152.624 278.801 151.821Z" fill="#E94D1A"/>
<path d="M273.462 140.444C273.628 141.678 273.438 142.932 272.915 144.058C272.392 145.184 271.558 146.135 270.512 146.797C271.284 146.04 271.782 145.045 271.926 143.969C272.07 142.893 271.853 141.798 271.309 140.857C270.687 139.978 269.8 139.323 268.779 138.991C267.759 138.66 266.66 138.67 265.647 139.019C267.221 133.836 272.748 135.992 273.462 140.444Z" fill="#E94D1A"/>
<path d="M202.294 179.485C196.534 172.384 190.472 166.265 191.223 157.184C196.257 156.08 201.009 153.951 205.186 150.928C200.664 160.866 205.523 170.49 212.713 178.716C208.327 179.347 206.452 178.893 202.294 179.485Z" fill="#2E3742"/>
<path d="M234.529 166.023C228.763 158.931 225.908 149.902 226.549 140.788C231.583 139.684 236.335 137.555 240.512 134.532C238.313 139.556 237.574 145.108 238.38 150.547C239.185 155.986 241.501 161.093 245.063 165.278C240.718 165.839 238.8 165.28 234.529 166.023Z" fill="#2E3742"/>
<path d="M265.156 326.685C278.995 330.329 293.183 334.147 306.777 329.656C315.388 326.815 323.393 322.39 330.386 316.606C328.699 286.862 325.575 257.101 319.325 228.025C314.272 204.545 307.421 181.486 298.833 159.055C270.503 154.835 241.614 160.056 216.588 173.92C222.069 226.956 239.705 279.804 265.156 326.685Z" fill="#752643"/>
<path d="M263.123 497.508C267.21 506.779 272.109 515.669 277.764 524.073C280.78 525.54 283.265 526.38 286.267 527.853C300.232 551.231 313.14 574.669 323.737 599.601C325.06 602.578 326.33 605.682 327.557 608.768C335.849 607.193 343.484 603.192 349.505 597.267C346.389 578.757 343.248 560.257 340.082 541.768C338.765 533.96 337.203 525.374 332.187 519.079C327.17 512.784 319.786 507.972 313.593 503.259C314.422 501.853 313.846 500.295 313.837 498.63C312.895 498.326 311.418 497.519 310.469 497.2C310.655 495.369 310.206 494.515 310.398 492.699C309.277 492.081 307.39 490.648 306.18 490.892C291.02 456.637 294.579 440.504 278.8 405.709C294.538 429.46 320.617 450.56 341.393 470.063C346.619 474.974 349.459 480.025 354.954 484.739C359.181 488.298 363.549 489.957 368.479 492.319C372.776 494.323 377.156 498.259 380.581 501.475C388.082 508.522 395.779 515.367 402.792 522.892C407.843 528.278 412.76 533.805 417.532 539.409C419.422 541.63 421.255 543.839 423.07 546.09L424.344 547.647C424.84 548.272 428.687 554.478 429.3 554.528C440.818 555.142 447.163 547.82 456.009 542.07C456.961 540.105 455.756 537.853 454.622 535.993C449.123 527.032 442.51 518.292 438.538 508.573C434.565 498.854 431.255 489.306 426.548 480.059C422.716 472.173 417.259 465.19 410.541 459.577C407.114 457.061 403.387 454.987 399.449 453.402C395.977 451.596 392.612 449.591 389.368 447.397C388.978 445.039 388.116 442.783 386.834 440.766C384.274 440.045 381.939 439.444 379.521 438.858C361.994 419.885 352.786 399.781 339.635 377.513C327.959 357.732 313.144 339.995 295.777 325.006C265.97 332.207 237.032 342.61 209.462 356.035C205.892 357.528 202.958 360.228 201.167 363.67C201.949 369.113 202.981 374.525 204.213 379.873C214.31 422.898 238.582 462.443 263.123 497.508Z" fill="#2B2A57"/>
<path opacity="0.67" d="M361.348 445.832C364.866 452.047 372.093 456.642 377.88 460.869C378.688 464.422 378.492 468.127 377.314 471.565C376.137 475.004 374.024 478.04 371.215 480.329C369.675 481.443 369.86 482.334 368.308 483.417C369.34 484.071 370.051 486.224 371.122 486.933C379.747 483.36 389.262 479.744 397.869 476.126C418.137 489.005 434.975 509.169 441.025 532.428C436.093 537.453 430.444 541.711 424.262 545.064L425.536 546.621C426.032 547.246 429.878 553.452 430.507 553.497C442.009 554.116 448.355 546.795 457.17 540.968C458.122 539.004 456.917 536.752 455.783 534.892C450.284 525.93 443.671 517.19 439.699 507.471C435.726 497.752 432.416 488.205 427.74 479.033C423.908 471.147 418.451 464.165 411.732 458.551C408.311 456.034 404.589 453.957 400.656 452.37C397.174 450.576 393.802 448.573 390.56 446.371C390.17 444.013 389.307 441.757 388.025 439.741C385.466 439.019 383.13 438.418 380.713 437.832C363.186 418.859 353.978 398.755 340.827 376.487C329.151 356.706 314.335 338.969 296.969 323.981C267.162 331.181 238.224 341.584 210.654 355.009C207.057 356.479 204.093 359.174 202.28 362.623C203.063 368.066 204.094 373.478 205.327 378.826C237.501 374.059 269.101 366.038 299.647 354.886C322.656 383.459 343.292 413.877 361.348 445.832Z" fill="#160B29"/>
<path d="M167.618 302.293C171.736 311.163 177.514 319.907 176.131 329.542C175.329 334.747 172.674 339.475 168.659 342.849C155.826 340.748 138.023 335.019 136.061 322.153C134.141 309.438 134.285 296.502 136.487 283.848C137.916 284.798 138.822 285.011 140.231 285.952C139.326 266.408 139.806 245.972 143.329 226.764C151.44 250.506 157.133 279.457 167.618 302.293Z" fill="#32183D"/>
<path opacity="0.67" d="M160.057 334.281C155.125 336.976 148.622 335.127 144.631 331.156C140.639 327.186 138.732 321.549 137.717 316.007C136.679 310.314 136.427 304.508 136.969 298.753C136.998 297.397 137.325 296.066 137.926 294.854C140.942 289.615 142.256 295.124 142.969 296.978C144.644 301.129 146.646 305.184 148.524 309.235C149.488 311.321 160.306 334.163 160.057 334.281Z" fill="#160B29"/>
<path d="M163.84 301.836C171.324 318.242 180.526 333.805 191.289 348.262C191.524 351.397 191.621 354.448 192.111 357.393C192.3 358.775 192.594 360.141 192.992 361.479C194.863 365.3 197.408 368.751 200.502 371.664C220.485 371.684 245.602 366.698 262.156 356.182C271.982 343.996 290.574 335.202 302.507 327.59C305.456 323.958 305.139 315.992 300.361 311.023C294.339 304.712 289.146 297.652 284.91 290.018C281.771 278.821 279.33 267.441 277.603 255.943C275.98 245.109 274.984 234.192 274.621 223.246C274.472 219.286 274.433 215.299 274.209 211.281C274.033 205.316 273.049 199.399 271.285 193.695C269.574 188.389 266.645 183.558 262.735 179.592C260.029 176.824 256.596 174.886 252.84 174.004C252.308 173.883 251.769 173.789 251.227 173.725C231.189 171.24 210.931 171.252 190.914 173.76C168.272 183.716 155.048 205.948 143.4 227.544C146.154 253.244 153.058 278.337 163.84 301.836Z" fill="#32183D"/>
<path d="M252.696 173.605C289.818 189.085 320.507 218.716 340.334 253.772C345.688 263.196 341.936 275.65 335.655 284.473C330.267 291.917 317.432 289.465 309.463 284.802C301.493 280.139 298.439 272.437 291.322 266.903C284.778 261.839 276.802 257.548 273.046 249.707C271.058 245.153 270.382 240.134 271.094 235.222C271.338 233.016 274.789 224.055 273.358 222.281C262.56 208.788 255.969 190.717 252.696 173.605Z" fill="#32183D"/>
<path d="M191.243 348.28C191.479 351.415 191.575 354.466 192.065 357.411C192.307 357.664 192.552 357.881 192.815 358.144C197.125 362.126 201.922 366.017 207.797 366.311C222.824 367 237.771 363.929 251.296 357.374C263.494 351.498 273.512 339.269 283.794 330.375C282.021 327.58 280.263 324.779 278.475 321.99L267.168 326.137C280.36 321.298 271.74 308.752 265.434 302.504C259.128 296.256 250.982 295.263 242.701 292.64C233.15 289.722 223.699 286.272 214.027 283.876C225.508 283.188 245.143 283.77 253.323 274.25C260.887 265.453 256.293 254.668 254.442 244.672C252.243 232.691 250.421 220.646 248.223 208.665C250.88 207.943 252.942 206.091 255.582 206.886C258.72 207.83 261.908 208.684 265.113 209.408C268.319 210.132 271.178 210.732 274.226 211.239C277.975 211.884 281.819 212.332 285.636 212.668C287.916 212.871 290.69 212.786 291.886 210.863C293.082 208.94 291.736 206.166 290.376 204.134C283.058 193.999 273.608 185.606 262.701 179.553C260.892 178.528 259.023 177.528 257.134 176.693C255.829 176.092 254.469 175.618 253.074 175.279C240.822 172.065 226.35 178.228 215.53 185.181C213.012 190.301 208.984 194.512 203.992 197.242C199.001 199.971 193.288 201.088 187.63 200.438C182.597 199.768 177.619 197.636 172.569 198.307C165.84 199.27 160.542 205.08 158.317 211.544C156.092 218.009 156.437 225.05 156.88 231.858C158.379 254.778 159.077 279.216 163.836 301.697C171.303 318.153 180.49 333.768 191.243 348.28Z" fill="#422B5C"/>
<path opacity="0.3" d="M165.243 241.735L162.863 202.316C161.841 202.783 160.924 203.456 160.169 204.292C159.415 205.128 158.838 206.11 158.475 207.179C157.846 209.238 157.534 211.383 157.551 213.539C157.149 224.285 157.606 235.05 158.916 245.73C160.821 245.347 163.507 242.752 165.243 241.735Z" fill="url(#paint0_linear_1730_10380)"/>
<path opacity="0.3" d="M179.784 325.836C174.938 312.871 170.093 299.906 166.475 286.567C162.611 273.483 160.595 259.924 160.487 246.289C185.055 230.323 212.729 219.776 241.688 215.343C242.066 216.279 242.152 217.877 242.55 218.822C229.598 221.347 216.802 224.612 204.224 228.601C204.362 229.247 204.875 230.216 204.948 230.871C198.758 235.204 191.763 238.244 184.375 239.815C183.769 239.305 182.636 238.92 182.059 238.398C176.4 241.668 170.667 244.757 164.99 247.981C165.271 252.095 165.941 256.175 166.99 260.165C169.132 261.505 170.899 263.371 172.126 265.587C176.498 274.178 178.541 283.957 180.783 293.322C179.078 295.626 177.715 297.739 176.025 300.037C180.048 314.336 183.855 328.792 187.959 343.075C184.907 337.49 182.177 331.735 179.784 325.836Z" fill="url(#paint1_linear_1730_10380)"/>
<path d="M164.538 197.601C169.511 201.28 173.502 204.688 179.493 208.729C182.024 209.29 184.657 209.136 187.1 208.285C189.544 207.434 191.703 205.919 193.337 203.908C196.538 199.808 198.184 194.695 197.984 189.477C198.214 184.089 197.071 178.725 194.665 173.894C191.026 169.746 187.372 165.604 183.704 161.468C176 171.954 170.179 185.982 164.538 197.601Z" fill="#F2A57B"/>
<path d="M299.883 304.649C299.725 301.922 299.243 300.554 299.106 297.835C282.19 281.847 270.263 260.927 262.101 239.049C253.939 217.17 249.223 194.145 244.895 171.174C238.821 170.433 232.772 169.84 226.692 169.083C233.834 220.483 261.936 269.436 299.883 304.649Z" fill="#3F1426"/>
<path d="M183.263 338.529C164.875 299.17 145.931 253.329 150.003 210.829C153.592 204.113 157.828 199.522 162.872 193.34C159.106 219.125 160.899 245.543 166.002 271.168C171.448 297.172 179.367 322.598 189.649 347.097C188.232 344.492 184.551 341.292 183.263 338.529Z" fill="#3F1426"/>
<path d="M158.935 249.322C184.489 232.942 213.047 221.839 242.95 216.659C242.116 214.591 242.262 212.443 241.502 210.344C211.4 215.984 182.713 227.503 157.063 244.249C157.684 245.701 158.344 247.857 158.935 249.322Z" fill="#3F1426"/>
<path d="M183.504 237.745C182.321 234.811 181.334 231.802 180.551 228.737C186.053 224.706 192.471 222.113 199.227 221.192C200.797 224.26 201.76 227.603 202.064 231.036C196.277 234.254 190.011 236.519 183.504 237.745Z" fill="#7B93B3"/>
<path d="M256.984 256.25C257.084 256.277 257.181 256.314 257.273 256.362C262.199 257.935 267.371 258.567 272.522 258.224C278.158 256.052 283.306 252.778 287.67 248.593C287.583 239.988 285.31 231.539 281.067 224.048C276.106 220.455 270.85 217.292 265.356 214.594L264.818 214.514C258.289 213.64 248.666 218.283 242.504 223.248C241.977 224.767 241.799 226.388 241.986 227.988C242.172 229.588 242.716 231.127 243.579 232.488C244.492 232.417 246.14 232.524 247.066 232.483C246.028 234.238 245.222 236.122 244.668 238.087C247.397 244.973 251.602 251.175 256.984 256.25Z" fill="#F2A57B"/>
<path d="M140.78 294.316C141.872 296.519 143.373 298.493 145.202 300.132C145.955 300.827 146.785 301.435 147.676 301.941C149.18 302.841 150.874 303.369 152.619 303.482C154.363 303.595 156.107 303.291 157.708 302.593C161.533 301.521 167.771 301.372 171.118 299.247C173.158 297.925 174.784 296.051 175.811 293.839C175.157 286.993 173.436 280.288 170.71 273.972C170.006 273.782 169.271 272.956 168.498 272.812C169.293 272.49 169.939 271.755 170.749 271.428C170.431 268.521 169.316 265.756 167.527 263.442C164.927 260.75 161.67 258.79 158.083 257.76L157.884 257.7C151.097 259.912 144.892 263.619 139.72 268.55C137.752 274.612 136.164 278.589 136.551 283.875C136.809 287.37 139.198 291.216 140.78 294.316Z" fill="#F2A57B"/>
<path d="M151.806 200.726C142.879 195.39 134.935 188.543 128.327 180.489C125.674 177.417 122.772 173.638 122.336 169.443C122.162 167.758 122.318 165.939 122.189 164.235C122.061 162.532 122.645 159.873 122.091 158.499C120.48 154.563 118.192 150.941 115.333 147.799C114.351 141.559 112.626 134.513 115.61 128.936C119.929 120.77 126.832 114.288 135.233 110.509C143.634 106.731 153.058 105.869 162.022 108.06C169.746 109.908 175.318 118.489 178.536 125.213C181.032 130.766 182.959 136.558 184.287 142.5C185.816 147.982 186.955 153.565 187.694 159.207C188.836 171.035 181.255 182.472 174.845 192.488C168.696 197.332 161.495 200.65 153.822 202.176L151.806 200.726Z" fill="#F2A57B"/>
<path d="M129.926 168.537C127.597 170.431 125.824 172.925 124.795 175.754C129.269 187.886 139.558 198.213 150.252 205.392C162.63 202.734 174.385 197.74 184.895 190.675C186.881 183.834 189.621 172.807 189.375 165.709C189.054 155.918 186.254 147.288 184.098 137.748C182.611 130.738 179.867 124.053 176.001 118.021C172.067 112.201 166.241 107.533 159.198 106.638C153.603 103.017 145.811 101.39 139.356 100.698C132.379 99.9515 125.329 100.486 118.551 102.274C121.436 104.201 124.098 106.447 126.486 108.97C121.475 108.713 116.524 110.097 112.376 112.915C108.366 115.76 105.431 119.883 104.047 124.619C106.922 125.352 109.874 125.728 112.838 125.738C111.471 128.284 110.526 131.038 110.038 133.892C112.803 133.261 115.415 132.086 117.722 130.434C120.029 128.781 121.986 126.685 123.479 124.265C126.661 123.297 129.676 121.848 132.422 119.967C142.514 113.126 154.864 110.483 166.886 112.592L168.712 117.121C171.301 122.731 173.414 128.549 175.03 134.513C176.645 140.501 176.787 146.789 175.441 152.833C172.306 152.203 169.095 152.062 165.921 152.414C160.19 154.493 154.705 157.198 149.565 160.479C143.518 164.253 136.879 166.977 129.926 168.537ZM134.046 175.984C134.469 175.128 134.558 174.355 134.969 173.469C144.653 171.134 153.914 167.309 162.425 162.13C165.437 163.845 168.452 164.962 171.495 166.752C170.326 169.592 168.529 172.125 166.24 174.16C163.951 176.195 161.23 177.679 158.281 178.499C157.564 178.666 154.044 176.384 153.041 176.104C152.006 175.862 150.931 175.848 149.892 176.065C148.852 176.282 147.873 176.724 147.023 177.36C146.331 179.372 146.18 181.535 146.586 183.628C144.668 184.546 142.538 184.927 140.419 184.733C138.102 182.017 135.452 179.296 134.127 175.968L134.046 175.984Z" fill="#7D2313"/>
<path d="M124.137 140.257C128.277 142.295 131.975 145.14 135.014 148.626C135.224 151.716 135.026 154.818 134.427 157.852C134.06 160.318 132.61 163.081 134.687 165.244C136.322 165.401 137.972 165.228 139.537 164.734C141.103 164.24 142.553 163.436 143.802 162.369C144.24 162.033 144.59 161.596 144.824 161.096C144.953 160.827 144.999 160.526 144.954 160.23C144.91 159.935 144.778 159.66 144.575 159.44C144.133 158.788 143.617 158.189 143.036 157.657C145.193 157.885 147.224 158.799 148.833 160.266C144.906 164.452 139.504 166.93 133.773 167.175C132.415 167.18 132.032 164.157 131.992 163.278C132.086 161.045 132.576 158.849 133.441 156.793C134.15 154.527 134.275 152.114 133.806 149.781C132.297 146.3 127.77 143.424 124.137 140.257Z" fill="#CF5138"/>
<path d="M140.139 129.191C141.966 128.246 144.053 127.925 146.083 128.277C148.113 128.628 149.976 129.633 151.392 131.14C146.561 131.093 141.771 132.008 137.3 133.832C137.377 132.887 137.673 131.975 138.167 131.169C138.66 130.362 139.335 129.685 140.139 129.191ZM117.133 148.494C118.659 145.245 120.801 142.329 123.439 139.906C122.896 139.339 122.179 138.974 121.405 138.869C120.63 138.764 119.844 138.926 119.176 139.329C118.536 139.77 117.995 140.341 117.587 141.005C117.179 141.668 116.913 142.41 116.805 143.183C116.702 144.959 116.812 146.742 117.133 148.494Z" fill="#7D2313"/>
<path d="M140.805 137.508C142.799 136.329 145.02 135.587 147.322 135.332C149.624 135.076 151.956 135.313 154.164 136.025C155.077 136.341 155.188 137.613 155.07 138.574C154.9 139.537 154.516 140.448 153.947 141.24C152.883 142.726 151.533 143.981 149.976 144.933C148.497 145.916 146.881 146.675 145.181 147.187C143.656 146.113 142.445 144.647 141.675 142.944C140.906 141.242 140.605 139.364 140.805 137.508ZM120.852 151.749C121.085 152.36 121.438 152.918 121.889 153.39C122.34 153.862 122.881 154.239 123.479 154.498L123.554 154.467C124.227 154.807 124.957 155.019 125.706 155.09C126.707 155.215 127.72 155.19 128.712 155.017C129.542 154.87 130.343 154.594 131.086 154.198C131.263 154.114 131.409 153.975 131.502 153.802C131.554 153.64 131.562 153.467 131.527 153.3C130.96 150.213 129.344 147.415 126.956 145.385C126.785 145.225 126.581 145.104 126.359 145.03C126.139 145.008 125.917 145.032 125.707 145.1C125.501 145.148 125.303 145.228 125.122 145.336C123.445 145.9 122.051 147.092 121.23 148.664C120.94 149.116 120.756 149.628 120.69 150.162C120.625 150.696 120.68 151.239 120.852 151.749Z" fill="#FFF7E6"/>
<path d="M140.806 137.508C142.709 136.36 144.833 135.627 147.039 135.358C148.503 136.431 149.558 137.976 150.025 139.734C150.663 141.435 150.662 143.308 150.022 145.003C148.542 145.986 146.927 146.745 145.226 147.256C143.686 146.178 142.462 144.703 141.684 142.988C140.906 141.272 140.603 139.379 140.806 137.508ZM120.852 151.749C121.082 152.26 121.4 152.726 121.791 153.125C122.268 153.654 122.831 154.097 123.454 154.437L123.529 154.407C124.203 154.747 124.933 154.958 125.682 155.03C126.683 155.155 127.696 155.13 128.688 154.956C128.853 154.54 128.893 154.085 128.805 153.645C128.485 150.613 127.251 147.749 125.267 145.436L125.085 145.246C123.409 145.809 122.015 147.001 121.194 148.574C120.897 149.04 120.712 149.569 120.653 150.12C120.593 150.671 120.662 151.228 120.852 151.749Z" fill="#522B21"/>
<path d="M183.152 136.093C179.04 131.347 176.374 125.559 173.076 120.238C169.778 114.916 165.516 109.756 159.651 107.543C157.691 105.615 155.278 104.216 152.638 103.477C149.401 102.453 146.099 101.652 142.756 101.079C149.533 98.654 156.846 98.1267 163.913 99.5537C170.872 100.923 177.331 104.187 182.582 108.988C186.083 112.19 188.776 116.182 190.437 120.632C192.179 125.123 192.134 130.108 190.312 134.553C189.202 136.346 187.477 137.668 185.46 138.268C184.753 137.553 183.905 136.965 183.152 136.093Z" fill="#8C603E"/>
<path d="M185.155 132.669C187.434 132.047 189.93 134.128 190.995 135.945C192.051 137.966 192.566 140.227 192.489 142.504C192.545 144.531 192.309 146.554 191.789 148.511C191.484 150.438 190.625 152.231 189.317 153.67C185.035 157.156 181.748 146.194 181.118 143.464C180.186 139.294 180.429 133.929 185.155 132.669Z" fill="#F2A57B"/>
<path d="M331.682 544.512C333.446 560.478 338.179 576.104 341.328 591.827C337.03 596.163 331.715 599.343 325.868 601.075C327.176 604.058 328.445 607.162 329.672 610.248C337.962 608.671 345.597 604.677 351.627 598.762C348.507 580.242 345.364 561.737 342.197 543.248C340.805 535.471 339.355 526.945 334.302 520.559C329.431 514.451 321.902 509.452 315.709 504.739C316.543 503.348 315.961 501.775 315.953 500.11C315.01 499.806 313.539 499.014 312.585 498.68C312.771 496.849 312.321 495.995 312.514 494.179C311.392 493.561 309.512 492.144 308.296 492.372C293.135 458.117 296.688 441.969 280.909 407.174C274.622 398.074 271.384 399.909 260.828 396.66C273.305 425.491 282.358 455.688 287.799 486.625C289.303 495.024 294.195 502.827 297.842 510.658C295.93 514.033 293.33 516.962 290.211 519.253C287.092 521.545 283.525 523.148 279.742 523.958C282.296 525.051 284.962 525.858 287.691 526.364C294.847 527.844 302.239 522.382 308.455 518.589C320.22 521.719 330.321 532.315 331.682 544.512Z" fill="#160B2C"/>
<path d="M257.583 256.008C258.177 256.313 259.954 257.561 260.373 257.69C261.519 257.843 262.673 257.916 263.828 257.909C266.767 258.272 269.731 258.385 272.687 258.246C278.323 256.073 283.471 252.799 287.835 248.614C287.748 240.009 285.475 231.56 281.232 224.069C276.27 220.476 271.014 217.313 265.521 214.616L264.982 214.535L265.019 214.625C266.785 217.706 267.464 221.294 266.944 224.803C260.759 226.734 254.687 229.006 248.753 231.608C254.51 230.915 260.906 230.683 266.684 229.999C267.841 232.868 268.631 233.356 268.638 236.443C264.669 238.956 260.32 240.808 255.759 241.927C260.228 242.297 264.723 241.978 269.091 240.983C270.915 244.424 271.762 246.61 268.827 249.411C265.628 252.465 261.738 254.693 257.49 255.906L257.583 256.008Z" fill="#E38B5B"/>
<path d="M145.201 300.131C145.954 300.827 146.785 301.434 147.675 301.941C149.179 302.84 150.874 303.369 152.618 303.482C154.362 303.595 156.107 303.29 157.708 302.593C161.532 301.521 167.77 301.371 171.117 299.246C173.157 297.924 174.784 296.051 175.81 293.839C175.157 286.993 173.435 280.288 170.71 273.972C170.005 273.782 169.27 272.955 168.497 272.811C169.292 272.49 169.938 271.755 170.748 271.428C170.43 268.52 169.315 265.756 167.527 263.442C164.926 260.75 161.669 258.79 158.082 257.76C158.968 260.124 159.355 262.646 159.22 265.165C153.503 267.137 148.16 270.061 143.414 273.816C148.121 271.881 153.164 270.893 158.257 270.909C158.741 273.277 159.654 275.454 160.132 277.807C155.773 279.237 151.679 281.377 148.015 284.142C152.324 282.629 157.645 282.498 162.168 282.251C162.672 283.803 163.764 285.732 164.214 287.323C159.254 288.52 155.073 291.736 151.091 294.925C149.121 296.616 147.412 298.606 145.201 300.131Z" fill="#E38B5B"/>
<defs>
<linearGradient id="paint0_linear_1730_10380" x1="151.634" y1="227.762" x2="170.12" y2="220.306" gradientUnits="userSpaceOnUse">
<stop stop-color="#858DBC"/>
<stop offset="1"/>
</linearGradient>
<linearGradient id="paint1_linear_1730_10380" x1="2720.75" y1="-26489.2" x2="8309.48" y2="-28743.5" gradientUnits="userSpaceOnUse">
<stop stop-color="#858DBC"/>
<stop offset="1"/>
</linearGradient>
</defs>
</svg>
