<svg width="62" height="63" viewBox="0 0 62 63" fill="none" xmlns="http://www.w3.org/2000/svg">
<path fill-rule="evenodd" clip-rule="evenodd" d="M31 0.0517578C13.8725 0.0517578 0 14.2751 0 31.8359C0 45.9003 8.87375 57.7796 21.1962 61.991C22.7462 62.2691 23.3275 61.3156 23.3275 60.4813C23.3275 59.7264 23.2887 57.2234 23.2887 54.5615C15.5 56.0315 13.485 52.6147 12.865 50.8269C12.5162 49.9131 11.005 47.0922 9.6875 46.3374C8.6025 45.7414 7.0525 44.2714 9.64875 44.2317C12.09 44.1919 13.8337 46.536 14.415 47.4895C17.205 52.2969 21.6613 50.9461 23.4438 50.1117C23.715 48.0458 24.5287 46.6552 25.42 45.8606C18.5225 45.066 11.315 42.3246 11.315 30.1672C11.315 26.7107 12.5162 23.8501 14.4925 21.6252C14.1825 20.8306 13.0975 17.5727 14.8025 13.2024C14.8025 13.2024 17.3987 12.3681 23.3275 16.4603C25.8075 15.7452 28.4425 15.3876 31.0775 15.3876C33.7125 15.3876 36.3475 15.7452 38.8275 16.4603C44.7563 12.3284 47.3525 13.2024 47.3525 13.2024C49.0575 17.5727 47.9725 20.8306 47.6625 21.6252C49.6388 23.8501 50.84 26.6709 50.84 30.1672C50.84 42.3643 43.5938 45.066 36.6962 45.8606C37.82 46.8539 38.7887 48.7609 38.7887 51.7407C38.7887 55.9918 38.75 59.4086 38.75 60.4813C38.75 61.3156 39.3312 62.3089 40.8813 61.991C53.1263 57.7796 62 45.8606 62 31.8359C62 14.2751 48.1275 0.0517578 31 0.0517578Z" fill="#1B1F23"/>
</svg>
