<svg width="63" height="63" viewBox="0 0 63 63" fill="none" xmlns="http://www.w3.org/2000/svg">
<path d="M9.62128 0H52.8658C58.0328 0 62.2214 4.25212 62.2214 9.49738V53.3908C62.2214 58.6361 58.0328 62.8882 52.8658 62.8882H9.62128C4.45431 62.8882 0.265648 58.6361 0.265648 53.3908V9.49738C0.265648 4.25212 4.45431 0 9.62128 0Z" fill="#006699"/>
<path opacity="0.781116" d="M45.8513 2.68921H16.633C8.89873 2.68921 2.67249 9.06136 2.67249 16.9766V45.9144C2.92283 52.0928 3.8858 48.187 5.71876 41.3448C7.84905 33.3927 14.7869 26.4426 23.2358 21.2336C29.6845 17.2581 36.903 14.7194 50.0419 14.4778C57.4933 14.3409 56.8357 4.66064 45.8515 2.68921H45.8513Z" fill="url(#paint0_linear_817_84799)"/>
<path d="M20.0893 52.7801V24.1995H10.7315V52.7801H20.0893ZM15.4116 20.2951C18.6748 20.2951 20.706 18.1004 20.706 15.3578C20.6452 12.5534 18.6749 10.4197 15.4736 10.4197C12.2726 10.4197 10.1794 12.5534 10.1794 15.3578C10.1794 18.1005 12.2101 20.2951 15.3506 20.2951H15.4114H15.4116Z" fill="white"/>
<path d="M25.2677 52.7812H34.6255V36.8205C34.6255 35.9663 34.6863 35.113 34.9334 34.5024C35.6099 32.7957 37.1496 31.0281 39.7347 31.0281C43.1209 31.0281 44.4755 33.649 44.4755 37.4911V52.7811H53.8327V36.3933C53.8327 27.6145 49.2161 23.5298 43.0592 23.5298C38.0111 23.5298 35.7946 26.3943 34.5632 28.3453H34.6257V24.2002H25.2679C25.3907 26.8821 25.2679 52.7808 25.2679 52.7808L25.2677 52.7812Z" fill="white"/>
<defs>
<linearGradient id="paint0_linear_817_84799" x1="8.02401" y1="-6.45796" x2="16.305" y2="17.3184" gradientUnits="userSpaceOnUse">
<stop stop-color="white"/>
<stop offset="1" stop-color="white" stop-opacity="0"/>
</linearGradient>
</defs>
</svg>
