<svg width="167" height="56" viewBox="0 0 167 56" fill="none" xmlns="http://www.w3.org/2000/svg">
<path d="M25.5436 53.0592C39.464 53.0592 50.7487 41.8466 50.7487 28.0152C50.7487 14.1838 39.464 2.97119 25.5436 2.97119C11.6233 2.97119 0.338623 14.1838 0.338623 28.0152C0.338623 41.8466 11.6233 53.0592 25.5436 53.0592Z" fill="#804D98"/>
<path d="M50.2693 32.9004C50.2078 33.2084 50.1418 33.5121 50.0692 33.8158C50.1418 33.5121 50.2078 33.2084 50.2693 32.9004Z" fill="black"/>
<path d="M50.6695 30.0317C50.6475 30.3158 50.6189 30.5998 50.5859 30.8816C50.6167 30.5998 50.6453 30.3179 50.6695 30.0317Z" fill="black"/>
<path d="M50.4408 31.9521C50.3924 32.2515 50.3397 32.5464 50.2825 32.8413C50.3397 32.5464 50.3924 32.2493 50.4408 31.9521Z" fill="black"/>
<path d="M50.5684 31.0281C50.5332 31.3274 50.4914 31.6245 50.4452 31.9216C50.4914 31.6245 50.5332 31.3274 50.5684 31.0281Z" fill="black"/>
<path d="M50.6739 29.9815C50.6827 29.857 50.6915 29.7324 50.6981 29.6079C50.6981 29.6079 50.6959 29.6079 50.6959 29.6057C50.6871 29.7324 50.6827 29.857 50.6739 29.9815Z" fill="black"/>
<path d="M49.2447 35.4129C43.5541 31.1023 38.0549 27.6132 33.0306 24.7883C33.002 24.8058 32.9734 24.8233 32.9448 24.8386C32.9317 24.8102 32.9163 24.7818 32.8987 24.7534C32.6898 24.4257 32.217 24.2225 31.4804 24.1482C30.7966 24.0783 29.9699 24.1919 29.0024 24.4912C28.0327 24.7905 26.786 25.3083 25.2622 26.0468C23.7384 26.7852 21.555 27.9213 18.7185 29.4572L18.624 29.5096L15.8403 31.0608L15.8315 30.9516C19.0571 27.9519 21.3615 25.6295 22.7445 23.9865C23.8308 22.6953 24.3321 21.7515 24.2551 21.1507C24.2463 21.1398 24.2419 21.1245 24.2331 21.1135C23.6043 20.3292 20.8338 21.4719 19.4287 22.2321C17.6631 23.1869 16.4845 24.3885 15.7941 25.2078C14.1604 26.8005 12.5201 28.4369 10.8797 30.1213C8.05206 33.0227 5.36071 35.9175 2.7903 38.7971C6.84491 47.2325 15.5104 53.0614 25.548 53.0614C37.459 53.0614 47.4372 44.8532 50.0736 33.818C49.9263 34.4384 49.7548 35.048 49.5613 35.651C49.4514 35.5702 49.3502 35.4915 49.2447 35.4129Z" fill="black"/>
<path d="M37.6393 23.5692C36.0826 22.8831 33.9827 21.9546 31.3705 22.2539C28.8221 22.5445 26.2517 23.9362 25.6976 24.2355C23.6944 25.3192 22.5928 26.3635 22.3004 26.1013C21.7859 25.6403 24.9609 22.2015 24.2529 21.1484C24.3299 21.7492 23.8286 22.6931 22.7423 23.9843C21.3593 25.6272 19.0549 27.9496 15.8293 30.9493L15.8381 31.0585L18.6218 29.5074L18.7163 29.4549C21.555 27.919 23.7362 26.783 25.26 26.0445C26.7838 25.306 28.0305 24.7883 29.0002 24.4889C29.9677 24.1918 30.7944 24.076 31.4782 24.1459C32.217 24.2224 32.6876 24.4234 32.8965 24.7511C32.9141 24.7773 32.9295 24.8057 32.9426 24.8363C32.9712 24.8188 33.002 24.8014 33.0284 24.7861C38.0527 27.6088 43.5519 31.1001 49.2425 35.4106C49.348 35.4893 49.4492 35.5701 49.5525 35.6487C49.746 35.0479 49.9175 34.4362 50.0648 33.8157V33.8135C50.1374 33.5099 50.2033 33.2062 50.2649 32.8981C50.2693 32.8785 50.2715 32.8588 50.2759 32.8391C50.3331 32.5442 50.388 32.2471 50.4342 31.9499C50.4364 31.939 50.4386 31.9281 50.4386 31.9193C50.4848 31.6244 50.5266 31.3251 50.5618 31.0258C50.5683 30.9777 50.5727 30.9296 50.5793 30.8794C50.6123 30.5976 50.6409 30.3135 50.6629 30.0295C50.6651 30.012 50.6651 29.9967 50.6673 29.9793C50.6761 29.8547 50.6805 29.7302 50.6893 29.6057C47.4416 27.8841 43.1935 26.0139 37.6393 23.5692Z" fill="black"/>
<path d="M33.0306 24.7883C33.002 24.8058 32.9734 24.8233 32.9448 24.8386C33.013 24.9828 33.0372 25.1466 33.0152 25.3323C32.9339 26.0096 32.2368 27.1282 30.9241 28.6881C30.3788 29.3348 29.5125 30.283 28.3273 31.5327C26.7288 33.1909 25.3084 34.7574 24.0638 36.2343C22.6654 37.8948 21.6122 39.2471 20.9019 40.2914C20.4798 40.9338 20.1126 41.5805 19.7981 42.2337C19.4507 42.8476 19.1869 43.2627 19.0044 43.4768C18.7801 43.7434 18.5118 43.94 18.1996 44.0711C17.3399 44.4709 16.3746 44.7942 15.3016 45.0455C14.2285 45.2967 13.4194 45.3929 12.8763 45.3383C12.5772 45.3077 12.3244 45.2378 12.1045 45.1373C11.6735 44.9363 11.3965 44.5998 11.2777 44.1213C11.0996 43.4004 11.2931 42.4456 11.8604 41.2615C12.4277 40.0752 13.3204 38.7599 14.5364 37.3158C14.9629 36.8089 15.4599 36.254 16.0206 35.6554C16.5241 35.1179 17.0782 34.5455 17.6895 33.9338L17.6807 33.8245C16.3416 34.5521 15.2686 35.1288 14.466 35.5505C13.6612 35.9722 12.907 36.3742 12.199 36.7521C9.20864 38.3994 6.53928 39.9157 4.17995 41.3052C8.63695 48.3663 16.5395 53.0614 25.548 53.0614C36.7884 53.0614 46.3092 45.749 49.5591 35.651C49.4558 35.5723 49.3524 35.4915 49.2491 35.4129C43.5563 31.1023 38.0549 27.6111 33.0306 24.7883Z" fill="#7C4E99"/>
<path d="M12.5354 41.86C13.1071 40.6671 14.0043 39.3432 15.2268 37.8903C16.0426 36.9225 17.098 35.7864 18.3975 34.4864L18.3887 34.3772C17.474 34.8731 16.6868 35.2992 16.0206 35.6553C15.4599 36.2539 14.9651 36.8088 14.5364 37.3157C13.3204 38.7598 12.4299 40.0751 11.8604 41.2614C11.2931 42.4477 11.0974 43.4003 11.2777 44.1213C11.3965 44.5997 11.6735 44.9362 12.1045 45.1372C12.0385 45.0148 11.9835 44.8859 11.9462 44.7374C11.7681 44.012 11.9638 43.0529 12.5354 41.86Z" fill="#7C4E99"/>
<path d="M20.3808 21.7121C18.3777 22.7586 16.1503 24.2727 13.7008 26.2521C12.1902 27.4406 10.6599 28.699 9.10749 30.0274C7.55513 31.3557 6.09072 32.6535 4.70986 33.9163C3.69181 34.8492 2.74192 35.7427 1.8602 36.597C2.27138 37.7156 2.75732 38.797 3.31801 39.8348C5.32333 38.8342 9.34716 37.4315 16.9924 33.6038C17.6389 33.2805 20.7678 31.6987 24.8004 29.4899C28.2152 27.6176 31.0077 25.9921 32.947 24.8385C32.9338 24.8101 32.9185 24.7817 32.9009 24.7533C32.7184 24.7031 32.5117 24.6659 32.2742 24.6419C31.586 24.572 30.7548 24.6878 29.7807 24.9871C28.8067 25.2864 27.5512 25.8086 26.0186 26.5514C24.4838 27.2942 22.2894 28.439 19.4353 29.9837L16.5395 31.5982L16.5307 31.489C17.2783 30.792 17.9753 30.1344 18.6262 29.5118L15.8425 31.0629L15.8337 30.9537C19.0593 27.954 21.3637 25.6316 22.7467 23.9887C24.0023 22.4965 24.4772 21.4674 24.1804 20.895C24.0902 20.8754 23.9957 20.8601 23.8923 20.8513C22.8875 20.7443 21.7177 21.0327 20.3808 21.7121Z" fill="white"/>
<path d="M14.4638 35.5505C15.2664 35.1289 16.3394 34.5521 17.6785 33.8246L17.6873 33.9338C17.076 34.5456 16.5219 35.118 16.0184 35.6554C16.6846 35.2993 17.4718 34.8755 18.3865 34.3773L18.3953 34.4866C17.0958 35.7865 16.0404 36.9204 15.2246 37.8904C14.002 39.3433 13.1049 40.6673 12.5332 41.8602C11.9616 43.053 11.7659 44.0122 11.9462 44.7375C11.9835 44.8839 12.0385 45.015 12.1045 45.1373C12.3222 45.24 12.5772 45.3077 12.8763 45.3383C13.4194 45.3929 14.2285 45.2968 15.3015 45.0455C16.3746 44.7943 17.3399 44.471 18.1996 44.0711C18.5118 43.9401 18.7801 43.7434 19.0044 43.4769C19.1869 43.2606 19.4507 42.8477 19.7981 42.2337C20.1104 41.5805 20.4798 40.9338 20.9019 40.2915C21.6121 39.2472 22.6676 37.8948 24.0638 36.2344C25.3084 34.7575 26.7288 33.191 28.3273 31.5328C29.5147 30.2853 30.3788 29.3349 30.9241 28.6882C32.2368 27.1283 32.9338 26.0097 33.0152 25.3324C33.0372 25.1467 33.013 24.9828 32.9448 24.8386C31.0055 25.9922 28.2152 27.6198 24.7982 29.49C20.7656 31.6988 17.6367 33.2806 16.9902 33.6039C9.34716 37.4316 5.32333 38.8343 3.31581 39.8349C3.58627 40.3352 3.87211 40.8246 4.17555 41.303C6.53488 39.9135 9.20644 38.3973 12.1946 36.75C12.9048 36.3742 13.659 35.9722 14.4638 35.5505Z" fill="white"/>
<path d="M34.5324 15.4767C34.5346 15.481 34.5368 15.4876 34.5368 15.492C34.5434 15.5095 34.5412 15.5226 34.5302 15.5357C34.517 15.551 34.5038 15.5663 34.4928 15.5837C34.4906 15.5881 34.4884 15.5947 34.4862 15.599C34.4818 15.61 34.4774 15.6187 34.473 15.6296C34.4708 15.6384 34.4664 15.6471 34.4686 15.6558C34.4752 15.6886 34.4752 15.6886 34.4466 15.7061C34.4488 15.7083 34.451 15.7126 34.4554 15.717C34.4466 15.7214 34.4378 15.7236 34.4291 15.7279C34.4291 15.7498 34.4269 15.7716 34.4269 15.7935C34.4225 15.7913 34.4203 15.7869 34.4137 15.7804C34.4137 15.7935 34.4049 15.8066 34.4203 15.8175C34.4225 15.8197 34.4203 15.8306 34.4181 15.835C34.4137 15.8394 34.4071 15.8415 34.4005 15.8459C34.4093 15.8678 34.4027 15.8809 34.3829 15.8918C34.3697 15.8983 34.3697 15.9027 34.3807 15.9224C34.3719 15.9399 34.3631 15.9573 34.3543 15.9726C34.3455 15.9857 34.3653 16.0032 34.3477 16.0163C34.3367 16.0251 34.3279 16.036 34.3147 16.0491C34.3235 16.0513 34.3279 16.0535 34.3367 16.0556C34.3081 16.0688 34.3147 16.0928 34.3213 16.1168C34.3169 16.1168 34.3125 16.119 34.3103 16.119C34.3081 16.119 34.3037 16.119 34.3015 16.119C34.2949 16.1452 34.2949 16.1758 34.2685 16.1955C34.2685 16.2042 34.2905 16.2173 34.2641 16.2217C34.2619 16.2217 34.2619 16.2282 34.2619 16.2304C34.2707 16.2435 34.2553 16.2392 34.2509 16.2479C34.2685 16.2676 34.2487 16.2785 34.24 16.2938C34.2356 16.3003 34.229 16.3069 34.2312 16.3113C34.2378 16.3353 34.2224 16.3462 34.2114 16.3615C34.2004 16.3768 34.1828 16.3855 34.1872 16.4074C34.163 16.4489 34.1608 16.4992 34.1366 16.5407C34.13 16.5516 34.1234 16.5647 34.119 16.5778C34.1168 16.5822 34.1124 16.5887 34.1146 16.5931C34.119 16.6281 34.0992 16.6543 34.0904 16.6849C34.0882 16.6958 34.086 16.7089 34.0838 16.7198C34.0838 16.7242 34.0816 16.7264 34.0794 16.7307C34.0662 16.7438 34.064 16.7591 34.0662 16.7766C34.0662 16.7832 34.0618 16.7897 34.0596 16.7941C34.0575 16.8028 34.0531 16.8116 34.0487 16.8203C34.0421 16.8422 34.0377 16.8618 34.0311 16.8837C34.0311 16.888 34.0289 16.8924 34.0267 16.8946C34.0003 16.9055 34.0069 16.9274 34.0025 16.947C34.0003 16.9601 34.0003 16.9732 33.9871 16.9842C33.9827 16.9864 33.9827 16.9951 33.9805 17.0016C33.9805 17.0257 33.9739 17.0475 33.9607 17.0672C33.9497 17.0825 33.9497 17.1021 33.9453 17.1196C33.9343 17.1633 33.9233 17.2092 33.9145 17.2551C33.9101 17.2835 33.9123 17.3119 33.9079 17.3403C33.9057 17.3556 33.8991 17.3709 33.8969 17.384C33.8947 17.4058 33.8925 17.4277 33.8925 17.4495C33.8925 17.4539 33.8903 17.4583 33.8881 17.4626C33.8837 17.4714 33.8815 17.4801 33.8772 17.4867C33.8728 17.4976 33.8662 17.5085 33.8618 17.5194C33.8574 17.5282 33.853 17.5391 33.8464 17.5522C33.8398 17.5522 33.8288 17.5544 33.8178 17.5566C33.809 17.5588 33.798 17.5588 33.7892 17.5609C33.7606 17.5719 33.7606 17.5719 33.7232 17.5653C33.721 17.5653 33.7166 17.5653 33.7144 17.5653C33.699 17.5872 33.6815 17.5719 33.6683 17.5697C33.6573 17.5522 33.6463 17.5369 33.6375 17.5194C33.6353 17.5151 33.6309 17.5085 33.6309 17.5041C33.6265 17.4867 33.6221 17.467 33.6199 17.4495C33.6177 17.4364 33.6155 17.4211 33.6133 17.408C33.6111 17.3971 33.6089 17.3884 33.6045 17.3796C33.5913 17.349 33.5693 17.3206 33.5627 17.2879C33.5539 17.2573 33.5495 17.2245 33.5407 17.1917C33.5407 17.1895 33.5407 17.1874 33.5407 17.1852C33.5605 17.1546 33.5341 17.1284 33.5297 17.1C33.5275 17.0803 33.5055 17.0628 33.5143 17.0388C33.4968 17.0169 33.5012 16.9907 33.4924 16.9667C33.488 16.958 33.477 16.9492 33.477 16.9405C33.4748 16.9077 33.4594 16.8793 33.4484 16.8509C33.4418 16.8312 33.4308 16.8116 33.4308 16.7919C33.4308 16.7635 33.4022 16.7438 33.4132 16.7154C33.3978 16.6958 33.4044 16.6674 33.389 16.6477C33.3868 16.6455 33.3868 16.6433 33.3868 16.6433C33.378 16.5778 33.3472 16.5188 33.334 16.4555C33.323 16.4096 33.3121 16.3615 33.2945 16.3178C33.2857 16.296 33.2879 16.2741 33.2835 16.2501C33.2791 16.2282 33.2747 16.2064 33.2703 16.1845C33.2703 16.1824 33.2681 16.1802 33.2681 16.178C33.2725 16.1518 33.2571 16.1321 33.2505 16.1081C33.2417 16.0753 33.2351 16.0403 33.2285 16.0076C33.2263 15.9988 33.2241 15.9901 33.2219 15.9814C33.2175 15.9617 33.2021 15.9442 33.2087 15.9224C33.2087 15.9202 33.2087 15.918 33.2065 15.918C33.1867 15.8874 33.1845 15.8525 33.1713 15.8197C33.1603 15.7935 33.1537 15.7651 33.1493 15.7389C33.1427 15.7061 33.1296 15.6755 33.1164 15.6449C33.1076 15.6274 33.1076 15.6078 33.1032 15.5881C33.101 15.5794 33.0966 15.5706 33.0944 15.5619C33.0922 15.5531 33.0878 15.5466 33.0878 15.5379C33.0856 15.5269 33.0878 15.516 33.0746 15.5073C33.0702 15.5051 33.0702 15.4985 33.0702 15.492C33.0702 15.4723 33.0658 15.4548 33.0482 15.4374C33.057 15.4374 33.0614 15.4374 33.068 15.4374C33.057 15.4155 33.046 15.3915 33.035 15.3674C33.0372 15.3653 33.0416 15.3587 33.0438 15.3565C33.0416 15.3412 33.0394 15.3281 33.0372 15.3085C33.0328 15.3041 33.0152 15.3019 33.024 15.2822C33.0262 15.2757 33.0196 15.2604 33.013 15.256C33.002 15.2473 32.9998 15.2385 32.9998 15.2254C32.9998 15.2123 32.9976 15.197 32.9976 15.1839C32.9976 15.1774 32.9976 15.173 32.991 15.173C32.9888 15.173 32.9866 15.1686 32.9866 15.1664C32.9954 15.149 32.98 15.1337 32.9822 15.1162C32.9822 15.1118 32.98 15.1096 32.98 15.1053C32.98 15.0878 32.9602 15.0769 32.9624 15.0572C32.9624 15.0419 32.9514 15.0244 32.9492 15.007C32.9449 14.9851 32.9427 14.9633 32.9383 14.9414C32.9339 14.9152 32.9273 14.889 32.9207 14.8628C32.9031 14.854 32.9317 14.854 32.9229 14.8453C32.9185 14.8409 32.9185 14.83 32.9141 14.8212C32.9097 14.8125 32.9009 14.8038 32.9031 14.7994C32.9097 14.7841 32.8965 14.7732 32.8965 14.7579C32.8965 14.7535 32.8965 14.7492 32.8943 14.747C32.8789 14.7273 32.8789 14.7055 32.8767 14.6814C32.8745 14.6618 32.8701 14.6596 32.8503 14.6574C32.8217 14.6574 32.7953 14.6574 32.7667 14.6574H32.7645C32.7338 14.6443 32.7052 14.6639 32.6766 14.6596C32.6612 14.6574 32.6436 14.6552 32.6282 14.653C32.6216 14.6508 32.6128 14.6487 32.6062 14.6487C32.5776 14.6574 32.5469 14.6508 32.5183 14.6487C32.5029 14.6487 32.4897 14.6443 32.4743 14.6508C32.4633 14.6552 32.4457 14.653 32.4325 14.6508C32.4017 14.6487 32.3688 14.6465 32.338 14.6443C32.3314 14.6443 32.327 14.6443 32.3204 14.6465C32.3116 14.6508 32.305 14.6487 32.2962 14.6465C32.2874 14.6443 32.2742 14.6443 32.2654 14.6465C32.2434 14.6508 32.2192 14.6552 32.1973 14.6465C32.1885 14.6421 32.1775 14.6399 32.1665 14.6487C32.1643 14.6508 32.1577 14.653 32.1533 14.6508C32.1247 14.6377 32.0961 14.6508 32.0675 14.6508C32.0565 14.6508 32.0455 14.6487 32.0367 14.6508C32.0191 14.6508 31.9994 14.6487 31.9818 14.653C31.9796 14.653 31.9752 14.653 31.973 14.6552C31.9444 14.6552 31.9136 14.6508 31.8872 14.6574C31.8608 14.6639 31.8366 14.6552 31.8125 14.6552C31.7949 14.6552 31.7773 14.6552 31.7597 14.6574C31.7355 14.6596 31.7135 14.6661 31.6893 14.6683C31.6519 14.6705 31.6146 14.6705 31.5772 14.6727C31.5574 14.6727 31.5398 14.6771 31.52 14.6771C31.498 14.6771 31.4738 14.6749 31.4519 14.6727C31.4387 14.6705 31.4255 14.6639 31.4145 14.6749C31.4123 14.6771 31.4079 14.6771 31.4035 14.6771C31.3507 14.6771 31.2979 14.6792 31.2452 14.6836C31.2386 14.6836 31.2298 14.6836 31.221 14.6814C31.21 14.6814 31.199 14.6792 31.1902 14.6814C31.1682 14.6858 31.1484 14.6858 31.1264 14.6836C31.1 14.6814 31.0737 14.6858 31.0451 14.6858C31.0165 14.6858 30.9879 14.6814 30.9593 14.6814C30.9373 14.6814 30.9153 14.6814 30.8956 14.6771C30.8516 14.6705 30.8098 14.688 30.7658 14.6792C30.746 14.6749 30.7262 14.6771 30.7065 14.6749C30.6955 14.6749 30.6867 14.6705 30.6757 14.6792C30.6735 14.6814 30.6669 14.6814 30.6647 14.6792C30.6427 14.6705 30.6185 14.6749 30.5943 14.6727C30.5745 14.6705 30.5525 14.6727 30.5306 14.6727C30.4976 14.6727 30.4624 14.6771 30.4294 14.6727C30.3788 14.6639 30.3305 14.6683 30.2799 14.6639C30.2733 14.6639 30.2645 14.6618 30.2579 14.6596C30.2271 14.6487 30.1963 14.6355 30.1633 14.6334C30.1524 14.6334 30.1436 14.629 30.137 14.6181C30.1304 14.6028 30.1172 14.594 30.0996 14.594C30.0864 14.594 30.071 14.5875 30.0556 14.5831C30.0534 14.5613 30.0424 14.5438 30.0292 14.5285C30.016 14.511 30.0138 14.4913 30.027 14.4761C30.038 14.4651 30.0468 14.452 30.0578 14.4411C30.1018 14.4083 30.1436 14.3756 30.1919 14.3493C30.2161 14.3493 30.2315 14.3362 30.2425 14.3188C30.2425 14.3166 30.2447 14.3166 30.2469 14.3166C30.2821 14.3078 30.3041 14.2816 30.3327 14.2619C30.3437 14.2554 30.3568 14.251 30.37 14.2423C30.3942 14.227 30.4184 14.2117 30.4426 14.1964C30.4646 14.1833 30.4866 14.1746 30.5064 14.1614C30.513 14.1571 30.5196 14.1527 30.5262 14.1462C30.5284 14.144 30.5327 14.1396 30.5349 14.1396C30.5547 14.1418 30.5657 14.1243 30.5767 14.1156C30.6141 14.0872 30.6537 14.0631 30.6933 14.0413C30.7262 14.0238 30.7658 14.0107 30.7922 13.9823C30.8186 13.9539 30.8538 13.943 30.8824 13.9189C30.9109 13.8971 30.9461 13.884 30.9791 13.8643C30.9945 13.8556 31.0055 13.8425 31.0209 13.8337C31.0451 13.8184 31.0693 13.8053 31.0934 13.79C31.1066 13.7813 31.1198 13.7726 31.133 13.7638C31.1682 13.742 31.2034 13.7223 31.2386 13.7026C31.2474 13.6983 31.254 13.6895 31.2606 13.683C31.2759 13.6677 31.2891 13.6502 31.3133 13.6458C31.3265 13.6437 31.3397 13.6349 31.3507 13.6262C31.3683 13.6153 31.3837 13.6021 31.4013 13.5912C31.4189 13.5803 31.4387 13.5716 31.4585 13.5606C31.4716 13.5519 31.4848 13.541 31.498 13.5344C31.531 13.5169 31.5662 13.5016 31.597 13.482C31.6278 13.4623 31.6607 13.4514 31.6937 13.4361C31.6959 13.4339 31.6981 13.4339 31.7003 13.4317C31.7223 13.4121 31.7487 13.3968 31.7773 13.3859C31.7971 13.3771 31.8169 13.3684 31.8366 13.3575C31.8564 13.3465 31.8762 13.3334 31.896 13.3247C31.9246 13.3094 31.9554 13.2963 31.9862 13.2832C32.0038 13.2744 32.0235 13.2701 32.0411 13.2613C32.0653 13.2482 32.0917 13.246 32.1159 13.2373C32.1489 13.2242 32.1819 13.2089 32.2148 13.1936C32.228 13.187 32.2412 13.1849 32.2544 13.1761C32.2852 13.1586 32.316 13.139 32.349 13.1215C32.3556 13.1171 32.3688 13.1193 32.3732 13.1128C32.3885 13.0909 32.4149 13.0953 32.4347 13.0887C32.4501 13.0822 32.4611 13.0756 32.4655 13.0603C32.5007 13.0647 32.5183 13.0494 32.5117 13.0166C32.5073 12.9992 32.5139 12.9795 32.5007 12.9642C32.4963 12.9598 32.5029 12.9467 32.5073 12.9336C32.4787 12.9074 32.4941 12.8637 32.4765 12.8309C32.4831 12.8178 32.4787 12.8091 32.4677 12.7982C32.4655 12.796 32.4655 12.7938 32.4655 12.7894C32.4699 12.7523 32.4479 12.7239 32.4347 12.6911C32.4303 12.678 32.4237 12.6671 32.4237 12.654C32.4215 12.6277 32.3995 12.6059 32.4105 12.5797C32.3951 12.5622 32.3973 12.5425 32.3907 12.5229C32.3885 12.5141 32.382 12.5076 32.3842 12.4967C32.3842 12.4835 32.3798 12.4683 32.3754 12.4551C32.371 12.442 32.3644 12.4289 32.36 12.4158C32.3556 12.4071 32.3512 12.3962 32.349 12.3874C32.3446 12.3765 32.338 12.3656 32.3402 12.3546C32.3446 12.3219 32.327 12.2935 32.3204 12.2629C32.316 12.2432 32.3116 12.2257 32.3072 12.2061C32.3028 12.1908 32.3006 12.1755 32.2962 12.1624C32.2896 12.1362 32.2852 12.1099 32.2786 12.0859C32.2676 12.0444 32.2698 12.0007 32.2544 11.9636C32.239 11.9286 32.2434 11.8915 32.2302 11.8587C32.2236 11.8434 32.2192 11.8259 32.2236 11.8106C32.2258 11.8041 32.2258 11.7975 32.2126 11.7932C32.2082 11.791 32.206 11.7779 32.2039 11.7713C32.1929 11.708 32.1775 11.6468 32.1599 11.5834C32.1577 11.5747 32.1599 11.5659 32.1577 11.555C32.1555 11.5375 32.1511 11.5201 32.1467 11.5026C32.1401 11.4786 32.1269 11.4523 32.1313 11.4305C32.1335 11.4065 32.1247 11.3868 32.1203 11.3649C32.1181 11.3518 32.1269 11.3453 32.1291 11.3365C32.1313 11.3322 32.1313 11.33 32.1357 11.3256C32.1071 11.3147 32.1203 11.2863 32.1071 11.2688C32.1159 11.2579 32.1269 11.2491 32.1357 11.2382C32.1379 11.2426 32.1379 11.2448 32.1423 11.247C32.1467 11.2491 32.1533 11.2557 32.1555 11.2535C32.1643 11.2491 32.1621 11.2426 32.1577 11.2339C32.1511 11.236 32.1423 11.236 32.1357 11.2382C32.1203 11.2426 32.1115 11.2339 32.1005 11.2207C32.1115 11.2142 32.1203 11.2098 32.1291 11.2055C32.1291 11.212 32.1291 11.2186 32.1291 11.2273C32.1357 11.2251 32.1423 11.2251 32.1511 11.2229C32.1401 11.2164 32.1335 11.212 32.1269 11.2055C32.1093 11.2033 32.1291 11.1902 32.1181 11.1858C32.1115 11.1858 32.1049 11.188 32.0961 11.188C32.0961 11.1836 32.0983 11.1814 32.0983 11.1792C32.0983 11.1596 32.0983 11.1399 32.0961 11.1202C32.0961 11.1115 32.0917 11.1006 32.0873 11.0962C32.0609 11.0831 32.0675 11.0547 32.0521 11.035C32.0477 11.0307 32.0521 11.0197 32.0543 11.011C32.0587 10.9979 32.0587 10.987 32.0389 10.9804C32.0631 10.9629 32.0653 10.9367 32.0675 10.9171C32.0785 10.9083 32.0895 10.9018 32.0961 10.893C32.1137 10.869 32.1357 10.8603 32.1687 10.8668C32.1731 10.8668 32.1775 10.869 32.1841 10.8668C32.217 10.8646 32.2456 10.8865 32.2786 10.8908C32.2874 10.893 32.2918 10.904 32.3006 10.9083C32.3358 10.9345 32.371 10.9586 32.4061 10.9848C32.4105 10.987 32.4127 10.9913 32.4171 10.9935C32.4369 11.0088 32.4545 11.0263 32.4743 11.0416C32.4853 11.0503 32.4985 11.0569 32.5095 11.0656C32.5337 11.0831 32.5601 11.1006 32.5798 11.1224C32.6018 11.1465 32.6326 11.1596 32.6546 11.1814C32.6634 11.1902 32.6744 11.1989 32.6832 11.2098C32.6942 11.2207 32.7074 11.212 32.7184 11.2251C32.7294 11.2404 32.747 11.2491 32.7623 11.2601C32.7667 11.2623 32.7689 11.2666 32.7689 11.271C32.7711 11.2885 32.7821 11.2928 32.7953 11.2972C32.8019 11.2994 32.8063 11.3038 32.8129 11.306C32.8217 11.3125 32.8305 11.3191 32.8393 11.3256C32.8525 11.3365 32.8657 11.3475 32.8811 11.3562C32.8899 11.3628 32.9009 11.3671 32.9097 11.3737C32.9514 11.3977 32.9954 11.4217 33.035 11.4501C33.0592 11.4676 33.0834 11.4873 33.1142 11.5004C33.1383 11.5113 33.1581 11.531 33.1779 11.5463C33.1845 11.5506 33.1911 11.5572 33.1999 11.5616C33.2197 11.5703 33.2329 11.5834 33.2483 11.5965C33.2571 11.6053 33.2703 11.6096 33.2791 11.6162C33.3077 11.6359 33.3362 11.6577 33.3626 11.6795C33.3934 11.7036 33.4198 11.7298 33.4528 11.7516C33.4748 11.7669 33.4924 11.7866 33.5143 11.8019C33.5363 11.8172 33.5539 11.8347 33.5759 11.85C33.6243 11.8849 33.6749 11.9177 33.7232 11.9526C33.7518 11.9723 33.7804 11.992 33.8046 12.0182C33.8112 12.0247 33.8266 12.0269 33.8354 12.0335C33.8398 12.0357 33.8464 12.0379 33.8508 12.0422C33.8684 12.0706 33.8947 12.0706 33.9211 12.0619C33.9365 12.0575 33.9519 12.0553 33.9651 12.051C33.9695 12.0488 33.9739 12.0466 33.9783 12.0422C33.9893 12.0247 34.0047 12.016 34.0267 12.0116C34.0289 12.0116 34.0311 12.0116 34.0333 12.0116C34.0575 11.9832 34.1058 11.992 34.1278 11.957C34.13 11.9526 34.1366 11.9526 34.141 11.9505C34.1696 11.9417 34.1938 11.9264 34.218 11.9111C34.229 11.9046 34.2443 11.9024 34.2553 11.8893C34.2641 11.8805 34.2795 11.8762 34.2927 11.8718C34.3147 11.8609 34.3367 11.85 34.3587 11.839C34.3785 11.8281 34.3983 11.815 34.4203 11.8085C34.44 11.8019 34.4576 11.7866 34.4774 11.7757C34.4928 11.7669 34.5082 11.7604 34.5214 11.7516C34.5566 11.732 34.5918 11.7101 34.6291 11.6927C34.6555 11.6795 34.6775 11.6599 34.7083 11.649C34.7391 11.6359 34.7655 11.6118 34.7941 11.5943C34.8029 11.5878 34.8138 11.5856 34.8248 11.579C34.8358 11.5725 34.849 11.5681 34.8556 11.5616C34.8732 11.5441 34.8908 11.5332 34.9128 11.5244C34.9392 11.5135 34.9612 11.496 34.9854 11.4807C35.0447 11.4436 35.1019 11.4043 35.1635 11.3671C35.1898 11.3496 35.2184 11.3365 35.247 11.3191C35.2844 11.2972 35.3218 11.2732 35.3614 11.2491C35.3636 11.247 35.3657 11.2448 35.3679 11.2448C35.3943 11.2426 35.4097 11.2229 35.4273 11.2098C35.4449 11.1989 35.4603 11.1858 35.4823 11.1814C35.4867 11.1814 35.4911 11.1771 35.4933 11.1749C35.5021 11.1574 35.5219 11.1508 35.5395 11.1465C35.5483 11.1443 35.557 11.1421 35.5592 11.1312C35.5592 11.129 35.5636 11.1246 35.5658 11.1246C35.5988 11.1137 35.6252 11.0918 35.6538 11.0722C35.6604 11.0678 35.6714 11.0656 35.6802 11.0613C35.7154 11.0416 35.7505 11.0241 35.7857 11.0045C35.7945 11.0001 35.8055 10.9979 35.8143 10.9935C35.8341 10.9848 35.8561 10.9804 35.8715 10.9629C35.8737 10.9608 35.8737 10.9586 35.8759 10.9586C35.9067 10.9477 35.9308 10.9236 35.9638 10.9149C35.988 10.9083 36.0078 10.8952 36.0298 10.8843C36.0562 10.8712 36.0826 10.8515 36.1111 10.845C36.1419 10.8362 36.1617 10.8144 36.1903 10.8078C36.2211 10.8013 36.2409 10.7794 36.2673 10.7663C36.2849 10.7576 36.3024 10.7532 36.32 10.7445C36.3684 10.7183 36.419 10.6942 36.4652 10.6636C36.4849 10.6505 36.5113 10.6462 36.5289 10.6287C36.5355 10.6221 36.5443 10.6178 36.5509 10.6134C36.5597 10.609 36.5663 10.6025 36.5751 10.6003C36.5949 10.5937 36.6169 10.5872 36.6367 10.5828C36.6389 10.5828 36.6411 10.5806 36.6411 10.5806C36.6652 10.5544 36.6982 10.5522 36.7312 10.5478C36.7576 10.5435 36.784 10.5413 36.8104 10.5478C36.8368 10.5544 36.8587 10.5741 36.8697 10.6003C36.8851 10.6309 36.8983 10.6614 36.9115 10.6942C36.9137 10.7008 36.9159 10.7117 36.9159 10.7183C36.9115 10.7488 36.9027 10.7772 36.8961 10.8078C36.8917 10.8231 36.8873 10.8362 36.8785 10.8493C36.8763 10.8537 36.8741 10.8581 36.8741 10.8624C36.8763 10.893 36.8719 10.9214 36.8456 10.9411C36.85 10.9498 36.8521 10.9564 36.8521 10.9608C36.8478 10.9782 36.8434 10.9935 36.8412 11.0066C36.8368 11.0219 36.8368 11.0416 36.828 11.0482C36.7994 11.07 36.8126 11.1028 36.7972 11.129C36.7928 11.1355 36.7928 11.1465 36.7862 11.1508C36.7642 11.1705 36.7554 11.1967 36.751 11.2229C36.7466 11.2513 36.7268 11.2732 36.7158 11.2972C36.707 11.3169 36.6916 11.3322 36.6894 11.354C36.6894 11.3606 36.685 11.3649 36.6806 11.3715C36.6674 11.389 36.6521 11.4086 36.6389 11.4261C36.6301 11.4392 36.6235 11.4501 36.6169 11.4633C36.6125 11.4742 36.6103 11.4851 36.6037 11.4938C36.5839 11.5157 36.5729 11.5419 36.5663 11.5703C36.5641 11.5812 36.5509 11.5878 36.5443 11.5987C36.5333 11.6184 36.5245 11.638 36.5157 11.6577C36.5047 11.6795 36.4937 11.7014 36.4827 11.7232C36.4783 11.732 36.474 11.7385 36.4718 11.7473C36.4652 11.7757 36.452 11.7997 36.4388 11.8237C36.4322 11.8347 36.4212 11.8456 36.4278 11.8631C36.4278 11.8653 36.4256 11.8674 36.4256 11.8696C36.3992 11.909 36.397 11.957 36.375 11.9985C36.3618 12.0247 36.3552 12.0575 36.3464 12.0859C36.342 12.0947 36.3354 12.1034 36.3288 12.1121C36.3266 12.1143 36.3244 12.1165 36.3244 12.1187C36.3288 12.1558 36.2958 12.1755 36.2871 12.2061C36.2761 12.241 36.2607 12.276 36.2475 12.3109C36.2453 12.3175 36.2409 12.3241 36.2365 12.3328C36.2343 12.335 36.2321 12.3372 36.2321 12.3393C36.2365 12.3743 36.2013 12.3983 36.2013 12.4333C36.2013 12.4442 36.1881 12.453 36.1815 12.4639C36.1771 12.4726 36.1705 12.4835 36.1705 12.4945C36.1705 12.5098 36.1661 12.5229 36.1529 12.5338C36.1507 12.536 36.1485 12.5403 36.1463 12.5425C36.1353 12.5688 36.1243 12.5928 36.1111 12.6212C36.1199 12.6256 36.1199 12.6343 36.1133 12.6474C36.0958 12.6736 36.0804 12.702 36.0738 12.7348C36.0694 12.7588 36.0584 12.7829 36.0496 12.8069C36.0342 12.8484 36.021 12.8921 36.0034 12.9336C35.9946 12.9576 35.9836 12.9795 35.9704 13.0035C35.9594 13.0254 35.9506 13.045 35.9462 13.0691C35.944 13.0778 35.9418 13.0865 35.9352 13.0931C35.9264 13.1062 35.9264 13.1215 35.9198 13.1324C35.9133 13.1455 35.9067 13.1565 35.8979 13.1696C35.8869 13.1892 35.8825 13.2111 35.8737 13.2307C35.8561 13.2679 35.8363 13.3028 35.8165 13.34C35.8121 13.3465 35.8165 13.3575 35.8165 13.3662C35.8451 13.3706 35.8649 13.3859 35.8869 13.4011C35.9111 13.4186 35.9418 13.4339 35.9704 13.4448C36.0034 13.458 36.0386 13.4645 36.0694 13.4842C36.0804 13.4907 36.0958 13.4907 36.1089 13.4973C36.1529 13.5169 36.1969 13.5344 36.2387 13.5563C36.2673 13.5737 36.298 13.589 36.3266 13.6065C36.3596 13.6284 36.3882 13.6524 36.419 13.6764C36.4234 13.6808 36.43 13.683 36.4366 13.6874C36.4476 13.6939 36.4564 13.6983 36.4652 13.707C36.4805 13.7201 36.5003 13.731 36.5201 13.7376C36.5421 13.7442 36.5597 13.7507 36.5773 13.7682C36.5927 13.7835 36.6169 13.79 36.6367 13.801C36.6433 13.8031 36.6477 13.8075 36.6543 13.8097C36.6872 13.8294 36.718 13.8534 36.7532 13.8687C36.8104 13.8949 36.8609 13.932 36.9115 13.9648C36.9291 13.9757 36.9489 13.9823 36.9687 13.9867C36.9797 13.991 36.9907 13.9932 36.9973 14.0041C37.0083 14.0216 37.0259 14.0304 37.0456 14.0369C37.072 14.0457 37.0962 14.0631 37.1204 14.0762C37.149 14.0915 37.1776 14.1068 37.204 14.1221C37.2193 14.1309 37.2347 14.1418 37.2501 14.1505C37.2721 14.1636 37.2963 14.1746 37.3183 14.1898C37.3359 14.203 37.3601 14.2073 37.3733 14.2292C37.3755 14.2335 37.3865 14.2335 37.3909 14.2379C37.4041 14.2467 37.4194 14.251 37.4282 14.2685C37.4326 14.2751 37.4436 14.2794 37.4524 14.2816C37.4744 14.2882 37.492 14.3013 37.5096 14.3144C37.5448 14.3384 37.58 14.3581 37.6151 14.3821C37.6327 14.393 37.6481 14.4083 37.6657 14.4214C37.6679 14.4236 37.6701 14.4258 37.6723 14.428C37.6965 14.4324 37.7163 14.4477 37.7339 14.4629C37.7405 14.4695 37.7493 14.4739 37.7581 14.4826C37.7669 14.4935 37.7822 14.5045 37.7976 14.5066C37.824 14.511 37.8394 14.5285 37.8592 14.5394C37.8966 14.5613 37.9296 14.5897 37.9669 14.6137C37.9823 14.6246 37.9889 14.6377 37.9911 14.6574C37.9933 14.6771 37.9933 14.6967 37.9955 14.7164C37.9933 14.7186 37.9933 14.7186 37.9911 14.7207C37.9823 14.7186 37.9779 14.7164 37.9713 14.7251C37.9538 14.7535 37.9406 14.7623 37.9054 14.7776C37.8944 14.7819 37.8856 14.795 37.8746 14.8038C37.8702 14.8081 37.8658 14.8125 37.8614 14.8125C37.8284 14.8103 37.8042 14.8322 37.7778 14.8431C37.7669 14.8475 37.7603 14.8518 37.7493 14.8475C37.7383 14.8431 37.7273 14.8475 37.7163 14.8497C37.6899 14.8518 37.6635 14.8671 37.6349 14.8628C37.6305 14.8628 37.6239 14.8628 37.6217 14.8649C37.5888 14.8781 37.5536 14.8737 37.5184 14.8693C37.5096 14.8693 37.5008 14.8715 37.492 14.8715C37.4656 14.8715 37.4392 14.8671 37.4128 14.8671C37.3953 14.8671 37.3799 14.8693 37.3623 14.8693C37.3337 14.8671 37.3051 14.8606 37.2765 14.8584C37.2633 14.8584 37.2479 14.8628 37.2347 14.8628C37.2281 14.8628 37.2194 14.8649 37.2128 14.8628C37.1908 14.854 37.1688 14.8518 37.1468 14.854C37.1358 14.8562 37.1248 14.854 37.116 14.8497C37.105 14.8453 37.094 14.8453 37.083 14.8475C37.0742 14.8497 37.0632 14.8453 37.0522 14.8453C37.0127 14.8431 36.9731 14.8365 36.9357 14.8475C36.9335 14.8475 36.9313 14.8475 36.9291 14.8475C36.8851 14.8322 36.8412 14.8453 36.7972 14.8322C36.7752 14.8431 36.7576 14.8278 36.7356 14.8256C36.7136 14.8234 36.6938 14.8234 36.6718 14.8212H36.6696C36.6301 14.8322 36.5905 14.8169 36.5509 14.8169C36.5421 14.8169 36.5355 14.8169 36.5267 14.8191C36.5179 14.8191 36.5091 14.8191 36.5025 14.8191C36.4981 14.8191 36.4915 14.8169 36.4893 14.8191C36.4696 14.8322 36.4454 14.8234 36.4256 14.8344C36.4212 14.8365 36.4146 14.8365 36.408 14.8365C36.3684 14.8344 36.3288 14.8344 36.2892 14.8322C36.2585 14.8322 36.2255 14.83 36.1947 14.83C36.1793 14.83 36.1639 14.8278 36.1485 14.8278C36.1441 14.8278 36.1397 14.8256 36.1375 14.8256C36.1024 14.8387 36.065 14.8234 36.0298 14.8234C36.0078 14.8234 35.9858 14.8256 35.9638 14.8256C35.9594 14.8256 35.9528 14.8278 35.9506 14.8256C35.9242 14.8103 35.9001 14.8125 35.8737 14.8212H35.8715C35.8583 14.8191 35.8451 14.8147 35.8319 14.8125C35.8209 14.8103 35.8121 14.8212 35.7967 14.8169C35.7769 14.8103 35.7527 14.8169 35.7308 14.8169C35.689 14.8191 35.645 14.8234 35.6032 14.8169C35.5944 14.8147 35.5856 14.8125 35.579 14.8103C35.5658 14.8081 35.5526 14.7994 35.5395 14.8103C35.5351 14.8125 35.5285 14.8125 35.5219 14.8103C35.4999 14.8038 35.4779 14.8125 35.4559 14.7994C35.4515 14.7972 35.4449 14.8016 35.4405 14.8016C35.4339 14.8016 35.4273 14.8038 35.4207 14.8016C35.3943 14.7928 35.3701 14.7907 35.3438 14.7994C35.3416 14.7994 35.3394 14.7994 35.3372 14.7994C35.2998 14.7885 35.2624 14.795 35.225 14.795C35.1679 14.7972 35.1107 14.7863 35.0557 14.7928C35.0227 14.7972 34.9897 14.7841 34.9568 14.7907C34.9282 14.795 34.8996 14.7907 34.871 14.7863C34.8578 14.7841 34.849 14.7885 34.8446 14.7994C34.838 14.8125 34.8314 14.8278 34.8248 14.8431C34.8226 14.8475 34.8226 14.8518 34.8204 14.8562C34.7963 14.889 34.7875 14.9283 34.7721 14.9633C34.7611 14.9873 34.7457 15.0091 34.7413 15.0354C34.7369 15.0354 34.7325 15.0354 34.7259 15.0354C34.7237 15.0463 34.7215 15.0594 34.7215 15.0703C34.7215 15.0922 34.7215 15.0922 34.6951 15.0965C34.6995 15.1009 34.7017 15.1053 34.7061 15.1118C34.7017 15.1184 34.6951 15.1271 34.6885 15.1359C34.6907 15.1402 34.6973 15.1468 34.6973 15.1533C34.6973 15.1599 34.6951 15.1752 34.6907 15.1752C34.6665 15.1774 34.6599 15.2014 34.6423 15.2123C34.6445 15.2232 34.6511 15.2342 34.6511 15.2473C34.6511 15.2648 34.6467 15.2779 34.6379 15.2932C34.6247 15.315 34.6181 15.3412 34.6094 15.3653C34.6072 15.3718 34.6028 15.3827 34.5984 15.3827C34.5742 15.3849 34.5786 15.4024 34.5764 15.4155C34.55 15.457 34.5434 15.4679 34.5324 15.4767ZM32.6568 13.1586C32.67 13.1543 32.67 13.1543 32.6722 13.1455C32.6612 13.1455 32.6612 13.1455 32.6568 13.1586ZM36.0958 14.1178C36.0958 14.1199 36.0958 14.1221 36.0958 14.1243C36.1067 14.1265 36.1177 14.133 36.1287 14.1243C36.1177 14.1221 36.1067 14.1199 36.0958 14.1178ZM36.1111 11.3169C36.1133 11.3191 36.1133 11.3191 36.1155 11.3212C36.1199 11.3169 36.1221 11.3147 36.1265 11.3103C36.1199 11.3147 36.1155 11.3147 36.1111 11.3169Z" fill="white"/>
<path d="M34.5324 15.4768C34.539 15.4746 34.5478 15.4724 34.5566 15.468C34.5478 15.4768 34.5478 15.4768 34.5324 15.4768Z" fill="white"/>
<path d="M66.3602 23.399V16.801H68.5063V28.5441L61.215 21.2972V27.8865H59.069V16.1543L66.3602 23.399Z" fill="#333333"/>
<path d="M79.2761 18.4331C80.3645 19.5146 80.9098 20.8232 80.9098 22.3569C80.9098 23.8863 80.3645 25.1928 79.2761 26.2742C78.1877 27.3557 76.8706 27.8975 75.327 27.8975C73.7878 27.8975 72.4729 27.3557 71.3845 26.2742C70.2961 25.1928 69.7508 23.8863 69.7508 22.3569C69.7508 20.8232 70.2961 19.5146 71.3845 18.4331C72.4729 17.3516 73.7878 16.8098 75.327 16.8098C76.8706 16.8098 78.1877 17.3516 79.2761 18.4331ZM75.3248 25.763C76.2725 25.763 77.0817 25.4309 77.7501 24.7667C78.4229 24.0982 78.7616 23.2942 78.7616 22.3569C78.7616 21.4153 78.4251 20.6113 77.7501 19.9471C77.0817 19.2786 76.2725 18.9421 75.3248 18.9421C74.3815 18.9421 73.5723 19.2764 72.8995 19.9471C72.2311 20.6113 71.8969 21.4153 71.8969 22.3569C71.8969 23.2942 72.2311 24.0982 72.8995 24.7667C73.5745 25.4309 74.3815 25.763 75.3248 25.763Z" fill="#333333"/>
<path d="M84.2982 27.8953H82.1521V16.8098H87.4073C88.3814 16.8098 89.2169 17.155 89.9118 17.8454C90.6022 18.5314 90.9452 19.3573 90.9452 20.3251C90.9452 21.1641 90.6791 21.9091 90.1448 22.5579C89.6215 23.1959 88.9553 23.6001 88.1461 23.7705L91.264 27.8953H88.5815L85.5251 23.847H84.296V27.8953H84.2982ZM84.2982 21.7146H87.4073C87.7899 21.7146 88.1197 21.5792 88.3946 21.3061C88.665 21.0373 88.7991 20.7118 88.7991 20.3251C88.7991 19.945 88.665 19.6194 88.3946 19.3507C88.1197 19.0776 87.7899 18.9421 87.4073 18.9421H84.2982V21.7146Z" fill="#333333"/>
<path d="M100.47 16.8098V18.9421H97.2514V27.8953H95.1053V18.9421H91.8863V16.8098H100.47Z" fill="#333333"/>
<path d="M110.726 16.8098V27.8953H108.58V23.4231H103.861V27.8953H101.715V16.8098H103.861V21.2908H108.58V16.8098H110.726Z" fill="#333333"/>
<path d="M119.347 26.2742C118.259 27.3557 116.942 27.8975 115.398 27.8975H111.97V16.8098H115.398C116.942 16.8098 118.259 17.3516 119.347 18.4331C120.436 19.5146 120.981 20.8232 120.981 22.3569C120.981 23.8863 120.436 25.1928 119.347 26.2742ZM114.116 25.763H115.398C116.346 25.763 117.157 25.4309 117.832 24.7667C118.501 24.0982 118.835 23.2942 118.835 22.3569C118.835 21.4153 118.501 20.6113 117.832 19.9471C117.159 19.2786 116.348 18.9421 115.398 18.9421H114.116V25.763Z" fill="#333333"/>
<path d="M130.902 27.8952H128.554L127.978 26.6128H123.437L122.861 27.8952H120.513L125.706 16.3225L130.902 27.8952ZM124.394 24.4892H127.021L125.706 21.5616L124.394 24.4892Z" fill="#333333"/>
<path d="M134.293 16.8098V25.763H140.94V27.8953H132.147V16.8098H134.293Z" fill="#333333"/>
<path d="M150.766 16.8098V18.9421H144.33V21.2908H148.831V23.4231H144.33V25.763H150.768V27.8953H142.184V16.8098H150.766Z" fill="#333333"/>
<path d="M65.8281 31.0259V38.5633L60.3553 33.1254V38.5939H59.4955V31.0565L64.9684 36.4944V31.0259H65.8281V31.0259Z" fill="#333333"/>
<path d="M72.3696 31.0259V31.8801H67.541V34.3817H70.9206V35.2359H67.541V37.7375H72.3696V38.5917H66.6791V31.0215H72.3696V31.0259Z" fill="#333333"/>
<path d="M78.9089 31.0259V31.8801H76.4968V38.5961H75.6304V31.8801H73.2183V31.0259H78.9089Z" fill="#333333"/>
<path d="M89.461 31.2007L86.1342 38.5961L84.6104 35.1923L83.08 38.5961L79.7598 31.2007H80.7053L83.08 36.49L84.0475 34.3424L84.617 33.0861L85.1689 34.338L86.1364 36.4922L88.5177 31.2029H89.461V31.2007Z" fill="#333333"/>
<path d="M95.8573 32.1336C96.6005 32.872 96.9721 33.7656 96.9721 34.8099C96.9721 35.8542 96.6005 36.7478 95.8573 37.4862C95.1141 38.2247 94.2148 38.5939 93.1638 38.5939C92.1128 38.5939 91.2134 38.2247 90.4702 37.4862C89.727 36.7478 89.3554 35.8542 89.3554 34.8099C89.3554 33.7656 89.727 32.872 90.4702 32.1336C91.2134 31.3951 92.1128 31.0259 93.1638 31.0259C94.2148 31.0259 95.1141 31.3951 95.8573 32.1336ZM93.1638 37.7397C93.9773 37.7397 94.6722 37.4535 95.2461 36.8789C95.8244 36.3043 96.1124 35.6161 96.1124 34.8099C96.1124 33.9994 95.8244 33.3111 95.2461 32.7409C94.6722 32.1663 93.9773 31.8801 93.1638 31.8801C92.3524 31.8801 91.6576 32.1663 91.0815 32.7409C90.5032 33.3111 90.2152 34.0015 90.2152 34.8099C90.2152 35.6161 90.5032 36.3065 91.0815 36.8789C91.6576 37.4535 92.3524 37.7397 93.1638 37.7397Z" fill="#333333"/>
<path d="M98.685 38.5961H97.8253V31.0259H101.396C102.023 31.0259 102.559 31.2465 103.006 31.6901C103.452 32.1292 103.674 32.6623 103.674 33.2893C103.674 33.8202 103.505 34.2965 103.164 34.7138C102.823 35.1332 102.392 35.3976 101.869 35.5047L101.299 35.627L103.536 38.5939H102.458L100.169 35.5593H98.6872V38.5961H98.685ZM98.685 34.7007H101.394C101.783 34.7007 102.117 34.563 102.399 34.2899C102.676 34.0146 102.812 33.6826 102.812 33.2915C102.812 32.9048 102.674 32.5727 102.399 32.293C102.12 32.0178 101.785 31.8823 101.394 31.8823H98.685V34.7007Z" fill="#333333"/>
<path d="M110.235 31.0259L107.159 34.2462L110.442 38.5961H109.362L106.557 34.8798L105.383 36.1098V38.5961H104.521V31.0259H105.383V34.8645L109.044 31.0259H110.235Z" fill="#333333"/>
</svg>
