<svg xmlns="http://www.w3.org/2000/svg" xmlns:xlink="http://www.w3.org/1999/xlink" viewBox="0 0 3578.99 1905.74"><defs><style>.cls-1,.cls-135{fill:none;}.cls-1{clip-rule:evenodd;}.cls-2{isolation:isolate;}.cls-3{clip-path:url(#clip-path);}.cls-10,.cls-100,.cls-101,.cls-102,.cls-103,.cls-104,.cls-105,.cls-106,.cls-107,.cls-109,.cls-11,.cls-110,.cls-115,.cls-116,.cls-117,.cls-118,.cls-119,.cls-12,.cls-120,.cls-13,.cls-14,.cls-16,.cls-17,.cls-18,.cls-19,.cls-20,.cls-21,.cls-22,.cls-23,.cls-24,.cls-25,.cls-26,.cls-27,.cls-28,.cls-30,.cls-31,.cls-33,.cls-34,.cls-36,.cls-37,.cls-38,.cls-39,.cls-4,.cls-40,.cls-41,.cls-42,.cls-43,.cls-44,.cls-45,.cls-46,.cls-47,.cls-48,.cls-49,.cls-5,.cls-50,.cls-51,.cls-52,.cls-53,.cls-54,.cls-55,.cls-56,.cls-57,.cls-58,.cls-59,.cls-6,.cls-60,.cls-61,.cls-62,.cls-63,.cls-64,.cls-65,.cls-66,.cls-67,.cls-68,.cls-69,.cls-7,.cls-70,.cls-71,.cls-72,.cls-74,.cls-75,.cls-76,.cls-77,.cls-79,.cls-80,.cls-81,.cls-82,.cls-83,.cls-84,.cls-85,.cls-86,.cls-87,.cls-88,.cls-89,.cls-90,.cls-91,.cls-94,.cls-95,.cls-96,.cls-97,.cls-98,.cls-99{fill-rule:evenodd;}.cls-4{fill:url(#radial-gradient);}.cls-5{fill:#cfdde0;}.cls-10,.cls-16,.cls-5,.cls-65,.cls-8,.cls-9,.cls-90{mix-blend-mode:soft-light;}.cls-6{fill:url(#Áĺçűě_ííűé_ăđŕäčĺíň_31);}.cls-7{fill:url(#Áĺçűě_ííűé_ăđŕäčĺíň_68);}.cls-10,.cls-12,.cls-13,.cls-15,.cls-16,.cls-17,.cls-8,.cls-9{fill:#fff;}.cls-10,.cls-9{opacity:0.91;}.cls-11{fill:url(#Áĺçűě_ííűé_ăđŕäčĺíň_107);}.cls-13{opacity:0.8;}.cls-14{fill:url(#Áĺçűě_ííűé_ăđŕäčĺíň_114);}.cls-17{opacity:0.65;}.cls-18{fill:url(#Áĺçűě_ííűé_ăđŕäčĺíň_358);}.cls-104,.cls-106,.cls-108,.cls-116,.cls-117,.cls-118,.cls-19,.cls-20,.cls-21,.cls-23,.cls-24,.cls-25,.cls-26,.cls-27,.cls-33,.cls-36,.cls-37,.cls-38,.cls-39,.cls-40,.cls-41,.cls-42,.cls-44,.cls-46,.cls-47,.cls-49,.cls-51,.cls-52,.cls-53,.cls-54,.cls-55,.cls-56,.cls-57,.cls-58,.cls-59,.cls-60,.cls-61,.cls-62,.cls-63,.cls-64,.cls-66,.cls-68,.cls-69,.cls-70,.cls-71,.cls-75,.cls-82,.cls-83,.cls-84,.cls-86,.cls-87,.cls-88,.cls-89,.cls-93,.cls-95,.cls-96,.cls-98,.cls-99{mix-blend-mode:multiply;}.cls-113,.cls-121,.cls-134,.cls-19,.cls-20,.cls-21,.cls-23,.cls-24,.cls-25,.cls-26,.cls-27,.cls-82,.cls-83,.cls-86,.cls-88,.cls-89,.cls-99{opacity:0.3;}.cls-19{fill:url(#Áĺçűě_ííűé_ăđŕäčĺíň_159);}.cls-20{fill:url(#Áĺçűě_ííűé_ăđŕäčĺíň_159-2);}.cls-21{fill:url(#Áĺçűě_ííűé_ăđŕäčĺíň_159-3);}.cls-22{fill:url(#Áĺçűě_ííűé_ăđŕäčĺíň_351);}.cls-23{fill:url(#Áĺçűě_ííűé_ăđŕäčĺíň_6);}.cls-24{fill:url(#Áĺçűě_ííűé_ăđŕäčĺíň_6-2);}.cls-25{fill:url(#Áĺçűě_ííűé_ăđŕäčĺíň_6-3);}.cls-26{fill:url(#Áĺçűě_ííűé_ăđŕäčĺíň_6-4);}.cls-27{fill:url(#Áĺçűě_ííűé_ăđŕäčĺíň_6-5);}.cls-28{fill:url(#Áĺçűě_ííűé_ăđŕäčĺíň_321);}.cls-29,.cls-45{fill:#472751;}.cls-107,.cls-114,.cls-29,.cls-30,.cls-31,.cls-32,.cls-55,.cls-67,.cls-72,.cls-73,.cls-74,.cls-95,.cls-96{opacity:0.2;}.cls-30,.cls-32,.cls-34{fill:#8172ac;}.cls-31{fill:#ef533f;}.cls-104,.cls-106,.cls-111,.cls-112,.cls-116,.cls-117,.cls-118,.cls-125,.cls-126,.cls-128,.cls-129,.cls-131,.cls-132,.cls-33,.cls-34,.cls-35,.cls-37,.cls-38,.cls-40,.cls-41,.cls-42,.cls-43,.cls-44,.cls-45,.cls-46,.cls-47,.cls-49,.cls-54,.cls-57,.cls-58,.cls-59,.cls-60,.cls-61,.cls-62,.cls-63,.cls-64,.cls-69,.cls-70,.cls-75,.cls-84,.cls-85,.cls-87,.cls-94{opacity:0.5;}.cls-33{fill:url(#Áĺçűě_ííűé_ăđŕäčĺíň_316);}.cls-35{fill:#7c6c73;}.cls-36,.cls-39,.cls-51,.cls-52,.cls-53,.cls-56,.cls-68,.cls-71{opacity:0.76;}.cls-36{fill:url(#Áĺçűě_ííűé_ăđŕäčĺíň_316-2);}.cls-37{fill:url(#Áĺçűě_ííűé_ăđŕäčĺíň_316-3);}.cls-38{fill:url(#Áĺçűě_ííűé_ăđŕäčĺíň_316-4);}.cls-39{fill:url(#Áĺçűě_ííűé_ăđŕäčĺíň_316-5);}.cls-40{fill:url(#Áĺçűě_ííűé_ăđŕäčĺíň_316-6);}.cls-41{fill:url(#Áĺçűě_ííűé_ăđŕäčĺíň_316-7);}.cls-42{fill:url(#Áĺçűě_ííűé_ăđŕäčĺíň_316-8);}.cls-43{fill:#8b4c72;}.cls-44{fill:url(#Áĺçűě_ííűé_ăđŕäčĺíň_316-9);}.cls-46{fill:url(#Áĺçűě_ííűé_ăđŕäčĺíň_316-10);}.cls-47{fill:url(#Áĺçűě_ííűé_ăđŕäčĺíň_316-11);}.cls-48{fill:#481c4d;}.cls-49{fill:url(#Áĺçűě_ííűé_ăđŕäčĺíň_316-12);}.cls-50{fill:url(#Áĺçűě_ííűé_ăđŕäčĺíň_10);}.cls-51{fill:url(#Áĺçűě_ííűé_ăđŕäčĺíň_316-13);}.cls-52{fill:url(#Áĺçűě_ííűé_ăđŕäčĺíň_316-14);}.cls-53{fill:url(#Áĺçűě_ííűé_ăđŕäčĺíň_316-15);}.cls-54{fill:url(#Áĺçűě_ííűé_ăđŕäčĺíň_316-16);}.cls-55{fill:url(#Áĺçűě_ííűé_ăđŕäčĺíň_6-6);}.cls-56{fill:url(#Áĺçűě_ííűé_ăđŕäčĺíň_316-17);}.cls-57{fill:url(#Áĺçűě_ííűé_ăđŕäčĺíň_316-18);}.cls-58{fill:url(#Áĺçűě_ííűé_ăđŕäčĺíň_316-19);}.cls-59{fill:url(#Áĺçűě_ííűé_ăđŕäčĺíň_316-20);}.cls-60{fill:url(#Áĺçűě_ííűé_ăđŕäčĺíň_316-21);}.cls-61{fill:url(#Áĺçűě_ííűé_ăđŕäčĺíň_316-22);}.cls-62{fill:url(#Áĺçűě_ííűé_ăđŕäčĺíň_316-23);}.cls-63{fill:url(#Áĺçűě_ííűé_ăđŕäčĺíň_316-24);}.cls-64{fill:url(#Áĺçűě_ííűé_ăđŕäčĺíň_316-25);}.cls-65{fill:#ac9889;}.cls-66{fill:url(#Áĺçűě_ííűé_ăđŕäčĺíň_316-26);}.cls-67{fill:#ef3952;}.cls-68{fill:url(#Áĺçűě_ííűé_ăđŕäčĺíň_316-27);}.cls-69{fill:url(#Áĺçűě_ííűé_ăđŕäčĺíň_316-28);}.cls-70{fill:url(#Áĺçűě_ííűé_ăđŕäčĺíň_316-29);}.cls-71{fill:url(#Áĺçűě_ííűé_ăđŕäčĺíň_316-30);}.cls-72{fill:#ef855d;}.cls-73{fill:#a199a9;}.cls-74{fill:#57337c;}.cls-75{fill:url(#Áĺçűě_ííűé_ăđŕäčĺíň_316-31);}.cls-76,.cls-80{fill:#775e95;}.cls-77,.cls-78,.cls-79{fill:#77517c;}.cls-79{opacity:0.81;}.cls-80{opacity:0.83;}.cls-81{fill:url(#Áĺçűě_ííűé_ăđŕäčĺíň_351-2);}.cls-82{fill:url(#Áĺçűě_ííűé_ăđŕäčĺíň_316-32);}.cls-83{fill:url(#Áĺçűě_ííűé_ăđŕäčĺíň_316-33);}.cls-84{fill:url(#Áĺçűě_ííűé_ăđŕäčĺíň_316-34);}.cls-85{fill:#8e8ebf;}.cls-86{fill:url(#Áĺçűě_ííűé_ăđŕäčĺíň_6-7);}.cls-87{fill:url(#Áĺçűě_ííűé_ăđŕäčĺíň_316-35);}.cls-88{fill:url(#Áĺçűě_ííűé_ăđŕäčĺíň_316-36);}.cls-89{fill:url(#Áĺçűě_ííűé_ăđŕäčĺíň_316-37);}.cls-90{fill:#7c97ce;}.cls-91{fill:#8986d6;}.cls-92{fill:#dde5ff;}.cls-93{fill:#5a68a4;}.cls-93,.cls-98{opacity:0.6;}.cls-94{fill:#d6cde7;}.cls-95{fill:url(#Áĺçűě_ííűé_ăđŕäčĺíň_149);}.cls-96{fill:url(#Áĺçűě_ííűé_ăđŕäčĺíň_149-2);}.cls-97{fill:#aabdf9;}.cls-98,.cls-99{fill:#8e84a4;}.cls-100{fill:#c1cffb;}.cls-101{fill:#d3ddfc;}.cls-102{fill:url(#Áĺçűě_ííűé_ăđŕäčĺíň_361);}.cls-103{fill:#704c68;}.cls-104{fill:url(#Áĺçűě_ííűé_ăđŕäčĺíň_149-3);}.cls-105{fill:url(#Áĺçűě_ííűé_ăđŕäčĺíň_361-2);}.cls-106{fill:url(#Áĺçűě_ííűé_ăđŕäčĺíň_149-4);}.cls-107{fill:#de6b40;}.cls-108{fill:#78639a;}.cls-109{fill:#4f63cc;}.cls-110{fill:#7997f6;}.cls-111,.cls-112,.cls-113,.cls-114,.cls-121,.cls-122,.cls-123,.cls-124,.cls-125,.cls-126,.cls-127,.cls-128,.cls-129,.cls-130,.cls-131,.cls-132,.cls-133,.cls-134{mix-blend-mode:screen;}.cls-111{fill:url(#Áĺçűě_ííűé_ăđŕäčĺíň_75);}.cls-112{fill:url(#Áĺçűě_ííűé_ăđŕäčĺíň_75-2);}.cls-113{fill:url(#Áĺçűě_ííűé_ăđŕäčĺíň_75-3);}.cls-114{fill:url(#Áĺçűě_ííűé_ăđŕäčĺíň_80);}.cls-115{fill:url(#Áĺçűě_ííűé_ăđŕäčĺíň_361-3);}.cls-116{fill:url(#Áĺçűě_ííűé_ăđŕäčĺíň_149-5);}.cls-117{fill:url(#Áĺçűě_ííűé_ăđŕäčĺíň_149-6);}.cls-118{fill:url(#Áĺçűě_ííűé_ăđŕäčĺíň_149-7);}.cls-119{fill:url(#Áĺçűě_ííűé_ăđŕäčĺíň_361-4);}.cls-120{fill:#e6ecfd;}.cls-121{fill:url(#Áĺçűě_ííűé_ăđŕäčĺíň_434);}.cls-122{fill:url(#Áĺçűě_ííűé_ăđŕäčĺíň_8);}.cls-123{fill:url(#Áĺçűě_ííűé_ăđŕäčĺíň_8-2);}.cls-124{fill:url(#Áĺçűě_ííűé_ăđŕäčĺíň_7);}.cls-125{fill:url(#Áĺçűě_ííűé_ăđŕäčĺíň_8-3);}.cls-126{fill:url(#Áĺçűě_ííűé_ăđŕäčĺíň_8-4);}.cls-127,.cls-130,.cls-133{opacity:0.92;}.cls-127{fill:url(#Áĺçűě_ííűé_ăđŕäčĺíň_7-2);}.cls-128{fill:url(#Áĺçűě_ííűé_ăđŕäčĺíň_8-5);}.cls-129{fill:url(#Áĺçűě_ííűé_ăđŕäčĺíň_8-6);}.cls-130{fill:url(#Áĺçűě_ííűé_ăđŕäčĺíň_7-3);}.cls-131{fill:url(#Áĺçűě_ííűé_ăđŕäčĺíň_8-7);}.cls-132{fill:url(#Áĺçűě_ííűé_ăđŕäčĺíň_8-8);}.cls-133{fill:url(#Áĺçűě_ííűé_ăđŕäčĺíň_7-4);}.cls-134{fill:url(#Áĺçűě_ííűé_ăđŕäčĺíň_64);}</style><clipPath id="clip-path" transform="translate(36.14 368.55)"><path class="cls-1" d="M3175.84,1477.74H0V2.81L3181.5,0Q3178.67,738.87,3175.84,1477.74Z"/></clipPath><radialGradient id="radial-gradient" cx="2298.18" cy="324.55" r="2335.08" gradientTransform="translate(152.06 -105.02) scale(0.92 1.29)" gradientUnits="userSpaceOnUse"><stop offset="0" stop-color="#cfe0ff"/><stop offset="0.19" stop-color="#ccdcfd"/><stop offset="0.4" stop-color="#c1cff7"/><stop offset="0.61" stop-color="#b1baed"/><stop offset="0.83" stop-color="#999cdf"/><stop offset="1" stop-color="#827fd1"/></radialGradient><linearGradient id="Áĺçűě_ííűé_ăđŕäčĺíň_31" x1="1904.03" y1="1489.34" x2="1904.03" y2="1285.12" gradientTransform="matrix(-1, 0, 0, 1, 4062.29, 368.55)" gradientUnits="userSpaceOnUse"><stop offset="0" stop-color="#b6d6ff"/><stop offset="0.56" stop-color="#98baff"/><stop offset="1" stop-color="#86a9ff"/></linearGradient><linearGradient id="Áĺçűě_ííűé_ăđŕäčĺíň_68" x1="3365.21" y1="1489.34" x2="3365.21" y2="750.25" gradientTransform="translate(-1397.44 368.55)" gradientUnits="userSpaceOnUse"><stop offset="0" stop-color="#92c2ff"/><stop offset="1" stop-color="#5e7cff"/></linearGradient><linearGradient id="Áĺçűě_ííűé_ăđŕäčĺíň_107" x1="3219.48" y1="1489.34" x2="3219.48" y2="652.83" gradientTransform="translate(-1397.44 368.55)" gradientUnits="userSpaceOnUse"><stop offset="0" stop-color="#92c2ff"/><stop offset="0.12" stop-color="#84aff1"/><stop offset="0.53" stop-color="#5470c5"/><stop offset="0.79" stop-color="#5459a9"/><stop offset="1" stop-color="#544a97"/></linearGradient><linearGradient id="Áĺçűě_ííűé_ăđŕäčĺíň_114" x1="4010.8" y1="1489.34" x2="4010.8" y2="-229.18" gradientTransform="translate(-1433.58)" gradientUnits="userSpaceOnUse"><stop offset="0" stop-color="#92c2ff"/><stop offset="0.2" stop-color="#7c9ad9"/><stop offset="0.53" stop-color="#595b9d"/><stop offset="0.77" stop-color="#494393"/><stop offset="1" stop-color="#3d318b"/></linearGradient><linearGradient id="Áĺçűě_ííűé_ăđŕäčĺíň_358" x1="1107.25" y1="1690.76" x2="1107.25" y2="1364.1" gradientUnits="userSpaceOnUse"><stop offset="0" stop-color="#ab81bf"/><stop offset="1" stop-color="#81588d"/></linearGradient><linearGradient id="Áĺçűě_ííűé_ăđŕäčĺíň_159" x1="1104.61" y1="1690.09" x2="1104.61" y2="1468.67" gradientUnits="userSpaceOnUse"><stop offset="0" stop-color="#974577"/><stop offset="1" stop-color="#c77cbd"/></linearGradient><linearGradient id="Áĺçűě_ííűé_ăđŕäčĺíň_159-2" x1="1149.86" y1="1646.73" x2="1149.86" y2="1525.9" xlink:href="#Áĺçűě_ííűé_ăđŕäčĺíň_159"/><linearGradient id="Áĺçűě_ííűé_ăđŕäčĺíň_159-3" x1="1041.41" y1="1685.8" x2="1041.41" y2="1364.1" xlink:href="#Áĺçűě_ííűé_ăđŕäčĺíň_159"/><linearGradient id="Áĺçűě_ííűé_ăđŕäčĺíň_351" x1="944.37" y1="1709.41" x2="944.37" y2="1160.53" gradientUnits="userSpaceOnUse"><stop offset="0" stop-color="#ab81bf"/><stop offset="0.38" stop-color="#81588d"/><stop offset="1" stop-color="#594a63"/></linearGradient><linearGradient id="Áĺçűě_ííűé_ăđŕäčĺíň_6" x1="938.03" y1="1709.41" x2="938.03" y2="1160.53" gradientUnits="userSpaceOnUse"><stop offset="0" stop-color="#7e4b87"/><stop offset="1" stop-color="#a384b7"/></linearGradient><linearGradient id="Áĺçűě_ííűé_ăđŕäčĺíň_6-2" x1="972.53" y1="1504.1" x2="972.53" y2="1234.21" xlink:href="#Áĺçűě_ííűé_ăđŕäčĺíň_6"/><linearGradient id="Áĺçűě_ííűé_ăđŕäčĺíň_6-3" x1="880.56" y1="1303.29" x2="880.56" y2="1160.53" xlink:href="#Áĺçűě_ííűé_ăđŕäčĺíň_6"/><linearGradient id="Áĺçűě_ííűé_ăđŕäčĺíň_6-4" x1="938.12" y1="1542.66" x2="938.12" y2="1415.04" xlink:href="#Áĺçűě_ííűé_ăđŕäčĺíň_6"/><linearGradient id="Áĺçűě_ííűé_ăđŕäčĺíň_6-5" x1="959.17" y1="1613" x2="959.17" y2="1581.34" xlink:href="#Áĺçűě_ííűé_ăđŕäčĺíň_6"/><linearGradient id="Áĺçűě_ííűé_ăđŕäčĺíň_321" x1="436.53" y1="1489.34" x2="436.53" y2="56.77" gradientUnits="userSpaceOnUse"><stop offset="0" stop-color="#7097a7"/><stop offset="0.67" stop-color="#5e2740"/><stop offset="1" stop-color="#6f0b2a"/></linearGradient><linearGradient id="Áĺçűě_ííűé_ăđŕäčĺíň_316" x1="242.91" y1="1812.85" x2="242.91" y2="731.99" gradientUnits="userSpaceOnUse"><stop offset="0" stop-color="#6d57b7"/><stop offset="1" stop-color="#564b59"/></linearGradient><linearGradient id="Áĺçűě_ííűé_ăđŕäčĺíň_316-2" x1="68.37" y1="1812.85" x2="68.37" y2="963.74" xlink:href="#Áĺçűě_ííűé_ăđŕäčĺíň_316"/><linearGradient id="Áĺçűě_ííűé_ăđŕäčĺíň_316-3" x1="150.29" y1="1140.95" x2="150.29" y2="731.99" xlink:href="#Áĺçűě_ííűé_ăđŕäčĺíň_316"/><linearGradient id="Áĺçűě_ííűé_ăđŕäčĺíň_316-4" x1="397.19" y1="1790.72" x2="397.19" y2="731.99" xlink:href="#Áĺçűě_ííűé_ăđŕäčĺíň_316"/><linearGradient id="Áĺçűě_ííűé_ăđŕäčĺíň_316-5" x1="280.32" y1="1806.42" x2="280.32" y2="1185.16" xlink:href="#Áĺçűě_ííűé_ăđŕäčĺíň_316"/><linearGradient id="Áĺçűě_ííűé_ăđŕäčĺíň_316-6" x1="576.68" y1="1780.31" x2="576.68" y2="773.27" xlink:href="#Áĺçűě_ííűé_ăđŕäčĺíň_316"/><linearGradient id="Áĺçűě_ííűé_ăđŕäčĺíň_316-7" x1="553.35" y1="1061.73" x2="553.35" y2="483.07" xlink:href="#Áĺçűě_ííűé_ăđŕäčĺíň_316"/><linearGradient id="Áĺçűě_ííűé_ăđŕäčĺíň_316-8" x1="729.54" y1="1651.52" x2="729.54" y2="1089.46" xlink:href="#Áĺçűě_ííűé_ăđŕäčĺíň_316"/><linearGradient id="Áĺçűě_ííűé_ăđŕäčĺíň_316-9" x1="287.34" y1="1796.86" x2="287.34" y2="1548.73" xlink:href="#Áĺçűě_ííűé_ăđŕäčĺíň_316"/><linearGradient id="Áĺçűě_ííűé_ăđŕäčĺíň_316-10" x1="642.1" y1="1690.09" x2="717.59" y2="1690.09" xlink:href="#Áĺçűě_ííűé_ăđŕäčĺíň_316"/><linearGradient id="Áĺçűě_ííűé_ăđŕäčĺíň_316-11" x1="486.3" y1="1638.53" x2="558.01" y2="1638.53" xlink:href="#Áĺçűě_ííűé_ăđŕäčĺíň_316"/><linearGradient id="Áĺçűě_ííűé_ăđŕäčĺíň_316-12" x1="410.39" y1="1263.98" x2="410.39" y2="892.43" xlink:href="#Áĺçűě_ííűé_ăđŕäčĺíň_316"/><linearGradient id="Áĺçűě_ííűé_ăđŕäčĺíň_10" x1="165.28" y1="1175.92" x2="165.28" y2="1120.45" gradientUnits="userSpaceOnUse"><stop offset="0" stop-color="#a83e58"/><stop offset="1" stop-color="#8c1c4d"/></linearGradient><linearGradient id="Áĺçűě_ííűé_ăđŕäčĺíň_316-13" x1="302.9" y1="1433.8" x2="302.9" y2="1423.77" xlink:href="#Áĺçűě_ííűé_ăđŕäčĺíň_316"/><linearGradient id="Áĺçűě_ííűé_ăđŕäčĺíň_316-14" x1="585.21" y1="1675.12" x2="585.21" y2="1618.35" xlink:href="#Áĺçűě_ííűé_ăđŕäčĺíň_316"/><linearGradient id="Áĺçűě_ííűé_ăđŕäčĺíň_316-15" x1="599.09" y1="1735.79" x2="599.09" y2="1709.41" xlink:href="#Áĺçűě_ííűé_ăđŕäčĺíň_316"/><linearGradient id="Áĺçűě_ííűé_ăđŕäčĺíň_316-16" x1="442.87" y1="1486.34" x2="442.87" y2="1287.43" xlink:href="#Áĺçűě_ííűé_ăđŕäčĺíň_316"/><linearGradient id="Áĺçűě_ííűé_ăđŕäčĺíň_6-6" x1="481.22" y1="1424.89" x2="481.22" y2="1357.15" xlink:href="#Áĺçűě_ííűé_ăđŕäčĺíň_6"/><linearGradient id="Áĺçűě_ííűé_ăđŕäčĺíň_316-17" x1="337.61" y1="1175.23" x2="337.61" y2="892.43" xlink:href="#Áĺçűě_ííűé_ăđŕäčĺíň_316"/><linearGradient id="Áĺçűě_ííűé_ăđŕäčĺíň_316-18" x1="568.04" y1="1513.13" x2="568.04" y2="1375.63" xlink:href="#Áĺçűě_ííűé_ăđŕäčĺíň_316"/><linearGradient id="Áĺçűě_ííűé_ăđŕäčĺíň_316-19" x1="187.54" y1="841.41" x2="187.54" y2="742.49" xlink:href="#Áĺçűě_ííűé_ăđŕäčĺíň_316"/><linearGradient id="Áĺçűě_ííűé_ăđŕäčĺíň_316-20" x1="90.88" y1="665.28" x2="90.88" y2="269.04" xlink:href="#Áĺçűě_ííűé_ăđŕäčĺíň_316"/><linearGradient id="Áĺçűě_ííűé_ăđŕäčĺíň_316-21" x1="106.25" y1="464.77" x2="106.25" y2="57.18" xlink:href="#Áĺçűě_ííűé_ăđŕäčĺíň_316"/><linearGradient id="Áĺçűě_ííűé_ăđŕäčĺíň_316-22" x1="68.37" y1="1812.85" x2="68.37" y2="1226.45" xlink:href="#Áĺçűě_ííűé_ăđŕäčĺíň_316"/><linearGradient id="Áĺçűě_ííűé_ăđŕäčĺíň_316-23" x1="567.67" y1="1199.13" x2="567.67" y2="963.74" xlink:href="#Áĺçűě_ííűé_ăđŕäčĺíň_316"/><linearGradient id="Áĺçűě_ííűé_ăđŕäčĺíň_316-24" x1="651.78" y1="1430.28" x2="651.78" y2="1272.32" xlink:href="#Áĺçűě_ííűé_ăđŕäčĺíň_316"/><linearGradient id="Áĺçűě_ííűé_ăđŕäčĺíň_316-25" x1="481.75" y1="1158.89" x2="530.87" y2="1158.89" xlink:href="#Áĺçűě_ííűé_ăđŕäčĺíň_316"/><linearGradient id="Áĺçűě_ííűé_ăđŕäčĺíň_316-26" x1="652.5" y1="1667.18" x2="779.44" y2="1667.18" xlink:href="#Áĺçűě_ííűé_ăđŕäčĺíň_316"/><linearGradient id="Áĺçűě_ííűé_ăđŕäčĺíň_316-27" x1="210.88" y1="1406.59" x2="266.33" y2="1406.59" xlink:href="#Áĺçűě_ííűé_ăđŕäčĺíň_316"/><linearGradient id="Áĺçűě_ííűé_ăđŕäčĺíň_316-28" x1="186.44" y1="1806.42" x2="186.44" y2="1638.34" xlink:href="#Áĺçűě_ííűé_ăđŕäčĺíň_316"/><linearGradient id="Áĺçűě_ííűé_ăđŕäčĺíň_316-29" x1="92.32" y1="1807.77" x2="92.32" y2="1631.77" xlink:href="#Áĺçűě_ííűé_ăđŕäčĺíň_316"/><linearGradient id="Áĺçűě_ííűé_ăđŕäčĺíň_316-30" x1="301.34" y1="892.43" x2="301.34" y2="865.99" xlink:href="#Áĺçűě_ííűé_ăđŕäčĺíň_316"/><linearGradient id="Áĺçűě_ííűé_ăđŕäčĺíň_316-31" x1="682.19" y1="1289.43" x2="724" y2="1289.43" xlink:href="#Áĺçűě_ííűé_ăđŕäčĺíň_316"/><linearGradient id="Áĺçűě_ííűé_ăđŕäčĺíň_351-2" x1="840.97" y1="1721.84" x2="840.97" y2="1185.16" xlink:href="#Áĺçűě_ííűé_ăđŕäčĺíň_351"/><linearGradient id="Áĺçűě_ííűé_ăđŕäčĺíň_316-32" x1="819.33" y1="1388.29" x2="819.33" y2="1226.68" xlink:href="#Áĺçűě_ííűé_ăđŕäčĺíň_316"/><linearGradient id="Áĺçűě_ííűé_ăđŕäčĺíň_316-33" x1="800.27" y1="1507.45" x2="800.27" y2="1379.38" xlink:href="#Áĺçűě_ííűé_ăđŕäčĺíň_316"/><linearGradient id="Áĺçűě_ííűé_ăđŕäčĺíň_316-34" x1="892.49" y1="1718.88" x2="892.49" y2="1289.31" xlink:href="#Áĺçűě_ííűé_ăđŕäčĺíň_316"/><linearGradient id="Áĺçűě_ííűé_ăđŕäčĺíň_6-7" x1="858.88" y1="1718.88" x2="858.88" y2="1586.26" xlink:href="#Áĺçűě_ííűé_ăđŕäčĺíň_6"/><linearGradient id="Áĺçűě_ííűé_ăđŕäčĺíň_316-35" x1="799.92" y1="1604.55" x2="799.92" y2="1525.9" xlink:href="#Áĺçűě_ííűé_ăđŕäčĺíň_316"/><linearGradient id="Áĺçűě_ííűé_ăđŕäčĺíň_316-36" x1="766.16" y1="1410.81" x2="766.16" y2="1379.38" xlink:href="#Áĺçűě_ííűé_ăđŕäčĺíň_316"/><linearGradient id="Áĺçűě_ííűé_ăđŕäčĺíň_316-37" x1="812" y1="1295.49" x2="829.13" y2="1295.49" xlink:href="#Áĺçűě_ííűé_ăđŕäčĺíň_316"/><linearGradient id="Áĺçűě_ííűé_ăđŕäčĺíň_149" x1="851.79" y1="1714.56" x2="1352.05" y2="1714.56" gradientUnits="userSpaceOnUse"><stop offset="0" stop-color="#c77cbd"/><stop offset="1" stop-color="#974577"/></linearGradient><linearGradient id="Áĺçűě_ííűé_ăđŕäčĺíň_149-2" x1="985.94" y1="1754.37" x2="1591.49" y2="1754.37" xlink:href="#Áĺçűě_ííűé_ăđŕäčĺíň_149"/><linearGradient id="Áĺçűě_ííűé_ăđŕäčĺíň_361" x1="217.6" y1="1767.69" x2="592.7" y2="1767.69" gradientUnits="userSpaceOnUse"><stop offset="0" stop-color="#321031"/><stop offset="1" stop-color="#422c3b"/></linearGradient><linearGradient id="Áĺçűě_ííűé_ăđŕäčĺíň_149-3" x1="217.6" y1="1789.06" x2="544.59" y2="1789.06" xlink:href="#Áĺçűě_ííűé_ăđŕäčĺíň_149"/><linearGradient id="Áĺçűě_ííűé_ăđŕäčĺíň_361-2" x1="398.12" y1="1813.94" x2="672.2" y2="1813.94" xlink:href="#Áĺçűě_ííűé_ăđŕäčĺíň_361"/><linearGradient id="Áĺçűě_ííűé_ăđŕäčĺíň_149-4" x1="398.12" y1="1824.75" x2="592.7" y2="1824.75" xlink:href="#Áĺçűě_ííűé_ăđŕäčĺíň_149"/><radialGradient id="Áĺçűě_ííűé_ăđŕäčĺíň_75" cx="1555.17" cy="145.45" r="18.21" gradientTransform="matrix(2.07, -1.05, 0.69, 1.35, -2701.86, 2452.82)" gradientUnits="userSpaceOnUse"><stop offset="0" stop-color="#a9d1ff"/><stop offset="0.37" stop-color="#a8cffd"/><stop offset="0.5" stop-color="#a3caf6"/><stop offset="0.6" stop-color="#9bc0eb"/><stop offset="0.68" stop-color="#90b2da"/><stop offset="0.74" stop-color="#82a0c4"/><stop offset="0.8" stop-color="#708aa8"/><stop offset="0.85" stop-color="#5a6f88"/><stop offset="0.9" stop-color="#415062"/><stop offset="0.95" stop-color="#242d37"/><stop offset="0.99" stop-color="#060809"/><stop offset="0.99"/></radialGradient><radialGradient id="Áĺçűě_ííűé_ăđŕäčĺíň_75-2" cx="1964.87" cy="399.34" r="18.21" gradientTransform="matrix(1.94, -0.82, 0.47, 1.1, -2702.35, 2256.05)" xlink:href="#Áĺçűě_ííűé_ăđŕäčĺíň_75"/><radialGradient id="Áĺçűě_ííűé_ăđŕäčĺíň_75-3" cx="2198.25" cy="732.38" r="10.24" gradientTransform="matrix(2.44, -0.91, 0.43, 1.15, -4196.12, 2509.51)" xlink:href="#Áĺçűě_ííűé_ăđŕäčĺíň_75"/><radialGradient id="Áĺçűě_ííűé_ăđŕäčĺíň_80" cx="2135.91" cy="410.6" r="43" gradientTransform="matrix(1.66, 0, 0, 1, -1663.32, 281.79)" gradientUnits="userSpaceOnUse"><stop offset="0" stop-color="#97ccff"/><stop offset="0.37" stop-color="#96cbfd"/><stop offset="0.5" stop-color="#92c5f6"/><stop offset="0.6" stop-color="#8bbceb"/><stop offset="0.68" stop-color="#81aeda"/><stop offset="0.74" stop-color="#749cc4"/><stop offset="0.8" stop-color="#6487a8"/><stop offset="0.85" stop-color="#516d88"/><stop offset="0.9" stop-color="#3a4f62"/><stop offset="0.95" stop-color="#212c37"/><stop offset="0.99" stop-color="#050709"/><stop offset="0.99"/></radialGradient><linearGradient id="Áĺçűě_ííűé_ăđŕäčĺíň_361-3" x1="1416.94" y1="1787.92" x2="1830.25" y2="1787.92" xlink:href="#Áĺçűě_ííűé_ăđŕäčĺíň_361"/><linearGradient id="Áĺçűě_ííűé_ăđŕäčĺíň_149-5" x1="1688.4" y1="1785.64" x2="1740.72" y2="1785.64" xlink:href="#Áĺçűě_ííűé_ăđŕäčĺíň_149"/><linearGradient id="Áĺçűě_ííűé_ăđŕäčĺíň_149-6" x1="1751.74" y1="1823.37" x2="1830.25" y2="1823.37" xlink:href="#Áĺçűě_ííűé_ăđŕäčĺíň_149"/><linearGradient id="Áĺçűě_ííűé_ăđŕäčĺíň_149-7" x1="1477.01" y1="1798.99" x2="1515.13" y2="1798.99" xlink:href="#Áĺçűě_ííűé_ăđŕäčĺíň_149"/><linearGradient id="Áĺçűě_ííűé_ăđŕäčĺíň_361-4" x1="1647.6" y1="1833.32" x2="1647.6" y2="1809.12" xlink:href="#Áĺçűě_ííűé_ăđŕäčĺíň_361"/><linearGradient id="Áĺçűě_ííűé_ăđŕäčĺíň_434" x1="1657.47" y1="971.24" x2="4519.4" y2="971.24" gradientTransform="matrix(-1, 0, 0, 1, 5060.31, 0)" gradientUnits="userSpaceOnUse"><stop offset="0"/><stop offset="1" stop-color="#858dbc"/></linearGradient><radialGradient id="Áĺçűě_ííűé_ăđŕäčĺíň_8" cx="2341.08" cy="605.51" r="44.71" gradientTransform="translate(25.67 368.55)" gradientUnits="userSpaceOnUse"><stop offset="0" stop-color="#00bdff"/><stop offset="0.04" stop-color="#6bb6f6"/><stop offset="1"/></radialGradient><radialGradient id="Áĺçűě_ííűé_ăđŕäčĺíň_8-2" cx="2341.08" cy="605.51" r="33" xlink:href="#Áĺçűě_ííűé_ăđŕäčĺíň_8"/><radialGradient id="Áĺçűě_ííűé_ăđŕäčĺíň_7" cx="2341.08" cy="605.51" r="26.94" gradientTransform="translate(25.67 368.55)" gradientUnits="userSpaceOnUse"><stop offset="0.04" stop-color="#6bb6f6"/><stop offset="1"/></radialGradient><radialGradient id="Áĺçűě_ííűé_ăđŕäčĺíň_8-3" cx="2341.08" cy="605.51" r="60.78" xlink:href="#Áĺçűě_ííűé_ăđŕäčĺíň_8"/><radialGradient id="Áĺçűě_ííűé_ăđŕäčĺíň_8-4" cx="2341.08" cy="605.51" r="44.87" xlink:href="#Áĺçűě_ííűé_ăđŕäčĺíň_8"/><radialGradient id="Áĺçűě_ííűé_ăđŕäčĺíň_7-2" cx="2341.08" cy="605.51" r="36.62" xlink:href="#Áĺçűě_ííűé_ăđŕäčĺíň_7"/><radialGradient id="Áĺçűě_ííűé_ăđŕäčĺíň_8-5" cx="2341.08" cy="605.51" r="88.86" xlink:href="#Áĺçűě_ííűé_ăđŕäčĺíň_8"/><radialGradient id="Áĺçűě_ííűé_ăđŕäčĺíň_8-6" cx="2341.08" cy="605.51" r="65.59" xlink:href="#Áĺçűě_ííűé_ăđŕäčĺíň_8"/><radialGradient id="Áĺçűě_ííűé_ăđŕäčĺíň_7-3" cx="2341.08" cy="605.51" r="53.54" xlink:href="#Áĺçűě_ííűé_ăđŕäčĺíň_7"/><radialGradient id="Áĺçűě_ííűé_ăđŕäčĺíň_8-7" cx="2341.08" cy="605.51" r="215.13" xlink:href="#Áĺçűě_ííűé_ăđŕäčĺíň_8"/><radialGradient id="Áĺçűě_ííűé_ăđŕäčĺíň_8-8" cx="2341.08" cy="605.51" r="158.81" xlink:href="#Áĺçűě_ííűé_ăđŕäčĺíň_8"/><radialGradient id="Áĺçűě_ííűé_ăđŕäčĺíň_7-4" cx="2341.08" cy="605.51" r="129.62" xlink:href="#Áĺçűě_ííűé_ăđŕäčĺíň_7"/><linearGradient id="Áĺçűě_ííűé_ăđŕäčĺíň_64" x1="-31.57" y1="1109.29" x2="2830.35" y2="1109.29" gradientUnits="userSpaceOnUse"><stop offset="0" stop-color="#858dbc"/><stop offset="1"/></linearGradient></defs><g class="cls-2"><g id="Ebene_1" data-name="Ebene 1"><g class="cls-3"><path class="cls-4" d="M0,1477.74l3184.33-2.81q-1.41-734.66-2.83-1469.3L0,2.81Z" transform="translate(36.14 368.55)"/><polygon class="cls-5" points="511.63 1173.3 3288.5 1183.07 3291.46 1221.9 1296.19 1215.25 3288.5 1254.98 3289.5 1294.94 509.63 1265.96 511.63 1173.3"/><polygon class="cls-6" points="3289.86 1653.67 1026.65 1720.34 1026.65 1857.89 3289.86 1857.89 3289.86 1653.67"/><polygon class="cls-7" points="2185.42 1210.56 2118.09 1121.42 2099.19 1118.8 1786.1 1411.68 1783.71 1415.32 1774.83 1413.61 1214.97 1857.89 2720.57 1857.89 2185.42 1210.56"/><path class="cls-8" d="M1623.41,1489.34,1981,945.79l-9.57,43.4L1840.6,1207.87l17.42-61.7L1664.1,1489.34H2684.42L2179,877.89l64.28,103.81L2082,752.86l-18.92-2.62-315.47,296.54,83.8-57.59,55.82-43.4-427.34,543.55Zm519.84-618.57-34.87-29.86-20.16,36.7-1.16-73.52Zm-62.78,20.3,51.69,71.29-60-56.85Zm-22.71,35.32,185.49,254-194.37-234.6-194.37,286L2018.93,981.7Z" transform="translate(36.14 368.55)"/><polygon class="cls-9" points="2002.97 1456.56 2055.06 1439.63 2118.89 1529.16 2393.71 1857.89 2720.57 1857.89 2118.09 1121.42 2099.19 1118.8 2144.52 1209.46 2137.55 1223.33 2002.97 1456.56"/><polygon class="cls-10" points="2017.08 1314.35 2073.28 1172.65 1989.69 1272.39 1923.34 1466.05 2017.08 1314.35"/><polygon class="cls-11" points="2002.97 1338.52 1989.39 1330.7 1744.64 1021.38 1733.21 1021.38 1716.77 1032.75 1654.62 1126.81 1480.65 1357.72 1344.55 1429.19 1333.83 1431.32 1064.49 1857.89 2579.59 1857.89 2002.97 1338.52"/><polygon class="cls-9" points="2477.85 1766.27 2451.84 1742.82 2144.52 1657.22 2477.85 1766.27"/><polygon class="cls-9" points="2019.94 1367.67 2272.11 1580.94 2002.97 1338.51 2019.94 1367.67"/><polygon class="cls-9" points="1198.81 1857.89 1214.98 1857.89 1353.13 1667.05 1198.81 1857.89"/><polygon class="cls-9" points="2272.11 1580.94 2037.76 1398.27 2047.09 1454.9 2132.7 1513.14 2049.75 1470.97 2059.34 1529.15 2374.57 1673.24 2272.11 1580.94"/><path class="cls-9" d="M1307.35,1086.35l-128.5,270.81v-45.85l-90.13,178h63.91l195.3-259.1,263,33,64.76-102.68-57.21,113.12-259.7,29-112.52,186.56h35.35l30.68-49.23-14.59,49.23h188.6l56.81-66-39.68,66h271.15l-8.85-12.22-9.9-13.7,197.71-158.84-21.92,29.13-165.89,143.41,150.68-111.85,358.64,124.07h268.38l-59-53.11-376.1-131.65-486.3-250.88-77.91,117.41,79.24-130v0l434.35,222.2,347.93,102-46.52-41.92-97.68-34.67L2023.2,1160.61l-15.61-44.34,0-.08-23.19-65.78-52.74-28.51,49,18-27.4-77.77L1708.5,652.83h-11.42l-16.43,11.37,23.27-1.35,70.67,117.77L1696.91,678.1l-16.26-13.9L1653.5,708l-94.32,152.1,104-144,13.49,6.22.42.2-1.27,1.63-216.93,282-14.34-17-146.8,73.58-269.37,426.57,269.37-409.49Zm-25.73,370,75-131.14,29.44,8.5Zm303.47-228.75,33.4-28-25,39.63-41.83-7.46Zm547.07,11.65L2065.73,1220l-21.43-19.28Zm-225.75-85.82L1630.59,972.5h0l-25.31,26.62,26.39-36.76,181,107.87,93.81,55.9ZM1707.06,981.7l37.58,7.49,37.59,44.78,32,13.51,58.94,50-91-63.53Zm78.84-119.46-35.6-23.81-86.2-88.19Zm-136-81.62,29.29,23.47,204.64,163.17.05.06,3.31,2.64L1667.89,819.91l-18.69,7.15L1581.69,922Zm-281.48,339.17-33.79,21.54-98,122,77.74-147.1Z" transform="translate(36.14 368.55)"/><polygon class="cls-9" points="1942.54 1759.4 1932.13 1767.17 1810.73 1857.89 2272.11 1857.89 1942.54 1759.4"/><path class="cls-8" d="M1854.51,1231.79l99,72.79-37.13,60.69L1896,1398.62l-55.52,90.72h703l-59-53.11-42.76-38.51-26-23.45-10-9-46.52-41.92-20.73-18.66L2236,1212.4,1966.84,970l-13.57-7.79L1708.5,652.83l-31.45,69.69-13,27.72-14.19,30.38,29.29,23.47-11.31,15.82-25,35-11.25,107.49-1.05,10.14-7.18,68.59v0l-1.33,12.58,251,158.7Zm352.79-7.06-58.71-16.86-90.83-47.26Z" transform="translate(36.14 368.55)"/><polygon class="cls-9" points="1350.5 1484.74 1404.57 1488.34 1370.78 1509.87 1394.92 1671.31 1606.04 1742.78 1579.24 1791.85 1566.38 1857.89 1810.72 1857.89 1580.32 1539.65 1542.81 1431.31 1480.64 1357.74 1333.84 1431.31 1343.48 1454.9 1350.5 1484.74"/><polygon class="cls-12" points="2451.84 1742.82 2441.82 1733.81 2441.94 1733.84 2451.84 1742.82"/><path class="cls-10" d="M2057.76,1263.29l-434.35-222.2,7.15-68.59,182,97.73,7,3.74L1631.64,962.36l1.75-16.66,7.95-76,42.78,16.75-41.23-31.55,25-35,215.95,147.35L1649.91,780.62l25.87-56.47.85-1.83,31.87-69.49,244.76,309.34,27.41,77.77-49-18,52.74,28.51,23.19,65.78,0,.08,24.55,108.46-177.63-80.14ZM1873.18,1097.5l-58.94-50-32-13.51-37.59-44.78-37.58-7.49,75.17,52.27Z" transform="translate(36.14 368.55)"/><polygon class="cls-10" points="1876.63 1619.79 1782.5 1742.82 1800.01 1673.24 1876.63 1619.79"/><polygon class="cls-10" points="1370.78 1509.87 1580.32 1539.65 1621.22 1596.14 1572.28 1600.34 1384.07 1598.79 1370.78 1509.87"/><polygon class="cls-10" points="1404.57 1488.34 1550.97 1454.9 1542.81 1431.31 1480.64 1357.74 1333.84 1431.31 1350.5 1484.74 1404.57 1488.34"/><polygon class="cls-13" points="1712.49 1470.99 1822.03 1539.65 1756.78 1514.71 1712.49 1470.99"/><polygon class="cls-13" points="2019.94 1367.67 2002.97 1338.52 2243.43 1555.11 2019.94 1367.67"/><polygon class="cls-10" points="1658.21 1422.25 1909.26 1580.94 2137.55 1669.53 1658.21 1422.25"/><path class="cls-14" d="M2509,827.05l-43.85,23.46L2353.6,984.91l-61.74-58.52-70.47,32.92-197.84,185.28h-21.92l-383.15,344.75H3536V363.44Q3360.17,67.13,3184.36-229.18Z" transform="translate(36.14 368.55)"/><polygon class="cls-15" points="3572.09 1259.61 3357.87 1109 3133.36 951.17 3132.08 950.27 3133.41 951.82 3159.34 982.28 3572.09 1295.56 3578.99 1300.79 3572.71 1263.3 3572.09 1259.61"/><polygon class="cls-15" points="3572.09 844.13 3572.09 731.99 3029.37 731.99 3572.09 844.13"/><path class="cls-8" d="M3099.4,613.73,2938.06,750.24,3096,564.64,3241,666.37,3536,873.14V559.63L3022.87,421.48l-5.8-11.34,131,30.79Q3447.56-354.6,3415-368.31q-32.84-13.81-403.41,767.67,175.5-326.45,351-652.89L2973,363.44,2856.7,546.8,2673.87,881.69l-51.95,75.49-14.65.71,88.15-177.08L2533,982.77l-151.36,166.38,217-281.56L2843,534.24l61.08-73.58,482.93-721.14-202.69,31.3q-161.91,274.77-345.1,559-10.68,16.55-21.38,33Q2736.73,487.76,2655.4,608l109-135.08-7.6-3.18-6.68,4.78,8.83-17.31,43.63-45.09L2828,399.33,2655.4,641.46,2741.71,538,2543.44,831.31l61.11-147.21-95.55,143,23.24,33-136.08,181.33,83.68-143-2.07-29.5-92.33,105.3L2471.16,869l-6-18.49L2353.6,984.91l-61.74-58.52-70.47,32.91-109.33,102.4,93.69-80.34-3.39-.19,6.61-8L2232.73,963l-25,17.42,27.85-16.18-68,64.71,44.29-36.62-47.14,50.86L2098.94,1098l61.08-62.57-97.88,91-38.6,18.18h-21.92l-383.13,344.75h56.44l322.88-299.63,14.16,18.16-95.55,84.52,122.17-84.52.67,48.1L1818,1489.34h266.29l137.52-144.59,174.35,20.54,239-263.06,194.37-204.49L2657.61,1088l0,0L2399,1402.17l-193.35-18.92L2103.6,1489.34H3536V1318l-565-299,16.4-37.74,343.24,149.38L2998.75,955.05l1.81-14.95,3.84,2,38,19.37L3010,929.18l22.29-51.29-6.85-23L3536,1099.39l6.91-167.14-6.91-5Zm220,86L3281,666.37l96.44,57.75Zm-6.25-103.81-37.87-7.43-10.66-16ZM3033.42,442.17l0,0,128.22,92.58-111.17-59.2-57.27,59.2-49.09,47ZM2738,630.25l-6.42,22.58L2712.3,647Zm-654.88,575.5-25.37-26L2214,1038.25l-25.74,32.85,69.66-41.38,21.26-30.6,1.9,12.42-23.16,18.18Zm11.65,11.94H2122l-13.47,14.1Zm165.27-25.84-38.24,7.77,41.77-28.51,55.4,59.13Zm8-47.32-140.61,106.71-15.3-15.71L2275.6,1082l9.93-40.87,81,71.89-80-59.28-1,12.81,83.85,74.82,4.95,48.83Zm187,45.18,4.47-7.49,19.66-11.11Zm-13.32-63.58,5.83-22.83,56.59-56.72Zm119.43-61.22-19.26,6.19,38.18-37.13,14.82-4.25Zm269-428.41,60-48-73.13,77.86Zm-24.72,202.27-61.73,32,34.95-43.71,88.49-89.62Zm-170.39,508.68,66.46-103,18.58-36.59-176.72,157.42,259.1-265.9,141.6-65.42Z" transform="translate(36.14 368.55)"/><polygon class="cls-8" points="2423.36 1618.69 2413.36 1587.4 2389.73 1353.46 2328 1294.94 2315.31 1367.67 2321.65 1409.63 2280.47 1653.67 2203.31 1857.89 2441.93 1857.89 2423.36 1618.69"/><path class="cls-8" d="M3011.59,399.36l5.48,10.78,5.8,11.34,10.55,20.69,0,0,17.05,33.38L3096,564.64,3241,666.37l80.71,74.08L3097.22,582.63l.06.64,2.12,30.46-269.91,284-194.37,204.49,22.46-14.22,0,0,367.83-233.12,6.85,23L3010,929.18l-5.6,12.89-5.65,13-11.4,26.23L2971,1019,2766.6,1489.34H3536V1318l-554.62-294.79L3536,1220V363.44L3317.28-5.95Q3164.43,196.7,3011.59,399.36Zm307.8,300.39L3281,666.37l96.44,57.75Zm-6.25-103.81-37.87-7.43-10.66-16Z" transform="translate(36.14 368.55)"/><polygon class="cls-12" points="3291.44 1082.54 3289.29 1081.16 3289.29 1080.91 3291.44 1082.54"/><polygon class="cls-16" points="2037.76 1513.14 2106.5 1627.58 2195.45 1648.76 2163.58 1619.79 2059.68 1513.14 2037.76 1513.14"/><polygon class="cls-17" points="2545.13 1195.61 2501.3 1219.05 2515.97 1266.99 2540.53 1314.35 2568.38 1228.65 2545.13 1195.61"/><polygon class="cls-16" points="2413.36 1587.4 2488.01 1517.7 2578.06 1439.63 2423.36 1618.69 2413.36 1587.4"/><polygon class="cls-16" points="2820.59 1152.22 2986.15 941.1 2878.46 1034.91 2820.59 1152.22"/><polygon class="cls-8" points="2684.13 1529.16 2441.93 1795.05 2441.93 1857.89 2838.68 1467.93 2684.13 1529.16"/><path class="cls-16" d="M3536.58,894.75l-.62-.45L3097.22,582.63l-1.27-18-45.45-89.06,111.17,59.2L3536,659.94v213.2ZM3377.45,724.12,3281,666.37l38.38,33.38ZM3264.61,572.55l10.66,16,37.87,7.43Z" transform="translate(36.14 368.55)"/><polygon class="cls-16" points="3069.55 810.72 3197.8 903.32 3572.09 950.38 3572.09 928.16 3059.01 790.03 3069.55 810.72"/><polygon class="cls-16" points="3047.72 767.91 3184.23 809.48 3053.21 778.69 3047.72 767.91"/><path class="cls-8" d="M3536,475.58V363.44l-223.41-371Z" transform="translate(36.14 368.55)"/><polygon class="cls-8" points="3572.09 1686.59 3007.09 1387.57 2914.64 1600.34 3210.69 1857.89 3572.09 1857.89 3572.09 1686.59"/><polygon class="cls-8" points="3572.09 1588.56 3572.09 1498.23 3061.58 1223.42 3068.42 1246.45 3023.49 1349.84 3572.09 1588.56"/><polygon class="cls-8" points="3159.34 1857.89 3210.69 1857.89 2906.66 1618.69 3159.34 1857.89"/><polygon class="cls-10" points="2280.47 1653.67 2432.29 1733.84 2257.95 1713.29 2280.47 1653.67"/><polygon class="cls-9" points="2435.15 1770.71 2241.8 1751.8 2203.31 1857.89 2441.93 1857.89 2435.15 1770.71"/><polygon class="cls-10" points="2321.66 1435.06 2405.51 1509.87 2402.66 1481.53 2322.62 1422.25 2321.66 1435.06"/><polygon class="cls-16" points="2108.28 1643.58 2195.45 1657.23 2229.74 1733.84 2108.28 1643.58"/><polygon class="cls-16" points="3061.58 1223.42 3572.09 1498.23 3572.71 1529.15 3068.42 1246.45 3061.58 1223.42"/><polygon class="cls-18" points="1009.37 1364.1 1056.98 1402.24 1073.45 1471.46 1080.91 1468.67 1107.25 1472.59 1135.77 1525.9 1156.5 1540.56 1205.13 1690.76 1056.92 1685.17 1009.37 1364.1"/><polygon class="cls-19" points="1080.91 1468.67 1107.25 1571.49 1118.83 1581.34 1135.77 1690.09 1073.45 1471.46 1080.91 1468.67"/><polygon class="cls-20" points="1135.77 1525.9 1163.95 1646.73 1153.51 1573.02 1141.83 1530.19 1135.77 1525.9"/><polygon class="cls-21" points="1009.37 1364.1 1021.94 1385.01 1045.76 1597.17 1054 1599.87 1073.45 1685.8 1056.92 1685.17 1009.37 1364.1"/><polygon class="cls-22" points="1056.92 1692.86 944 1709.41 831.81 1295.47 840.97 1209.57 870.87 1187.47 902.74 1160.54 914.98 1166.39 944 1225.11 956.55 1227.81 990.91 1287.42 994.05 1292.8 1040.18 1507.45 1053.53 1507.45 1056.92 1692.86"/><polygon class="cls-23" points="1002.85 1488.45 1000.5 1489.38 1008.96 1697.17 1005.17 1697.5 990.12 1443.42 961.84 1351.29 962.78 1340.42 924.14 1256.01 907.63 1272.42 906.22 1315.12 940.46 1415.04 973.49 1453.49 973.49 1581.34 980.31 1590.74 985.94 1699.76 944 1709.41 831.81 1295.47 840.97 1209.57 870.87 1187.47 902.74 1160.54 929.32 1256.01 954.77 1272.42 944 1225.11 956.55 1227.81 951.95 1240.67 1002.85 1484.45 1040.18 1507.45 1044.25 1508.52 1034.18 1508.52 1002.85 1488.45"/><polygon class="cls-24" points="954.77 1272.42 942.21 1295.49 962.78 1340.42 961.84 1351.29 990.12 1443.42 993.72 1504.1 1000.5 1489.38 1002.85 1484.45 951.95 1240.67 946.07 1234.21 954.77 1272.42"/><polygon class="cls-25" points="924.14 1256.01 907.63 1272.42 889.49 1303.29 831.8 1303.29 840.97 1209.57 902.74 1160.54 929.32 1256.01 924.14 1256.01"/><polygon class="cls-26" points="940.46 1415.04 902.75 1504.1 914.98 1542.66 973.49 1453.49 940.46 1415.04"/><polygon class="cls-27" points="973.49 1581.34 938.03 1586.27 938.03 1613 980.31 1590.74 973.49 1581.34"/><path class="cls-28" d="M901.27,1058l-28.6-84.44L849.2,926.39l-9.53-5.63-20.54,5.63-17.6-48.55-5.87-19.71h-11l-47.88-41.51,2.42-46.45-93.14-49.25-5.14-125.26c-7.33-24.63-41.06-71.78-41.06-71.78C561.72,506.29,473,483.07,473,483.07l-13.93-20.41-59.4-57.93v-9.39L-34.81,56.77l3.24,306.67v1125.9H907.87V1340.86l-6.6-214.62,6.6-13.37Z" transform="translate(36.14 368.55)"/><polygon class="cls-29" points="499.34 1104.47 471.47 991.88 436.76 854.9 426.68 757.74 388.61 731.99 266.33 731.99 368.31 1146.69 397.65 1293.53 419.16 1330.3 436.76 1351.23 462.18 1365.31 489.56 1389.7 514.99 1400.02 545.3 1400.02 545.3 1375.63 514.99 1263.98 499.34 1104.47"/><polygon class="cls-30" points="554.1 1387.83 566.81 1430.28 623.52 1549.2 696.86 1613.01 771.17 1658.98 782.91 1658.98 694.9 1469.45 581.48 1178.6 532.59 1144.82 518.9 1144.82 527.7 1272.32 531.85 1301.98 554.1 1387.83"/><polygon class="cls-31" points="498.85 1486.34 545.3 1507.45 556.54 1507.45 580.5 1507.45 592.72 1502.29 536.01 1420.66 532.59 1430.28 492.5 1424.89 453.38 1400.02 423.56 1360.15 498.85 1486.34"/><polygon class="cls-32" points="134.62 981.56 41.83 731.99 4.57 731.99 4.57 963.74 66.17 1076.33 86.7 1128.87 156.13 1195.48 193.28 1234.89 208.93 1245.21 282.26 1263.04 298.89 1263.04 280.31 1232.08 134.62 981.56"/><polygon class="cls-33" points="375.65 1525.04 298.89 1263.04 134.62 981.56 41.83 731.99 4.57 731.99 4.57 1812.85 481.25 1793.85 442.87 1651.52 375.65 1525.04"/><polygon class="cls-30" points="405.82 1796.86 369.29 1746.24 198.17 1599.87 180.57 1599.87 165.91 1606.44 165.91 1638.34 204.04 1721.84 214.06 1729.35 238.26 1734.04 279.35 1801.9 405.82 1796.86"/><path class="cls-34" d="M599.86,523.88,591.3,622.4v59.11l8.56,101.33,14.91,40.34L634.32,841l11.74-120.09-5.14-125.26S621.12,543.59,599.86,523.88Z" transform="translate(36.14 368.55)"/><path class="cls-35" d="M40.3,363.44,96,463.37l19.56,14.07,96.32,117.75,37.82,8.91h13L167.83,365.59l-202-308.16Q3.08,210.45,40.3,363.44Z" transform="translate(36.14 368.55)"/><polygon class="cls-36" points="4.57 963.74 66.17 1076.33 86.7 1128.87 76.43 1226.45 76.43 1618.63 132.17 1807.77 4.57 1812.85 4.57 963.74"/><polygon class="cls-37" points="151.73 845.99 132.17 831.91 76.43 731.99 52.55 731.99 86.7 820.18 170.79 903.69 177.39 963.74 245.11 1140.95 224.57 1021.91 248.04 963.74 151.73 845.99"/><polygon class="cls-38" points="508.14 1570.78 498.85 1486.34 423.56 1360.15 436.76 1351.23 397.65 1293.53 374.01 1175.23 266.33 731.99 236.38 731.99 298.89 972.65 298.89 1006.43 320.4 1042.55 335.07 1094.15 368.31 1185.16 386.89 1287.43 430.89 1400.02 497.39 1611.13 527.7 1736.85 527.7 1790.72 558.01 1788.68 527.7 1709.41 508.14 1570.78"/><polygon class="cls-39" points="145.37 1185.16 165.91 1261.22 165.91 1316.52 165.91 1388.29 158.82 1607.38 158.82 1709.41 165.91 1806.42 279.35 1801.9 238.26 1734.04 214.06 1729.35 204.04 1721.84 165.91 1638.34 165.91 1606.44 180.57 1599.87 198.17 1599.87 369.29 1746.24 405.82 1796.86 415.27 1796.48 374.18 1733.1 342.89 1691.82 337.02 1679.62 342.89 1581.1 336.05 1567.97 278.35 1529.5 224.57 1456.32 224.57 1433.8 253.91 1460.07 266.33 1476.02 252.93 1401.9 210.88 1337.16 208.93 1313.7 202.46 1240.94 145.37 1185.16"/><polygon class="cls-40" points="435.78 773.27 436.76 854.9 488.27 1059.73 499.34 1104.47 514.99 1263.98 545.3 1375.63 545.3 1400.02 536.01 1420.66 592.72 1502.29 642.1 1628.02 682.19 1780.31 717.59 1777.92 676.33 1721.84 644.06 1599.87 623.52 1549.2 566.81 1430.28 531.85 1301.98 518.9 1144.82 488.58 1022.85 454.36 878.36 435.78 773.27"/><path class="cls-41" d="M473,483.07l-9.77,133.7L473,677.29l72.36,132.76,98.15,251.68L607,903.78l7.82-80.6-14.91-40.34L591.3,681.51V604.1l8.56-80.22S498.41,487.29,473,483.07Z" transform="translate(36.14 368.55)"/><polygon class="cls-42" points="682.19 1089.46 679.63 1218.94 682.19 1347.01 685.13 1444.38 779.44 1651.52 766.53 1599.87 721.79 1507.45 710.06 1458.9 702.73 1370.49 737.93 1385.01 766.29 1379.38 724 1370.49 711.53 1360.15 705.77 1101.93 682.19 1089.46"/><polygon class="cls-43" points="224.57 1456.32 224.57 1433.8 266.33 1476.02 278.35 1495.79 319.91 1523.64 375.65 1533.49 375.65 1525.04 442.87 1651.52 442.87 1651.52 342.89 1581.1 336.05 1567.97 278.35 1529.5 224.57 1456.32"/><polygon class="cls-44" points="165.91 1606.44 159.41 1589.09 160.71 1548.73 207.95 1599.87 289.6 1672.58 308.67 1675.87 337.02 1679.62 342.89 1691.82 374.18 1733.1 415.27 1796.48 405.82 1796.86 369.29 1746.24 198.17 1599.87 180.57 1599.87 165.91 1606.44"/><polygon class="cls-43" points="545.3 1400.02 545.3 1375.63 514.99 1263.98 457.3 1166.4 375.16 1124.1 376 1185.16 397.65 1293.53 436.76 1351.23 462.18 1365.31 489.56 1389.7 514.99 1400.02 545.3 1400.02"/><polygon class="cls-43" points="86.7 1128.87 202.46 1240.94 236.31 1251.87 282.26 1263.04 298.89 1263.04 134.62 981.56 110.17 981.56 4.57 934.65 4.57 963.74 86.7 1128.87"/><path class="cls-35" d="M399.65,395.34l-45.44-33.86q-41.5-33.78-83.76-67.54Q116.31,170.82-36.14,57.43L269.65,523.88l62.53,105,55.24,17.49-8.28-78.54L361,452.11l38.63,152.46,24.44,92.89,39.12,38.47L400.63,486.35Z" transform="translate(36.14 368.55)"/><polygon class="cls-45" points="245.11 1140.95 351.69 1185.16 368.31 1185.16 335.07 1094.15 320.4 1042.55 298.89 1006.43 224.57 1021.91 245.11 1140.95"/><polygon class="cls-46" points="682.19 1780.31 642.1 1628.02 644.06 1599.87 676.33 1721.84 717.59 1777.92 682.19 1780.31"/><polygon class="cls-47" points="527.7 1790.72 527.7 1736.85 486.3 1575.95 498.85 1486.34 527.7 1709.41 558.01 1788.68 527.7 1790.72"/><polygon class="cls-48" points="436.54 834.27 432.36 844.11 397.16 839.19 288.62 811.27 283.24 802.36 286.67 818.78 411.34 844.11 436.76 854.9 436.54 834.27"/><polygon class="cls-48" points="298.89 865.99 441.16 928.08 451.67 927.62 452.64 918.23 457.25 936.37 322.36 879.76 302.31 880.23 298.89 865.99"/><polygon class="cls-49" points="499.34 1104.47 460.23 1066.01 390.8 1059.44 368.31 1006.43 368.31 997.38 305.79 892.43 374.01 1175.23 375.16 1124.1 457.3 1166.4 514.99 1263.98 499.34 1104.47"/><polygon class="cls-50" points="86.7 1128.87 236.31 1164.76 248.04 1175.91 233.97 1152.39 233.01 1159.48 124.35 1136.96 82.51 1120.45 86.7 1128.87"/><polygon class="cls-51" points="348.92 1433.8 305.79 1430.28 275.91 1433.8 258.06 1430.28 256.88 1423.77 260.14 1428.78 275.54 1432.28 305.06 1428.78 341.36 1428.78 345.98 1423.77 348.92 1433.8"/><polygon class="cls-52" points="518.9 1641.36 635.26 1672.79 644.3 1672.79 650.9 1672.79 654.5 1675.12 652.5 1667.51 649.44 1670.24 632.94 1671.18 524.76 1637.16 515.92 1618.35 518.9 1641.36"/><polygon class="cls-53" points="527.7 1709.41 545.3 1709.41 646.26 1729 660.93 1727.71 666.02 1718.88 670.48 1735.79 654.5 1731.58 543.59 1712.22 530.24 1716.05 527.7 1709.41"/><polygon class="cls-54" points="397.65 1293.53 436.76 1351.23 423.56 1360.15 486.3 1465.31 498.85 1486.34 474.29 1461.71 438.37 1423.77 386.89 1287.43 397.65 1293.53"/><polygon class="cls-55" points="447.44 1357.15 460.23 1370.49 453.38 1400.02 492.5 1424.89 498.85 1400.02 508.14 1400.02 514.99 1400.02 489.56 1389.7 462.18 1365.31 447.44 1357.15"/><polygon class="cls-56" points="390.8 1059.44 375.16 1124.1 374.01 1175.23 347.48 1066.01 320.4 1042.55 298.89 1006.43 298.89 972.65 284.41 916.9 305.79 892.43 368.31 997.38 368.31 1006.43 390.8 1059.44"/><polygon class="cls-57" points="536.01 1420.66 545.3 1400.02 545.3 1375.63 551.92 1375.63 566.81 1430.28 600.07 1500.03 596.98 1513.13 592.72 1502.29 536.01 1420.66"/><polygon class="cls-58" points="132.17 831.91 145.37 841.41 145.37 828.63 236.31 754.51 242.91 757.13 239.11 742.49 236.31 749.55 139.14 828.63 132.17 831.91"/><path class="cls-59" d="M96,463.37-30.16,269l112,191-31.29-8.44,84.09,83.5,6.6,60.05L168,665.28l20.4-11.92,23.47-58.17L115.59,477.44Z" transform="translate(36.14 368.55)"/><path class="cls-60" d="M200.24,363.44l26.32,101.33,18.21-41.37-14.57-60Q-27.57,53.54-32.19,57.22T200.24,363.44Z" transform="translate(36.14 368.55)"/><polygon class="cls-61" points="76.43 1226.45 4.57 1330.3 4.57 1812.85 132.17 1807.77 77.9 1631.77 76.43 1226.45"/><polygon class="cls-62" points="499.34 985.32 628.39 963.74 627.43 1050.06 635.99 1151.39 589.49 1199.13 509.12 1045.83 499.34 985.32"/><polygon class="cls-63" points="623.92 1287.43 643.08 1272.32 679.63 1430.28 623.92 1287.43"/><polygon class="cls-64" points="481.75 1033.83 488.58 1022.85 518.9 1144.82 530.87 1294.94 514.99 1263.98 499.34 1104.47 481.75 1033.83"/><polygon class="cls-65" points="4.57 1370.49 76.43 1360.15 165.91 1388.29 238.31 1379.38 335.17 1386.89 341.02 1406.87 435.78 1416.91 457.43 1416.91 555.38 1448.54 573.08 1443.42 694.9 1469.45 709.61 1453.5 747.54 1453.5 749.78 1469.45 710.06 1458.9 700.01 1477.07 692.95 1477.07 582.46 1463.1 571.96 1472.41 462.19 1424.89 444.56 1443.42 351.73 1443.42 341.42 1412.22 336.41 1396.09 248.04 1391.02 242.91 1391.02 162.24 1400.02 76.43 1370.49 4.57 1375.63 4.57 1370.49"/><polygon class="cls-65" points="4.57 1424.89 76.43 1418.61 107.24 1428.78 164.09 1444.38 224.57 1433.8 256.88 1443.42 354.69 1453.5 367.08 1495.79 460.23 1493.16 501.58 1507.45 568.04 1528.56 607.03 1538.73 614.74 1530.78 729.54 1544.04 737.93 1540.78 764.15 1544.04 767.86 1556.75 741.77 1548.73 737.93 1556.75 620.4 1542.66 614.11 1556.75 506.31 1517.3 463.67 1504.1 372.16 1513.13 358.23 1473.67 266.33 1476.02 246.57 1453.5 224.57 1443.42 162.24 1477.07 116.04 1477.07 75.94 1468.52 4.57 1477.07 4.57 1424.89"/><polygon class="cls-65" points="4.57 1098.85 55.43 1066.01 191.01 1078.2 216.47 1066.01 229.59 1050.99 322.8 1050.99 330.53 1078.2 390.8 1059.44 460.23 1066.01 499.34 1104.47 505.45 1087.35 540.29 1101.78 626.46 1042.55 679.63 1095.8 679.63 1120.45 706.27 1124.1 773.99 1164.56 771.65 1209.56 707.04 1158.89 680.82 1158.89 678.28 1132.62 672.66 1104.47 628.66 1071.17 545.3 1112.21 508.87 1104.47 508.87 1104.47 500.91 1120.45 503.63 1148.18 415.27 1095.8 381.27 1098.85 363.91 1133.8 338.84 1104.47 333.72 1089.42 236.31 1078.2 227.85 1095.8 203.06 1098.85 197.59 1089.46 67.1 1089.46 4.57 1140.95 4.57 1098.85"/><polygon class="cls-66" points="654.5 1675.12 661.51 1665.82 697.84 1670.47 779.44 1678.68 697.35 1665.82 658.82 1655.68 652.5 1667.51 654.5 1675.12"/><polygon class="cls-67" points="654.5 1675.12 666.02 1718.88 660.93 1727.71 646.26 1729 545.3 1709.41 527.7 1709.41 518.9 1641.36 635.26 1672.79 650.9 1672.79 654.5 1675.12"/><polygon class="cls-67" points="279.35 1801.9 238.26 1734.04 279.35 1678.68 276.87 1667.18 369.29 1746.24 405.82 1796.86 279.35 1801.9"/><polygon class="cls-67" points="86.7 1128.87 202.46 1240.94 282.26 1263.04 298.89 1263.04 248.04 1175.91 233.01 1159.48 123.37 1140.95 86.7 1128.87"/><polygon class="cls-68" points="224.57 1433.8 211.37 1379.38 210.88 1337.16 252.93 1401.9 266.33 1476.02 224.57 1433.8"/><polygon class="cls-65" points="4.57 1513.13 76.43 1513.13 162.24 1526.69 158.82 1607.38 77.79 1599.87 4.57 1599.87 4.57 1513.13"/><polygon class="cls-69" points="214.06 1729.35 183.5 1801.9 165.91 1806.42 158.82 1641.36 165.91 1638.34 204.04 1721.84 214.06 1729.35"/><polygon class="cls-70" points="77.9 1631.77 68.37 1722.6 52.47 1806.42 132.17 1807.77 77.9 1631.77"/><polygon class="cls-71" points="298.89 865.99 280.32 892.43 302.31 880.23 322.36 879.76 298.89 865.99"/><polygon class="cls-30" points="762.75 1653.77 741.44 1607.05 737.93 1562.11 782.91 1658.98 771.17 1658.98 762.75 1653.77"/><polygon class="cls-30" points="650.9 1573.02 605.38 1450.32 568.04 1388.29 546.89 1357.15 566.81 1430.28 623.52 1549.2 650.9 1573.02"/><polygon class="cls-30" points="457.3 1166.4 492.5 1254.59 530.87 1345.6 540.28 1357.15 514.99 1263.98 457.3 1166.4"/><polygon class="cls-30" points="389.28 1251.63 415.27 1261.22 447.44 1324.96 462.18 1365.31 436.76 1351.23 397.65 1293.53 389.28 1251.63"/><polygon class="cls-30" points="492.5 1424.89 545.3 1507.45 580.5 1507.45 592.72 1502.29 536.01 1420.66 532.59 1430.28 492.5 1424.89"/><polygon class="cls-30" points="82.51 969.28 132.17 1057.56 162.24 1089.46 200.13 1150.45 233.01 1159.48 233.97 1152.39 134.62 981.56 110.17 981.56 82.51 969.28"/><polygon class="cls-30" points="145.37 841.41 145.37 828.63 177.6 802.36 271.55 969.28 248.04 963.74 145.37 841.41"/><polygon class="cls-72" points="635.99 892.43 650.9 988.13 664.59 1014.4 664.59 1140.95 664.59 1204.21 670.46 1209.56 682.19 1089.46 677.06 964.21 635.99 892.43"/><polygon class="cls-30" points="613.7 1261.22 589.49 1261.22 576.68 1317.46 600.07 1400.02 652.5 1433.8 685.13 1444.38 613.7 1261.22"/><polygon class="cls-30" points="276.87 1667.18 279.35 1678.68 256.88 1708.95 312.58 1747.17 369.29 1746.24 276.87 1667.18"/><polygon class="cls-30" points="165.91 1606.44 214.06 1631.77 252.96 1646.73 198.17 1599.87 180.57 1599.87 165.91 1606.44"/><polygon class="cls-30" points="76.43 1226.45 82.51 1168.67 92.32 1195.95 132.17 1272.28 116.04 1477.07 76.43 1513.13 76.43 1226.45"/><polygon class="cls-30" points="320.6 1337.16 320.6 1370.49 333.72 1418.61 345.98 1423.77 320.6 1337.16"/><polygon class="cls-30" points="375.16 1124.1 389.28 1185.16 405.82 1226.45 481.75 1263.04 481.75 1247.09 457.3 1166.4 375.16 1124.1"/><polygon class="cls-30" points="4.57 934.65 36.83 963.74 86.7 1006.43 104.3 1070.4 82.51 1098.85 74.57 1104.47 4.57 963.74 4.57 934.65"/><path class="cls-32" d="M-32.19,57.22Q51.36,231,134.9,404.73L159.66,414l40.51-33,2.8-7.06-2.73-10.5Z" transform="translate(36.14 368.55)"/><polygon class="cls-73" points="375.16 731.99 333.29 757.12 337.02 823.72 432.36 844.11 436.54 834.27 435.78 763.89 375.16 731.99"/><polygon class="cls-74" points="737.93 1385.01 702.73 1370.49 710.06 1458.9 721.79 1507.45 766.53 1599.87 782.91 1608.31 756.63 1518.24 737.93 1385.01"/><polygon class="cls-75" points="682.19 1089.46 705.77 1101.93 705.77 1251.63 711.53 1360.15 724 1370.49 702.73 1370.49 710.06 1458.9 704.17 1489.4 685.13 1444.38 682.19 1089.46"/><polygon class="cls-76" points="508.87 1104.47 545.3 1112.21 581.48 1178.6 546.89 1134.5 512.84 1120.45 508.87 1104.47"/><polygon class="cls-77" points="679.63 1430.28 655.91 1327.77 667.77 1220.9 670.46 1209.56 659.09 1323.09 667.77 1340.9 675.45 1185.16 680.82 1158.89 679.63 1430.28"/><polygon class="cls-77" points="368.31 1185.16 386.89 1287.43 435.78 1416.91 428.46 1416.13 377.17 1287.43 358.05 1282.27 396.91 1412.79 368.31 1410.81 313.09 1267.89 311.93 1168.67 351.69 1185.16 368.31 1185.16"/><polygon class="cls-76" points="443.55 780.85 463.81 918.23 474.29 918.23 462.18 828.63 481.75 840.09 492.5 972.65 499.34 985.32 509.12 851.62 495.19 831.21 443.55 780.85"/><polygon class="cls-78" points="82.51 852.18 93.55 896.65 105.4 902.99 41.83 731.99 4.57 731.99 4.57 811.27 27.54 828.63 57.86 934.65 59.84 930.69 45.63 881.02 19.23 802.36 19.23 776.56 25.1 773.27 79.03 967.73 93.06 972.65 88.66 954.82 95.01 947.32 95.99 934.65 58.34 817.35 76.43 846.92 82.51 852.18"/><polygon class="cls-79" points="170.79 903.69 187.54 889.77 191.8 896.73 176.54 914.6 178.37 918.23 195.44 901.07 219.81 929.37 188.97 994.03 187.54 990.29 215.41 931.84 211.01 924.8 177.39 963.74 170.79 903.69"/><polygon class="cls-80" points="705.77 1101.93 709.91 1287.43 717.59 1301.98 717.59 1193.57 724 1185.16 724 1209.56 737.93 1244.79 742.82 1249.9 758.86 1136.61 766.16 1140.95 766.16 1347.95 766.29 1379.38 775.33 1138.72 705.77 1101.93"/><polygon class="cls-80" points="737.93 1385.01 702.73 1370.49 710.06 1458.9 721.79 1507.45 737.93 1540.78 742.82 1542.66 722.77 1495.79 715.97 1459.13 730.76 1465.09 736.38 1486.34 722.77 1495.79 767.86 1556.75 737.93 1385.01"/><polygon class="cls-80" points="711.53 1360.15 724 1370.49 735.3 1372.87 710.48 1340.41 711.53 1360.15"/><polygon class="cls-80" points="737.93 1357.15 729.54 1340.41 737.93 1307.49 737.93 1357.15"/><polygon class="cls-80" points="568.04 1209.56 576.68 1236.53 589.49 1240.66 568.04 1209.56"/><polygon class="cls-80" points="415.27 1444.97 428.46 1492.44 425.73 1463.62 415.27 1444.97"/><polygon class="cls-80" points="224.57 1185.16 248.04 1216.13 256.88 1216.13 224.57 1185.16"/><polygon class="cls-80" points="390.8 1117.61 415.27 1095.8 410.39 1106.7 410.39 1115.15 390.8 1117.61"/><polygon class="cls-80" points="481.75 1162.65 484 1158.89 492.1 1158.89 492.1 1180.59 486.93 1175.23 481.75 1162.65"/><polygon class="cls-80" points="494.53 1187.47 498.79 1200.64 502.23 1195.95 494.53 1187.47"/><polygon class="cls-80" points="568.04 1019.56 567.67 1033.84 576.68 1049.97 568.04 1019.56"/><polygon class="cls-80" points="514.99 966.42 528.8 954.36 540.28 952.48 540.04 960.39 514.99 966.42"/><polygon class="cls-80" points="248.04 1608.31 271.55 1556.36 266.33 1594.47 248.04 1608.31"/><polygon class="cls-80" points="240.73 1594.47 233.97 1582.34 224.57 1586.27 224.57 1594.47 240.73 1594.47"/><polygon class="cls-80" points="320.6 1654.52 322.04 1646.73 333.29 1667.18 320.6 1667.18 320.6 1654.52"/><polygon class="cls-80" points="192.79 1751.02 186.44 1734.54 189.62 1718.88 192.79 1751.02"/><polygon class="cls-80" points="170.79 1200.64 201.11 1231.91 219.81 1247.86 236.31 1251.87 170.79 1200.64"/><polygon class="cls-80" points="210.88 1337.16 205.26 1272.42 214.06 1319.85 210.88 1337.16"/><polygon class="cls-80" points="302.9 1351.3 298.89 1308.47 311.93 1351.3 311.93 1371.06 302.9 1351.3"/><polygon class="cls-80" points="291.61 1492.44 320.6 1507.45 306.11 1507.45 291.61 1492.44"/><polygon class="cls-80" points="68.37 1151.2 63.95 1216.13 54.98 1187.47 68.37 1151.2"/><polygon class="cls-80" points="61.67 1144.82 68.37 1117.61 65.02 1106.7 61.67 1144.82"/><polygon class="cls-80" points="73.85 1726.65 77.45 1751.02 92.32 1747.17 73.85 1726.65"/><polygon class="cls-80" points="76.43 1754.68 71.49 1771.53 83.4 1783.77 83.4 1769.22 76.43 1754.68"/><polygon class="cls-80" points="192.79 1261.22 187.91 1289.43 197.34 1301.04 192.79 1261.22"/><polygon class="cls-81" points="772.92 1185.16 766.29 1312.77 766.29 1379.38 737.93 1385.01 756.63 1518.24 782.91 1608.31 782.91 1658.98 823 1721.84 944 1709.41 944 1689 937.4 1494.79 944 1481.41 937.4 1426.53 908.8 1342.09 885.34 1294.94 875.8 1289.31 855.27 1294.94 831.8 1226.68 820.8 1226.68 772.92 1185.16"/><polygon class="cls-82" points="820.8 1226.68 812 1323.09 812 1356.16 806.87 1388.29 820.8 1353.35 828.87 1276.79 831.8 1226.68 820.8 1226.68"/><polygon class="cls-83" points="740.04 1400.02 769.46 1410.81 819.33 1444.12 852.33 1507.45 852.33 1507.45 862.6 1463.82 862.6 1463.82 826.67 1423.71 766.29 1379.38 737.93 1385.01 740.04 1400.02"/><polygon class="cls-84" points="851.79 1718.88 840.97 1586.27 852.33 1507.45 852.33 1507.45 862.6 1463.82 862.6 1463.82 869.93 1354.05 869.93 1337.86 855.27 1294.94 875.8 1289.31 885.34 1294.94 885.34 1338.57 891.2 1401.9 916.14 1430.28 936.43 1459.13 944 1481.41 937.4 1494.79 933.49 1466.17 925.67 1454.44 889.49 1425.36 874.34 1477.9 877.76 1521.99 874.82 1619.57 876.79 1716.32 851.79 1718.88"/><polygon class="cls-85" points="819.33 1444.12 806.87 1525.9 819.33 1569.48 840.97 1586.27 852.33 1507.45 824.22 1453.5 819.33 1444.12"/><polygon class="cls-85" points="851.79 1718.88 823 1721.84 803.93 1690.09 788.78 1548.73 803.93 1542.43 819.33 1581.34 840.97 1604.55 851.79 1718.88"/><polygon class="cls-85" points="889.49 1425.36 874.34 1477.9 876.79 1716.32 944 1709.41 933.49 1466.17 925.67 1454.44 889.49 1425.36"/><polygon class="cls-85" points="885.34 1294.94 885.34 1328.72 891.2 1401.9 916.14 1430.28 920.16 1375.63 906.5 1337.45 885.34 1294.94"/><polygon class="cls-86" points="876.79 1716.32 875.83 1586.27 862.6 1603.15 840.97 1604.55 851.79 1718.88 876.79 1716.32"/><polygon class="cls-87" points="761.97 1536.54 782.91 1536.54 803.93 1542.43 819.33 1581.34 840.97 1604.55 840.97 1586.27 819.33 1569.48 809.52 1535.18 788.78 1534.02 777.77 1529.97 758.86 1525.9 761.97 1536.54"/><polygon class="cls-88" points="769.46 1410.81 794.4 1400.02 766.29 1379.38 737.93 1385.01 740.04 1400.02 769.46 1410.81"/><polygon class="cls-89" points="812 1323.09 824.77 1315.66 829.13 1272.28 817.04 1267.89 812 1323.09"/><polygon class="cls-90" points="751.1 1478.85 813.38 1489.4 848.02 1537.38 876.79 1532.86 938.71 1562.11 939.22 1571.49 877.2 1540.56 846.38 1548.73 812 1500.88 753.99 1499.41 751.1 1478.85"/><polygon class="cls-90" points="746.68 1447.37 817.9 1453.5 851.47 1513.42 876.63 1507.45 938.12 1518.12 938.44 1525.17 876.79 1513.13 850.83 1517.91 816.36 1463.62 747.86 1455.73 746.68 1447.37"/><polygon class="cls-91" points="885.34 1618.35 879.83 1571.49 885.34 1591.42 885.34 1618.35"/><polygon class="cls-91" points="887.23 1606.23 887.23 1627.73 892.49 1622.36 887.23 1606.23"/><polygon class="cls-91" points="920.16 1534.76 926.46 1525.17 926.46 1532.86 920.16 1534.76"/><polygon class="cls-91" points="897.74 1443.42 895.11 1453.5 895.11 1465.09 897.74 1443.42"/><polygon class="cls-91" points="902.75 1362.61 909.17 1382.2 909.17 1366.07 902.75 1362.61"/><polygon class="cls-91" points="820.57 1382.2 829.6 1362.61 825.08 1379.38 820.57 1382.2"/><polygon class="cls-91" points="927.93 1678.17 931.21 1708.43 938.03 1707.27 927.93 1678.17"/><polygon class="cls-91" points="825.08 1700.26 829.6 1685.17 829.6 1696.98 825.08 1700.26"/><polygon class="cls-92" points="2266.97 1848.95 1840.9 1831.02 1636.32 1767.11 1366.95 1743.19 1363.42 1731.93 1320.59 1707.93 1185.87 1687.9 1056.92 1685.17 1056.92 1692.86 823 1721.84 845.73 1764.3 836.2 1769.93 4.57 1812.85 4.57 1857.89 2266.97 1857.89 2266.97 1848.95"/><polygon class="cls-93" points="2266.97 1848.95 1840.9 1831.02 1675.67 1805.52 836.2 1769.93 4.57 1812.85 4.57 1857.89 2266.97 1857.89 2266.97 1848.95"/><polygon class="cls-94" points="985.94 1699.76 1291.11 1703.55 1185.87 1687.9 1056.92 1685.17 1056.92 1692.86 985.94 1699.76"/><polygon class="cls-95" points="1320.59 1707.93 944.37 1703.55 851.79 1718.88 1352.05 1725.56 1320.59 1707.93"/><polygon class="cls-96" points="1378.73 1744.23 1023.59 1747.17 985.94 1751.02 1376.96 1751.02 1390.42 1754.85 1337.97 1757.36 1386.59 1764.51 1591.49 1759.53 1378.73 1744.23"/><polygon class="cls-97" points="4.57 1231.91 76.73 1267.89 86.7 1292.79 162.24 1400.02 231.66 1369.15 252.93 1401.9 367.08 1495.79 375.16 1523.38 442.87 1651.52 527.7 1709.41 672.7 1744.23 676.33 1721.84 805.81 1697.37 938.44 1768.54 4.57 1821.77 4.57 1231.91"/><polygon class="cls-98" points="676.33 1721.84 694.48 1746.52 865.82 1772.67 676.33 1783.47 672.7 1744.23 676.33 1721.84"/><polygon class="cls-98" points="519.78 1704.01 527.7 1736.85 527.7 1790.72 558.01 1788.68 527.7 1709.41 519.78 1704.01"/><polygon class="cls-98" points="252.93 1401.9 248.04 1618.35 295.71 1802.05 210.88 1810.01 186.44 1533.63 162.24 1400.02 231.66 1369.15 252.93 1401.9"/><polygon class="cls-98" points="76.73 1267.89 86.7 1475.56 158.82 1726.65 186.44 1810.43 123.57 1814.98 68.37 1519.97 4.57 1424.89 4.57 1231.91 76.73 1267.89"/><polygon class="cls-99" points="86.7 1475.56 68.37 1519.97 123.57 1814.98 186.44 1810.43 86.7 1475.56"/><polygon class="cls-100" points="231.66 1369.15 367.08 1495.79 252.48 1421.89 231.66 1369.15"/><polygon class="cls-100" points="248.04 1618.35 442.87 1651.52 519.78 1704.01 338.12 1661.17 522.16 1713.87 524.26 1722.6 259.8 1663.65 232.65 1638.34 250.48 1627.73 248.04 1618.35"/><polygon class="cls-100" points="76.73 1267.89 4.57 1231.91 77.67 1287.43 151.73 1391.02 76.78 1323.09 83.4 1401.9 173.76 1463.62 162.24 1395.1 76.73 1267.89"/><polygon class="cls-100" points="428.98 1625.23 249.71 1544.6 217.6 1466.23 421.22 1610.54 428.98 1625.23"/><polygon class="cls-99" points="217.6 1466.23 190.49 1579.38 186.44 1533.63 162.24 1400.02 231.66 1369.15 252.48 1421.89 248.75 1488.31 217.6 1466.23"/><polygon class="cls-97" points="298.89 1263.04 287.34 1263.98 197.34 1240.66 86.7 1128.87 236.31 1164.76 67.1 1089.46 39.89 1034.77 203.55 1117.61 32.33 1019.56 203.06 1098.85 298.89 1263.04"/><polygon class="cls-97" points="162.24 1028.89 7.32 969.28 4.57 963.74 4.57 932.93 136.02 983.87 153.44 1011.33 119.95 999.87 52.55 983.87 156.71 1019.56 162.24 1028.89"/><polygon class="cls-101" points="375.16 1124.1 457.3 1166.4 508.14 1252.4 386.21 1217.68 514.99 1263.98 518.9 1278.38 392.62 1252.32 527.63 1310.56 545.3 1375.63 395.83 1284.46 375.16 1140.95 375.16 1124.1"/><polygon class="cls-97" points="518.9 1641.36 650.9 1672.79 655.91 1680.46 663.53 1709.41 538.89 1667.18 538.89 1672.79 558.01 1681.63 634.08 1726.78 600.07 1720.04 523.29 1678.17 518.9 1641.36"/><polygon class="cls-97" points="256.88 1369.57 295.71 1402.65 320.6 1416.91 306.11 1423.85 288.74 1415.04 256.88 1369.57"/><polygon class="cls-97" points="248.04 1347.76 256.88 1351.3 259.8 1357.15 253.92 1360.15 248.04 1347.76"/><polygon class="cls-97" points="390.8 1483.31 405.82 1490.28 435.78 1506.85 405.82 1503.92 390.8 1483.31"/><polygon class="cls-97" points="551.95 1558.6 567.67 1560.25 572.17 1573.02 551.95 1558.6"/><polygon class="cls-98" points="190.49 1579.38 105.54 1538.82 190.49 1584.56 186.44 1588.4 113.61 1569.98 122.4 1599.87 190.49 1629.36 126.24 1608.31 127.4 1612.21 195.7 1638.34 190.49 1579.38"/><polygon class="cls-98" points="4.57 1610.54 96.69 1692.72 4.57 1623.3 4.57 1645.27 110.13 1743.18 112.48 1755.73 16.8 1700.88 116.15 1775.33 4.57 1700.88 4.57 1610.54"/><polygon class="cls-98" points="938.44 1768.54 724 1735.79 924.8 1761.22 938.44 1768.54"/><polygon class="cls-98" points="375.16 1124.1 452.07 1173.19 378.49 1136.04 382.95 1175.23 495.39 1230.83 392.77 1185.16 392.6 1189.37 508.14 1252.4 387.6 1218.08 408.49 1246.26 516.02 1272.42 518.9 1278.38 391.11 1251.63 399.03 1274.35 536.01 1357.15 545.3 1375.63 395.83 1284.46 375.16 1140.95 375.16 1124.1"/><polygon class="cls-101" points="508.87 1362.24 439.39 1316.3 415.27 1315.23 508.87 1362.24"/><polygon class="cls-101" points="497.26 1369.15 482.97 1365.31 476.01 1369.15 486.63 1380.46 524.59 1383.5 497.26 1369.15"/><polygon class="cls-101" points="288.74 1121.69 248.04 1095.8 256.88 1078.2 333.72 1120.45 288.74 1121.69"/><polygon class="cls-101" points="302.9 1089.46 295.71 1081.43 288.74 1066.01 320.6 1089.46 302.9 1089.46"/><polygon class="cls-98" points="298.89 1263.04 170.79 1200.64 137 1175.91 187.91 1191.68 270.83 1214.97 268.1 1211.06 170.79 1175.23 86.7 1128.87 197.34 1240.66 287.34 1263.98 298.89 1263.04"/><polygon class="cls-98" points="32.33 1019.56 158.24 1080.66 217.8 1124.1 201.37 1116.36 32.33 1019.56"/><polygon class="cls-98" points="4.57 934.65 8.58 946 128.97 997.51 153.44 1011.33 119.95 999.87 52.55 983.87 10.73 966.42 151.73 1022.62 162.24 1028.89 7.32 969.28 4.57 963.74 4.57 934.65"/><polygon class="cls-100" points="576.68 1307.49 585.21 1308.47 614.25 1344.92 585.21 1319.85 592.72 1332.32 567.67 1314.99 582.1 1318.92 576.68 1307.49"/><polygon class="cls-100" points="623.92 1378.48 630.91 1386.58 640.15 1410.68 623.92 1378.48"/><polygon class="cls-97" points="302.31 880.23 362.59 904.76 357.23 899.42 457.25 936.37 322.36 879.76 302.31 880.23"/><polygon class="cls-97" points="405.82 842.99 443.9 883.08 436.76 854.9 405.82 842.99"/><polygon class="cls-97" points="642.1 1522.59 650.9 1513.13 655.91 1515.19 695.16 1526.84 642.1 1522.59"/><polygon class="cls-97" points="651.85 1532.65 646.94 1529.81 635.4 1531.23 651.85 1532.65"/><polygon class="cls-101" points="772.92 1185.16 812 1231.91 820.11 1234.21 820.8 1226.68 772.92 1185.16"/><polygon class="cls-101" points="785.33 1662.78 800.51 1658.16 849.07 1690.09 876.01 1678.17 927.93 1678.17 959.16 1685.17 1038.9 1687.42 1054.18 1647.63 1089.83 1694.36 1059.87 1695.97 846.88 1718.88 805.81 1697.37 785.33 1662.78"/><polygon class="cls-98" points="800.51 1658.16 826.43 1708.43 805.81 1697.37 785.33 1662.78 800.51 1658.16"/><polygon class="cls-98" points="849.07 1690.09 846.88 1718.88 876.54 1715.4 876.01 1678.17 849.07 1690.09"/><polygon class="cls-101" points="847.81 1670.05 795.84 1644.94 791.32 1632.13 836.35 1651.52 782.91 1613 845.41 1651.52 847.81 1670.05"/><polygon class="cls-101" points="876.54 1663.85 926.8 1670.05 926.46 1663.85 876.02 1646.73 876.54 1663.85"/><polygon class="cls-101" points="875.31 1643.31 920.66 1651.52 876.02 1641.36 875.31 1643.31"/><polygon class="cls-102" points="217.6 1812.79 364.18 1743.95 587.36 1722.6 592.7 1739.56 579.62 1801.88 437.01 1812.79 217.6 1812.79"/><polygon class="cls-103" points="364.18 1743.95 323.64 1765.33 437.01 1793.02 544.59 1775.59 592.7 1739.56 587.36 1722.6 364.18 1743.95"/><polygon class="cls-104" points="544.59 1775.59 539.25 1804.96 440.15 1812.54 217.6 1812.79 323.64 1765.33 437.01 1793.02 544.59 1775.59"/><polygon class="cls-103" points="286.75 1780.31 431.46 1800.18 526.79 1796.86 430.4 1806.42 295.71 1802.05 286.75 1780.31"/><polygon class="cls-105" points="398.12 1831.02 436.65 1818.48 600.79 1796.86 644.15 1796.86 667.25 1806.42 672.2 1813.94 592.7 1831.02 398.12 1831.02"/><polygon class="cls-103" points="436.65 1818.48 587.36 1821.77 605.5 1818.48 667.25 1806.42 644.15 1796.86 600.79 1796.86 436.65 1818.48"/><polygon class="cls-106" points="587.36 1821.77 592.7 1831.02 398.12 1831.02 436.65 1818.48 587.36 1821.77"/><polygon class="cls-107" points="364.18 1743.95 467.89 1757.81 551.95 1743.95 579.62 1734.54 587.36 1722.6 364.18 1743.95"/><path class="cls-108" d="M1169,1403l-266.69-3-132.63-71.17-5.3-39.21-17.6-49.84-7.87-27-7.17-24.59-46.07-49.3-21-23.92-9.9-25.26-139-82.64L348.24,836.34,339,772.4l15.65-81.51-91.92-53V604.1l-50.84-8.91L65.7,409,40.3,363.44l-72.45-97.7q1.95,635.71,3.91,1271.45,1436.78-2.18,2873.45-20.14,300.83-3.77,601.6-8.22l-2058.35-82.67Z" transform="translate(36.14 368.55)"/><path class="cls-97" d="M953.1,1275.75c-2.8-2.78,8.73-12.14,11.77-9.12S956.27,1278.9,953.1,1275.75Z" transform="translate(36.14 368.55)"/><path class="cls-97" d="M1239.12,1143.67c-2.79-2.78,8.74-12.13,11.77-9.11S1242.29,1146.83,1239.12,1143.67Z" transform="translate(36.14 368.55)"/><path class="cls-97" d="M674.29,1208.55c-6.33-3.94,8.73-12.14,11.77-9.12S683.87,1214.5,674.29,1208.55Z" transform="translate(36.14 368.55)"/><path class="cls-12" d="M1466.11,817.1c-2.71-1.69,3.74-5.2,5-3.91S1470.22,819.65,1466.11,817.1Z" transform="translate(36.14 368.55)"/><path class="cls-109" d="M1456,1057.07c-2.71-1.68,3.74-5.2,5-3.9S1460.12,1059.62,1456,1057.07Z" transform="translate(36.14 368.55)"/><path class="cls-109" d="M1267.38,1041.62c-1.34-.83,1.85-2.57,2.49-1.93S1269.41,1042.87,1267.38,1041.62Z" transform="translate(36.14 368.55)"/><path class="cls-97" d="M1597.34,746.2c-2.71-1.68,3.74-5.2,5-3.91S1601.45,748.75,1597.34,746.2Z" transform="translate(36.14 368.55)"/><path class="cls-97" d="M1223.84,1229.46c0-2,4.78-4.76,7.91-4.76s4.91,5.67,3.53,7S1223.84,1232.93,1223.84,1229.46Z" transform="translate(36.14 368.55)"/><path class="cls-97" d="M1369.56,1001.27c0-2,4.78-4.76,7.91-4.76s4.91,5.68,3.52,7.06S1369.56,1004.74,1369.56,1001.27Z" transform="translate(36.14 368.55)"/><path class="cls-97" d="M997.14,1236.15c-.8-.36-1.07-2.79-.5-4.05s3.19-.95,3.51-.14S998.55,1236.77,997.14,1236.15Z" transform="translate(36.14 368.55)"/><path class="cls-97" d="M1305.9,1132c-.8-.36-1.07-2.79-.5-4s3.19-1,3.5-.14S1307.31,1132.61,1305.9,1132Z" transform="translate(36.14 368.55)"/><path class="cls-109" d="M1501.35,1040.69c-.8-.36-1.07-2.79-.5-4s3.19-1,3.5-.14S1502.76,1041.32,1501.35,1040.69Z" transform="translate(36.14 368.55)"/><path class="cls-97" d="M1091.76,1198.62c-.8-.36-1.07-2.78-.5-4s3.19-1,3.5-.14S1093.17,1199.25,1091.76,1198.62Z" transform="translate(36.14 368.55)"/><path class="cls-110" d="M1066.26,1224.21c1.66-2.5,6.23-1.64,6.23,0s-5.39,3.3-6.23,2.46S1065.44,1225.44,1066.26,1224.21Z" transform="translate(36.14 368.55)"/><path class="cls-12" d="M1022.56,902.8c1.66-2.5,6.23-1.64,6.23,0s-5.39,3.3-6.23,2.46S1021.74,904,1022.56,902.8Z" transform="translate(36.14 368.55)"/><path class="cls-12" d="M842.84,655.86c-2.8-2.78,8.73-12.14,11.77-9.12S846,659,842.84,655.86Z" transform="translate(36.14 368.55)"/><path class="cls-12" d="M1936.83,1028.38c-2.8-2.79,8.73-12.14,11.76-9.12S1940,1031.53,1936.83,1028.38Z" transform="translate(36.14 368.55)"/><path class="cls-12" d="M820.37,649c0-2,4.78-4.76,7.91-4.76s4.91,5.68,3.52,7.06S820.37,652.44,820.37,649Z" transform="translate(36.14 368.55)"/><path class="cls-12" d="M1039.73,782.84c0-2,4.78-4.76,7.91-4.76s4.91,5.67,3.53,7S1039.73,786.31,1039.73,782.84Z" transform="translate(36.14 368.55)"/><path class="cls-12" d="M971.67,673.84c-.8-.36-1.07-2.79-.5-4.05s3.19-.95,3.5-.14S973.08,674.47,971.67,673.84Z" transform="translate(36.14 368.55)"/><path class="cls-12" d="M2170.33,1124.22c-.8-.36-1.07-2.79-.5-4s3.19-1,3.5-.14S2171.74,1124.85,2170.33,1124.22Z" transform="translate(36.14 368.55)"/><path class="cls-12" d="M2140.59,893.1c-.8-.36-1.06-2.79-.5-4.05s3.2-.95,3.51-.14S2142,893.72,2140.59,893.1Z" transform="translate(36.14 368.55)"/><path class="cls-12" d="M700.81,925.07c-.8-.36-1.07-2.79-.5-4.05s3.19-.95,3.51-.14S702.22,925.7,700.81,925.07Z" transform="translate(36.14 368.55)"/><path class="cls-12" d="M907.51,858.38c1.65-2.5,6.23-1.64,6.23,0s-5.39,3.3-6.23,2.46S906.69,859.61,907.51,858.38Z" transform="translate(36.14 368.55)"/><path class="cls-12" d="M692.73,684.37c1.66-2.5,6.24-1.65,6.24,0s-5.4,3.29-6.24,2.46S691.92,685.6,692.73,684.37Z" transform="translate(36.14 368.55)"/><path class="cls-12" d="M2165.22,848.56c1.65-2.5,6.23-1.64,6.23,0s-5.39,3.3-6.23,2.46S2164.4,849.79,2165.22,848.56Z" transform="translate(36.14 368.55)"/><path class="cls-12" d="M171,1230c-2.79-2.78,8.74-12.14,11.77-9.12S174.18,1233.18,171,1230Z" transform="translate(36.14 368.55)"/><path class="cls-12" d="M240.93,1067.69c0-2,4.78-4.76,7.91-4.76s4.92,5.68,3.53,7.06S240.93,1071.16,240.93,1067.69Z" transform="translate(36.14 368.55)"/><path class="cls-12" d="M434.07,1135.29c-.8-.36-1.07-2.79-.51-4s3.2-1,3.51-.14S435.48,1135.92,434.07,1135.29Z" transform="translate(36.14 368.55)"/><path class="cls-12" d="M174.13,1184.59c1.65-2.5,6.23-1.64,6.23,0s-5.39,3.3-6.23,2.46S173.31,1185.82,174.13,1184.59Z" transform="translate(36.14 368.55)"/><path class="cls-111" d="M653.38,1000.57c7,13.59-4.28,33.15-25.08,43.69s-43.3,8.06-50.25-5.53,4.28-33.16,25.08-43.7S646.43,987,653.38,1000.57Z" transform="translate(36.14 368.55)"/><path class="cls-112" d="M1324.14,1073.1c4.73,11.09-7.22,26.74-26.68,35s-39.08,5.92-43.81-5.16,7.21-26.74,26.68-35S1319.4,1062,1324.14,1073.1Z" transform="translate(36.14 368.55)"/><path class="cls-113" d="M1509.46,1343.35c2.44,6.5-6.76,16-20.57,21.09s-27,4-29.42-2.46,6.76-16,20.56-21.09S1507,1336.85,1509.46,1343.35Z" transform="translate(36.14 368.55)"/><ellipse class="cls-114" cx="1878.04" cy="687.05" rx="71.27" ry="43.02" transform="translate(-83.3 959.92) rotate(-17.35)"/><polygon class="cls-115" points="1416.94 1806.14 1448.92 1773.43 1479.13 1773.43 1514.71 1798.52 1525.08 1764.68 1534.75 1754.78 1729.88 1742.53 1740.72 1752.07 1706.03 1815.39 1722.7 1809.12 1792.09 1809.12 1830.25 1831.04 1822.26 1833.32 1668.61 1833.32 1416.94 1806.14"/><polygon class="cls-103" points="1534.75 1754.78 1525.08 1764.68 1600.73 1793.68 1688.4 1790.79 1740.72 1752.07 1729.88 1742.53 1534.75 1754.78"/><polygon class="cls-103" points="1448.92 1773.43 1424.59 1798.31 1477.01 1793.68 1490.19 1781.23 1479.13 1773.43 1448.92 1773.43"/><polygon class="cls-103" points="1722.7 1809.12 1706.03 1815.39 1675.67 1825.06 1751.74 1826.61 1784.38 1817.87 1799.59 1813.43 1792.09 1809.12 1722.7 1809.12"/><polygon class="cls-116" points="1688.4 1790.79 1694.06 1819.21 1706.03 1815.39 1740.72 1752.07 1688.4 1790.79"/><polygon class="cls-117" points="1751.74 1826.61 1810.01 1833.32 1822.26 1833.32 1830.25 1831.04 1799.59 1813.43 1751.74 1826.61"/><polygon class="cls-118" points="1477.01 1793.68 1490.19 1813.43 1515.13 1816.74 1514.71 1798.52 1490.19 1781.23 1477.01 1793.68"/><polygon class="cls-103" points="1519.07 1784.28 1555.48 1802.85 1600.73 1806.14 1559.9 1813.43 1525.08 1798.99 1519.07 1784.28"/><polygon class="cls-119" points="1614.81 1833.32 1632.9 1815.39 1675.67 1809.12 1680.39 1815.39 1673.77 1833.32 1614.81 1833.32"/><polygon class="cls-103" points="1632.9 1815.39 1647.87 1826.61 1677.32 1819.21 1680.39 1815.39 1675.67 1809.12 1632.9 1815.39"/><polygon class="cls-120" points="1534.75 1754.78 1538.84 1749.61 1729.88 1742.53 1740.72 1752.07 1587.4 1773.53 1732.09 1758.45 1719.05 1768.11 1579.74 1785.64 1680.39 1791.06 1600.73 1793.68 1525.08 1764.68 1529.75 1753.53 1534.75 1754.78"/><polygon class="cls-120" points="1479.13 1773.43 1448.92 1773.43 1424.59 1798.31 1467.13 1784.28 1445.22 1796.28 1467.13 1793.68 1485.08 1777.63 1479.13 1773.43"/><polygon class="cls-101" points="1722.7 1809.12 1678.74 1824.02 1706.82 1825.7 1762.81 1809.98 1714.56 1826.61 1734.76 1826.27 1792.09 1809.12 1722.7 1809.12"/><polygon class="cls-98" points="1729.88 1742.53 1671.81 1759.89 1559.9 1776.6 1588.94 1773.31 1740.72 1752.07 1729.88 1742.53"/><polygon class="cls-98" points="1732.09 1758.45 1678.16 1772.04 1579.74 1785.64 1719.05 1768.11 1732.09 1758.45"/><polygon class="cls-98" points="1706.82 1825.7 1736.82 1812.11 1763.61 1809.12 1762.81 1809.98 1706.82 1825.7"/><polygon class="cls-98" points="1734.76 1826.27 1768.97 1811.98 1792.09 1809.12 1734.76 1826.27"/><polygon class="cls-98" points="1424.59 1798.31 1461.27 1779.71 1479.13 1773.43 1485.08 1777.63 1467.13 1784.28 1424.59 1798.31"/><polygon class="cls-98" points="1467.13 1793.68 1470.11 1787.92 1485.08 1777.63 1467.13 1793.68"/><path class="cls-121" d="M3402.84,1248.59s-241.5-209.25-760.39-251.12-346.87,96.23-390.92,104.22-326.9-176.51-731.2-165-404.22,146.66-471.58,135.88S469.83,884.6,549.27,753.75s720.22-17,802.93,56.42-233.82,187-344.7,181.4S816.21,902.7,816.21,902.7s-30-105.32,111-110.7c0,0-55.84,110.93,67.73,147.57s349.48-48.74,357.15-109.3-600.58-181.35-668-104,197,317.83,387.12,285.68,389.62-249.79,771.86-162.33,314.28,142.4,542.29,106,369.59-377.24,1017.42-170Z" transform="translate(36.14 368.55)"/><ellipse class="cls-122" cx="2377.78" cy="974.06" rx="44.92" ry="44.71"/><ellipse class="cls-123" cx="2377.78" cy="974.06" rx="33.16" ry="33"/><ellipse class="cls-124" cx="2377.78" cy="974.06" rx="27.06" ry="26.94"/><ellipse class="cls-125" cx="2377.78" cy="974.06" rx="61.07" ry="60.78"/><ellipse class="cls-126" cx="2377.78" cy="974.06" rx="45.08" ry="44.87"/><ellipse class="cls-127" cx="2377.78" cy="974.06" rx="36.79" ry="36.62"/><ellipse class="cls-128" cx="2377.78" cy="974.06" rx="89.28" ry="88.86"/><ellipse class="cls-129" cx="2377.78" cy="974.06" rx="65.9" ry="65.59"/><ellipse class="cls-130" cx="2377.78" cy="974.06" rx="53.79" ry="53.54"/><ellipse class="cls-131" cx="2377.78" cy="974.06" rx="216.15" ry="215.13"/><ellipse class="cls-132" cx="2377.78" cy="974.06" rx="159.55" ry="158.81"/><ellipse class="cls-133" cx="2377.78" cy="974.06" rx="130.23" ry="129.62"/><path class="cls-134" d="M-31.57,1386.64s241.5-209.26,760.39-251.13,346.87,96.23,390.92,104.23,326.9-176.52,731.2-165,404.23,146.65,471.58,135.88S2901.44,1022.65,2822,891.79s-720.22-17-802.93,56.43,233.82,187,344.7,181.39,191.29-88.87,191.29-88.87,30-105.31-111-110.69c0,0,55.84,110.93-67.73,147.57s-349.48-48.75-357.15-109.31,600.58-181.34,668-104S2490.17,1182.11,2300,1150s-389.62-249.78-771.86-162.33-314.28,142.4-542.29,106S616.26,716.41-31.57,923.63Z" transform="translate(36.14 368.55)"/><rect class="cls-135" x="4.56" y="731.99" width="3393.6" height="1125.9"/></g></g></g></svg>