<svg xmlns="http://www.w3.org/2000/svg" xmlns:xlink="http://www.w3.org/1999/xlink" viewBox="0 0 1919.86 679.23"><defs><style>.cls-1{fill:none;}.cls-2{isolation:isolate;}.cls-3{clip-path:url(#clip-path);}.cls-4{fill:url(#radial-gradient);}.cls-5{fill:#cfdde0;}.cls-10,.cls-100,.cls-101,.cls-102,.cls-103,.cls-104,.cls-105,.cls-106,.cls-107,.cls-108,.cls-11,.cls-110,.cls-111,.cls-116,.cls-117,.cls-118,.cls-119,.cls-12,.cls-120,.cls-121,.cls-13,.cls-14,.cls-16,.cls-17,.cls-19,.cls-20,.cls-21,.cls-22,.cls-23,.cls-24,.cls-25,.cls-26,.cls-27,.cls-28,.cls-29,.cls-31,.cls-32,.cls-34,.cls-35,.cls-37,.cls-38,.cls-39,.cls-40,.cls-41,.cls-42,.cls-43,.cls-44,.cls-45,.cls-46,.cls-47,.cls-48,.cls-49,.cls-5,.cls-50,.cls-51,.cls-52,.cls-53,.cls-54,.cls-55,.cls-56,.cls-57,.cls-58,.cls-59,.cls-6,.cls-60,.cls-61,.cls-62,.cls-63,.cls-64,.cls-65,.cls-66,.cls-67,.cls-68,.cls-69,.cls-7,.cls-70,.cls-71,.cls-72,.cls-73,.cls-75,.cls-76,.cls-77,.cls-78,.cls-80,.cls-81,.cls-82,.cls-83,.cls-84,.cls-85,.cls-86,.cls-87,.cls-88,.cls-89,.cls-90,.cls-91,.cls-92,.cls-95,.cls-96,.cls-97,.cls-98,.cls-99{fill-rule:evenodd;}.cls-10,.cls-16,.cls-5,.cls-66,.cls-8,.cls-9,.cls-91{mix-blend-mode:soft-light;}.cls-6{fill:url(#Áĺçűě_ííűé_ăđŕäčĺíň_31);}.cls-7{fill:url(#Áĺçűě_ííűé_ăđŕäčĺíň_68);}.cls-10,.cls-12,.cls-13,.cls-15,.cls-16,.cls-17,.cls-8,.cls-9{fill:#fff;}.cls-10,.cls-9{opacity:0.91;}.cls-11{fill:url(#Áĺçűě_ííűé_ăđŕäčĺíň_107);}.cls-13{opacity:0.8;}.cls-14{fill:url(#Áĺçűě_ííűé_ăđŕäčĺíň_114);}.cls-17{opacity:0.65;}.cls-112,.cls-113,.cls-114,.cls-115,.cls-122,.cls-123,.cls-124,.cls-125,.cls-126,.cls-127,.cls-128,.cls-129,.cls-130,.cls-131,.cls-132,.cls-133,.cls-134,.cls-135,.cls-18{mix-blend-mode:screen;}.cls-18{fill:url(#radial-gradient-2);}.cls-19{fill:url(#Áĺçűě_ííűé_ăđŕäčĺíň_358);}.cls-100,.cls-105,.cls-107,.cls-109,.cls-117,.cls-118,.cls-119,.cls-20,.cls-21,.cls-22,.cls-24,.cls-25,.cls-26,.cls-27,.cls-28,.cls-34,.cls-37,.cls-38,.cls-39,.cls-40,.cls-41,.cls-42,.cls-43,.cls-45,.cls-47,.cls-48,.cls-50,.cls-52,.cls-53,.cls-54,.cls-55,.cls-56,.cls-57,.cls-58,.cls-59,.cls-60,.cls-61,.cls-62,.cls-63,.cls-64,.cls-65,.cls-67,.cls-69,.cls-70,.cls-71,.cls-72,.cls-76,.cls-83,.cls-84,.cls-85,.cls-87,.cls-88,.cls-89,.cls-90,.cls-94,.cls-96,.cls-97,.cls-99{mix-blend-mode:multiply;}.cls-100,.cls-114,.cls-122,.cls-135,.cls-20,.cls-21,.cls-22,.cls-24,.cls-25,.cls-26,.cls-27,.cls-28,.cls-83,.cls-84,.cls-87,.cls-89,.cls-90{opacity:0.3;}.cls-20{fill:url(#Áĺçűě_ííűé_ăđŕäčĺíň_159);}.cls-21{fill:url(#Áĺçűě_ííűé_ăđŕäčĺíň_159-2);}.cls-22{fill:url(#Áĺçűě_ííűé_ăđŕäčĺíň_159-3);}.cls-23{fill:url(#Áĺçűě_ííűé_ăđŕäčĺíň_351);}.cls-24{fill:url(#Áĺçűě_ííűé_ăđŕäčĺíň_6);}.cls-25{fill:url(#Áĺçűě_ííűé_ăđŕäčĺíň_6-2);}.cls-26{fill:url(#Áĺçűě_ííűé_ăđŕäčĺíň_6-3);}.cls-27{fill:url(#Áĺçűě_ííűé_ăđŕäčĺíň_6-4);}.cls-28{fill:url(#Áĺçűě_ííűé_ăđŕäčĺíň_6-5);}.cls-29{fill:url(#Áĺçűě_ííűé_ăđŕäčĺíň_321);}.cls-30,.cls-46{fill:#472751;}.cls-108,.cls-115,.cls-30,.cls-31,.cls-32,.cls-33,.cls-56,.cls-68,.cls-73,.cls-74,.cls-75,.cls-96,.cls-97{opacity:0.2;}.cls-31,.cls-33,.cls-35{fill:#8172ac;}.cls-32{fill:#ef533f;}.cls-105,.cls-107,.cls-112,.cls-113,.cls-117,.cls-118,.cls-119,.cls-126,.cls-127,.cls-129,.cls-130,.cls-132,.cls-133,.cls-34,.cls-35,.cls-36,.cls-38,.cls-39,.cls-41,.cls-42,.cls-43,.cls-44,.cls-45,.cls-46,.cls-47,.cls-48,.cls-50,.cls-55,.cls-58,.cls-59,.cls-60,.cls-61,.cls-62,.cls-63,.cls-64,.cls-65,.cls-70,.cls-71,.cls-76,.cls-85,.cls-86,.cls-88,.cls-95{opacity:0.5;}.cls-34{fill:url(#Áĺçűě_ííűé_ăđŕäčĺíň_316);}.cls-36{fill:#7c6c73;}.cls-37,.cls-40,.cls-52,.cls-53,.cls-54,.cls-57,.cls-69,.cls-72{opacity:0.76;}.cls-37{fill:url(#Áĺçűě_ííűé_ăđŕäčĺíň_316-2);}.cls-38{fill:url(#Áĺçűě_ííűé_ăđŕäčĺíň_316-3);}.cls-39{fill:url(#Áĺçűě_ííűé_ăđŕäčĺíň_316-4);}.cls-40{fill:url(#Áĺçűě_ííűé_ăđŕäčĺíň_316-5);}.cls-41{fill:url(#Áĺçűě_ííűé_ăđŕäčĺíň_316-6);}.cls-42{fill:url(#Áĺçűě_ííűé_ăđŕäčĺíň_316-7);}.cls-43{fill:url(#Áĺçűě_ííűé_ăđŕäčĺíň_316-8);}.cls-44{fill:#8b4c72;}.cls-45{fill:url(#Áĺçűě_ííűé_ăđŕäčĺíň_316-9);}.cls-47{fill:url(#Áĺçűě_ííűé_ăđŕäčĺíň_316-10);}.cls-48{fill:url(#Áĺçűě_ííűé_ăđŕäčĺíň_316-11);}.cls-49{fill:#481c4d;}.cls-50{fill:url(#Áĺçűě_ííűé_ăđŕäčĺíň_316-12);}.cls-51{fill:url(#Áĺçűě_ííűé_ăđŕäčĺíň_10);}.cls-52{fill:url(#Áĺçűě_ííűé_ăđŕäčĺíň_316-13);}.cls-53{fill:url(#Áĺçűě_ííűé_ăđŕäčĺíň_316-14);}.cls-54{fill:url(#Áĺçűě_ííűé_ăđŕäčĺíň_316-15);}.cls-55{fill:url(#Áĺçűě_ííűé_ăđŕäčĺíň_316-16);}.cls-56{fill:url(#Áĺçűě_ííűé_ăđŕäčĺíň_9);}.cls-57{fill:url(#Áĺçűě_ííűé_ăđŕäčĺíň_316-17);}.cls-58{fill:url(#Áĺçűě_ííűé_ăđŕäčĺíň_316-18);}.cls-59{fill:url(#Áĺçűě_ííűé_ăđŕäčĺíň_316-19);}.cls-60{fill:url(#Áĺçűě_ííűé_ăđŕäčĺíň_316-20);}.cls-61{fill:url(#Áĺçűě_ííűé_ăđŕäčĺíň_316-21);}.cls-62{fill:url(#Áĺçűě_ííűé_ăđŕäčĺíň_316-22);}.cls-63{fill:url(#Áĺçűě_ííűé_ăđŕäčĺíň_316-23);}.cls-64{fill:url(#Áĺçűě_ííűé_ăđŕäčĺíň_316-24);}.cls-65{fill:url(#Áĺçűě_ííűé_ăđŕäčĺíň_316-25);}.cls-66{fill:#ac9889;}.cls-67{fill:url(#Áĺçűě_ííűé_ăđŕäčĺíň_316-26);}.cls-68{fill:#ef3952;}.cls-69{fill:url(#Áĺçűě_ííűé_ăđŕäčĺíň_316-27);}.cls-70{fill:url(#Áĺçűě_ííűé_ăđŕäčĺíň_316-28);}.cls-71{fill:url(#Áĺçűě_ííűé_ăđŕäčĺíň_316-29);}.cls-72{fill:url(#Áĺçűě_ííűé_ăđŕäčĺíň_316-30);}.cls-73{fill:#ef855d;}.cls-74{fill:#a199a9;}.cls-75{fill:#57337c;}.cls-76{fill:url(#Áĺçűě_ííűé_ăđŕäčĺíň_316-31);}.cls-77,.cls-81{fill:#775e95;}.cls-78,.cls-79,.cls-80{fill:#77517c;}.cls-80{opacity:0.81;}.cls-81{opacity:0.83;}.cls-82{fill:url(#Áĺçűě_ííűé_ăđŕäčĺíň_351-2);}.cls-83{fill:url(#Áĺçűě_ííűé_ăđŕäčĺíň_316-32);}.cls-84{fill:url(#Áĺçűě_ííűé_ăđŕäčĺíň_316-33);}.cls-85{fill:url(#Áĺçűě_ííűé_ăđŕäčĺíň_316-34);}.cls-86{fill:#8e8ebf;}.cls-87{fill:url(#Áĺçűě_ííűé_ăđŕäčĺíň_6-6);}.cls-88{fill:url(#Áĺçűě_ííűé_ăđŕäčĺíň_316-35);}.cls-89{fill:url(#Áĺçűě_ííűé_ăđŕäčĺíň_316-36);}.cls-90{fill:url(#Áĺçűě_ííűé_ăđŕäčĺíň_316-37);}.cls-91{fill:#7c97ce;}.cls-92{fill:#8986d6;}.cls-93{fill:#dde5ff;}.cls-94{fill:#5a68a4;}.cls-94,.cls-99{opacity:0.6;}.cls-95{fill:#d6cde7;}.cls-96{fill:url(#Áĺçűě_ííűé_ăđŕäčĺíň_149);}.cls-97{fill:url(#Áĺçűě_ííűé_ăđŕäčĺíň_149-2);}.cls-98{fill:#aabdf9;}.cls-100,.cls-99{fill:#8e84a4;}.cls-101{fill:#c1cffb;}.cls-102{fill:#d3ddfc;}.cls-103{fill:url(#Áĺçűě_ííűé_ăđŕäčĺíň_361);}.cls-104{fill:#704c68;}.cls-105{fill:url(#Áĺçűě_ííűé_ăđŕäčĺíň_149-3);}.cls-106{fill:url(#Áĺçűě_ííűé_ăđŕäčĺíň_361-2);}.cls-107{fill:url(#Áĺçűě_ííűé_ăđŕäčĺíň_149-4);}.cls-108{fill:#de6b40;}.cls-109{fill:#78639a;}.cls-110{fill:#4f63cc;}.cls-111{fill:#7997f6;}.cls-112{fill:url(#Áĺçűě_ííűé_ăđŕäčĺíň_75);}.cls-113{fill:url(#Áĺçűě_ííűé_ăđŕäčĺíň_75-2);}.cls-114{fill:url(#Áĺçűě_ííűé_ăđŕäčĺíň_75-3);}.cls-115{fill:url(#Áĺçűě_ííűé_ăđŕäčĺíň_80);}.cls-116{fill:url(#Áĺçűě_ííűé_ăđŕäčĺíň_361-3);}.cls-117{fill:url(#Áĺçűě_ííűé_ăđŕäčĺíň_149-5);}.cls-118{fill:url(#Áĺçűě_ííűé_ăđŕäčĺíň_149-6);}.cls-119{fill:url(#Áĺçűě_ííűé_ăđŕäčĺíň_149-7);}.cls-120{fill:url(#Áĺçűě_ííűé_ăđŕäčĺíň_361-4);}.cls-121{fill:#e6ecfd;}.cls-122{fill:url(#Áĺçűě_ííűé_ăđŕäčĺíň_434);}.cls-123{fill:url(#Áĺçűě_ííűé_ăđŕäčĺíň_8);}.cls-124{fill:url(#Áĺçűě_ííűé_ăđŕäčĺíň_8-2);}.cls-125{fill:url(#Áĺçűě_ííűé_ăđŕäčĺíň_7);}.cls-126{fill:url(#Áĺçűě_ííűé_ăđŕäčĺíň_8-3);}.cls-127{fill:url(#Áĺçűě_ííűé_ăđŕäčĺíň_8-4);}.cls-128,.cls-131,.cls-134{opacity:0.92;}.cls-128{fill:url(#Áĺçűě_ííűé_ăđŕäčĺíň_7-2);}.cls-129{fill:url(#Áĺçűě_ííűé_ăđŕäčĺíň_8-5);}.cls-130{fill:url(#Áĺçűě_ííűé_ăđŕäčĺíň_8-6);}.cls-131{fill:url(#Áĺçűě_ííűé_ăđŕäčĺíň_7-3);}.cls-132{fill:url(#Áĺçűě_ííűé_ăđŕäčĺíň_8-7);}.cls-133{fill:url(#Áĺçűě_ííűé_ăđŕäčĺíň_8-8);}.cls-134{fill:url(#Áĺçűě_ííűé_ăđŕäčĺíň_7-4);}.cls-135{fill:url(#Áĺçűě_ííűé_ăđŕäčĺíň_64);}</style><clipPath id="clip-path" transform="translate(-0.03 0)"><path class="cls-1" d="M1919.89,678C1266.94,677.82,653,679.38,0,679.18L0,0C653.36.35,1266.57.75,1919.89,1.09,1919.52,226.75,1920.26,452.36,1919.89,678Z"/></clipPath><radialGradient id="radial-gradient" cx="1414.82" cy="143.43" r="1363.54" gradientUnits="userSpaceOnUse"><stop offset="0" stop-color="#cfe0ff"/><stop offset="0.19" stop-color="#ccdcfd"/><stop offset="0.4" stop-color="#c1cff7"/><stop offset="0.61" stop-color="#b1baed"/><stop offset="0.83" stop-color="#999cdf"/><stop offset="1" stop-color="#827fd1"/></radialGradient><linearGradient id="Áĺçűě_ííűé_ăđŕäčĺíň_31" x1="45.07" y1="677.43" x2="45.07" y2="554.56" gradientTransform="matrix(-1, 0, 0, 1, 1311.04, 0)" gradientUnits="userSpaceOnUse"><stop offset="0" stop-color="#b6d6ff"/><stop offset="0.56" stop-color="#98baff"/><stop offset="1" stop-color="#86a9ff"/></linearGradient><linearGradient id="Áĺçűě_ííűé_ăđŕäčĺíň_68" x1="2609.29" y1="677.43" x2="2609.29" y2="232.73" gradientTransform="translate(-1433.61 0)" gradientUnits="userSpaceOnUse"><stop offset="0" stop-color="#92c2ff"/><stop offset="1" stop-color="#5e7cff"/></linearGradient><linearGradient id="Áĺçűě_ííűé_ăđŕäčĺíň_107" x1="2522.02" y1="677.43" x2="2522.02" y2="174.12" gradientTransform="translate(-1433.61 0)" gradientUnits="userSpaceOnUse"><stop offset="0" stop-color="#92c2ff"/><stop offset="0.12" stop-color="#84aff1"/><stop offset="0.53" stop-color="#5470c5"/><stop offset="0.79" stop-color="#5459a9"/><stop offset="1" stop-color="#544a97"/></linearGradient><linearGradient id="Áĺçűě_ííűé_ăđŕäčĺíň_114" x1="2887.62" y1="677.63" x2="2887.62" gradientTransform="translate(-1433.58)" gradientUnits="userSpaceOnUse"><stop offset="0" stop-color="#92c2ff"/><stop offset="0.2" stop-color="#7c9ad9"/><stop offset="0.53" stop-color="#595b9d"/><stop offset="0.77" stop-color="#494393"/><stop offset="1" stop-color="#3d318b"/></linearGradient><radialGradient id="radial-gradient-2" cx="1328.7" cy="664.91" r="996.95" gradientTransform="translate(0 22.49) scale(1 0.91)" gradientUnits="userSpaceOnUse"><stop offset="0" stop-color="#2e2c75"/><stop offset="0.1" stop-color="#25235d"/><stop offset="0.27" stop-color="#17163c"/><stop offset="0.44" stop-color="#0d0d21"/><stop offset="0.62" stop-color="#06060f"/><stop offset="0.8" stop-color="#010104"/><stop offset="1"/></radialGradient><linearGradient id="Áĺçűě_ííűé_ăđŕäčĺíň_358" x1="660.35" y1="576.87" x2="660.35" y2="380.33" gradientUnits="userSpaceOnUse"><stop offset="0" stop-color="#ab81bf"/><stop offset="1" stop-color="#81588d"/></linearGradient><linearGradient id="Áĺçűě_ííűé_ăđŕäčĺíň_159" x1="658.77" y1="576.47" x2="658.77" y2="443.25" gradientUnits="userSpaceOnUse"><stop offset="0" stop-color="#974577"/><stop offset="1" stop-color="#c77cbd"/></linearGradient><linearGradient id="Áĺçűě_ííűé_ăđŕäčĺíň_159-2" x1="685.87" y1="550.38" x2="685.87" y2="477.68" xlink:href="#Áĺçűě_ííűé_ăđŕäčĺíň_159"/><linearGradient id="Áĺçűě_ííűé_ăđŕäčĺíň_159-3" x1="620.93" y1="573.89" x2="620.93" y2="380.33" xlink:href="#Áĺçűě_ííűé_ăđŕäčĺíň_159"/><linearGradient id="Áĺçűě_ííűé_ăđŕäčĺíň_351" x1="562.81" y1="588.09" x2="562.81" y2="257.85" gradientUnits="userSpaceOnUse"><stop offset="0" stop-color="#ab81bf"/><stop offset="0.38" stop-color="#81588d"/><stop offset="1" stop-color="#594a63"/></linearGradient><linearGradient id="Áĺçűě_ííűé_ăđŕäčĺíň_6" x1="559.01" y1="588.09" x2="559.01" y2="257.85" gradientUnits="userSpaceOnUse"><stop offset="0" stop-color="#7e4b87"/><stop offset="1" stop-color="#a384b7"/></linearGradient><linearGradient id="Áĺçűě_ííűé_ăđŕäčĺíň_6-2" x1="579.67" y1="464.56" x2="579.67" y2="302.18" xlink:href="#Áĺçűě_ííűé_ăđŕäčĺíň_6"/><linearGradient id="Áĺçűě_ííűé_ăđŕäčĺíň_6-3" x1="524.6" y1="343.74" x2="524.6" y2="257.85" xlink:href="#Áĺçűě_ííűé_ăđŕäčĺíň_6"/><linearGradient id="Áĺçűě_ííűé_ăđŕäčĺíň_6-4" x1="559.07" y1="487.76" x2="559.07" y2="410.98" xlink:href="#Áĺçűě_ííűé_ăđŕäčĺíň_6"/><linearGradient id="Áĺçűě_ííűé_ăđŕäčĺíň_6-5" x1="571.67" y1="530.09" x2="571.67" y2="511.04" xlink:href="#Áĺçűě_ííűé_ăđŕäčĺíň_6"/><linearGradient id="Áĺçűě_ííűé_ăđŕäčĺíň_321" x1="281.33" y1="677.43" x2="281.33" gradientUnits="userSpaceOnUse"><stop offset="0" stop-color="#7097a7"/><stop offset="0.67" stop-color="#5e2740"/><stop offset="1" stop-color="#6f0b2a"/></linearGradient><linearGradient id="Áĺçűě_ííűé_ăđŕäčĺíň_316" x1="142.73" y1="650.33" x2="142.73" gradientUnits="userSpaceOnUse"><stop offset="0" stop-color="#6d57b7"/><stop offset="1" stop-color="#564b59"/></linearGradient><linearGradient id="Áĺçűě_ííűé_ăđŕäčĺíň_316-2" x1="38.21" y1="650.33" x2="38.21" y2="139.44" xlink:href="#Áĺçűě_ííűé_ăđŕäčĺíň_316"/><linearGradient id="Áĺçűě_ííűé_ăđŕäčĺíň_316-3" x1="87.27" y1="246.06" x2="87.27" xlink:href="#Áĺçűě_ííűé_ăđŕäčĺíň_316"/><linearGradient id="Áĺçűě_ííűé_ăđŕäčĺíň_316-4" x1="235.13" y1="637.02" x2="235.13" xlink:href="#Áĺçűě_ííűé_ăđŕäčĺíň_316"/><linearGradient id="Áĺçűě_ííűé_ăđŕäčĺíň_316-5" x1="165.14" y1="646.46" x2="165.14" y2="272.67" xlink:href="#Áĺçűě_ííűé_ăđŕäčĺíň_316"/><linearGradient id="Áĺçűě_ííűé_ăđŕäčĺíň_316-6" x1="342.62" y1="630.75" x2="342.62" y2="24.84" xlink:href="#Áĺçűě_ííűé_ăđŕäčĺíň_316"/><linearGradient id="Áĺçűě_ííűé_ăđŕäčĺíň_316-7" x1="350.32" y1="420.15" x2="350.32" y2="71.98" xlink:href="#Áĺçűě_ííűé_ăđŕäčĺíň_316"/><linearGradient id="Áĺçűě_ííűé_ăđŕäčĺíň_316-8" x1="434.16" y1="553.26" x2="434.16" y2="215.08" xlink:href="#Áĺçűě_ííűé_ăđŕäčĺíň_316"/><linearGradient id="Áĺçűě_ííűé_ăđŕäčĺíň_316-9" x1="169.34" y1="640.71" x2="169.34" y2="491.41" xlink:href="#Áĺçűě_ííűé_ăđŕäčĺíň_316"/><linearGradient id="Áĺçűě_ííűé_ăđŕäčĺíň_316-10" x1="381.8" y1="576.47" x2="427" y2="576.47" xlink:href="#Áĺçűě_ííűé_ăđŕäčĺíň_316"/><linearGradient id="Áĺçűě_ííűé_ăđŕäčĺíň_316-11" x1="288.49" y1="545.45" x2="331.44" y2="545.45" xlink:href="#Áĺçűě_ííűé_ăđŕäčĺíň_316"/><linearGradient id="Áĺçűě_ííűé_ăđŕäčĺíň_316-12" x1="243.03" y1="320.09" x2="243.03" y2="96.53" xlink:href="#Áĺçűě_ííűé_ăđŕäčĺíň_316"/><linearGradient id="Áĺçűě_ííűé_ăđŕäčĺíň_10" x1="96.24" y1="267.1" x2="96.24" y2="233.73" gradientUnits="userSpaceOnUse"><stop offset="0" stop-color="#a83e58"/><stop offset="1" stop-color="#8c1c4d"/></linearGradient><linearGradient id="Áĺçűě_ííűé_ăđŕäčĺíň_316-13" x1="178.66" y1="422.26" x2="178.66" y2="416.23" xlink:href="#Áĺçűě_ííűé_ăđŕäčĺíň_316"/><linearGradient id="Áĺçűě_ííűé_ăđŕäčĺíň_316-14" x1="347.73" y1="567.46" x2="347.73" y2="533.3" xlink:href="#Áĺçűě_ííűé_ăđŕäčĺíň_316"/><linearGradient id="Áĺçűě_ííűé_ăđŕäčĺíň_316-15" x1="356.03" y1="603.97" x2="356.03" y2="588.09" xlink:href="#Áĺçűě_ííűé_ăđŕäčĺíň_316"/><linearGradient id="Áĺçűě_ííűé_ăđŕäčĺíň_316-16" x1="262.48" y1="453.88" x2="262.48" y2="334.2" xlink:href="#Áĺçűě_ííűé_ăđŕäčĺíň_316"/><linearGradient id="Áĺçűě_ííűé_ăđŕäčĺíň_9" x1="285.45" y1="416.9" x2="285.45" y2="376.14" xlink:href="#Áĺçűě_ííűé_ăđŕäčĺíň_6"/><linearGradient id="Áĺçűě_ííűé_ăđŕäčĺíň_316-17" x1="199.44" y1="266.69" x2="199.44" y2="96.53" xlink:href="#Áĺçűě_ííűé_ăđŕäčĺíň_316"/><linearGradient id="Áĺçűě_ííűé_ăđŕäčĺíň_316-18" x1="337.44" y1="470" x2="337.44" y2="387.26" xlink:href="#Áĺçűě_ííűé_ăđŕäčĺíň_316"/><linearGradient id="Áĺçűě_ííűé_ăđŕäčĺíň_316-19" x1="109.58" y1="65.84" x2="109.58" y2="6.32" xlink:href="#Áĺçűě_ííűé_ăđŕäčĺíň_316"/><linearGradient id="Áĺçűě_ííűé_ăđŕäčĺíň_316-20" x1="94.42" y1="181.61" x2="94.42" xlink:href="#Áĺçűě_ííűé_ăđŕäčĺíň_316"/><linearGradient id="Áĺçűě_ííűé_ăđŕäčĺíň_316-21" x1="152.16" y1="60.97" x2="152.16" xlink:href="#Áĺçűě_ííűé_ăđŕäčĺíň_316"/><linearGradient id="Áĺçűě_ííűé_ăđŕäčĺíň_316-22" x1="38.21" y1="650.33" x2="38.21" y2="297.5" xlink:href="#Áĺçűě_ííűé_ăđŕäčĺíň_316"/><linearGradient id="Áĺçűě_ííűé_ăđŕäčĺíň_316-23" x1="337.22" y1="281.07" x2="337.22" y2="139.44" xlink:href="#Áĺçűě_ííűé_ăđŕäčĺíň_316"/><linearGradient id="Áĺçűě_ííűé_ăđŕäčĺíň_316-24" x1="387.59" y1="420.15" x2="387.59" y2="325.11" xlink:href="#Áĺçűě_ííűé_ăđŕäčĺíň_316"/><linearGradient id="Áĺçűě_ííűé_ăđŕäčĺíň_316-25" x1="285.77" y1="256.86" x2="315.18" y2="256.86" xlink:href="#Áĺçűě_ííűé_ăđŕäčĺíň_316"/><linearGradient id="Áĺçűě_ííűé_ăđŕäčĺíň_316-26" x1="388.02" y1="562.68" x2="464.04" y2="562.68" xlink:href="#Áĺçűě_ííűé_ăđŕäčĺíň_316"/><linearGradient id="Áĺçűě_ííűé_ăđŕäčĺíň_316-27" x1="123.56" y1="405.89" x2="156.76" y2="405.89" xlink:href="#Áĺçűě_ííűé_ăđŕäčĺíň_316"/><linearGradient id="Áĺçűě_ííűé_ăđŕäčĺíň_316-28" x1="108.92" y1="646.46" x2="108.92" y2="545.33" xlink:href="#Áĺçűě_ííűé_ăđŕäčĺíň_316"/><linearGradient id="Áĺçűě_ííűé_ăđŕäčĺíň_316-29" x1="52.55" y1="647.27" x2="52.55" y2="541.38" xlink:href="#Áĺçűě_ííűé_ăđŕäčĺíň_316"/><linearGradient id="Áĺçűě_ííűé_ăđŕäčĺíň_316-30" x1="177.73" y1="96.53" x2="177.73" y2="80.63" xlink:href="#Áĺçűě_ííűé_ăđŕäčĺíň_316"/><linearGradient id="Áĺçűě_ííűé_ăđŕäčĺíň_316-31" x1="405.8" y1="335.4" x2="430.84" y2="335.4" xlink:href="#Áĺçűě_ííűé_ăđŕäčĺíň_316"/><linearGradient id="Áĺçűě_ííűé_ăđŕäčĺíň_351-2" x1="500.89" y1="595.57" x2="500.89" y2="272.67" xlink:href="#Áĺçűě_ííűé_ăđŕäčĺíň_351"/><linearGradient id="Áĺçűě_ííűé_ăđŕäčĺíň_316-32" x1="487.93" y1="394.88" x2="487.93" y2="297.65" xlink:href="#Áĺçűě_ííűé_ăđŕäčĺíň_316"/><linearGradient id="Áĺçűě_ííűé_ăđŕäčĺíň_316-33" x1="476.51" y1="466.58" x2="476.51" y2="389.52" xlink:href="#Áĺçűě_ííűé_ăđŕäčĺíň_316"/><linearGradient id="Áĺçűě_ííűé_ăđŕäčĺíň_316-34" x1="531.74" y1="593.79" x2="531.74" y2="335.33" xlink:href="#Áĺçűě_ííűé_ăđŕäčĺíň_316"/><linearGradient id="Áĺçűě_ííűé_ăđŕäčĺíň_6-6" x1="511.61" y1="593.79" x2="511.61" y2="514" xlink:href="#Áĺçűě_ííűé_ăđŕäčĺíň_6"/><linearGradient id="Áĺçűě_ííűé_ăđŕäčĺíň_316-35" x1="476.3" y1="525" x2="476.3" y2="477.68" xlink:href="#Áĺçűě_ííűé_ăđŕäčĺíň_316"/><linearGradient id="Áĺçűě_ííűé_ăđŕäčĺíň_316-36" x1="456.09" y1="408.43" x2="456.09" y2="389.52" xlink:href="#Áĺçűě_ííűé_ăđŕäčĺíň_316"/><linearGradient id="Áĺçűě_ííűé_ăđŕäčĺíň_316-37" x1="483.54" y1="339.04" x2="493.8" y2="339.04" xlink:href="#Áĺçűě_ííűé_ăđŕäčĺíň_316"/><linearGradient id="Áĺçűě_ííűé_ăđŕäčĺíň_149" x1="507.37" y1="591.19" x2="806.95" y2="591.19" gradientUnits="userSpaceOnUse"><stop offset="0" stop-color="#c77cbd"/><stop offset="1" stop-color="#974577"/></linearGradient><linearGradient id="Áĺçűě_ííűé_ăđŕäčĺíň_149-2" x1="587.7" y1="615.14" x2="950.34" y2="615.14" xlink:href="#Áĺçűě_ííűé_ăđŕäčĺíň_149"/><linearGradient id="Áĺçűě_ííűé_ăđŕäčĺíň_361" x1="127.58" y1="623.16" x2="352.21" y2="623.16" gradientUnits="userSpaceOnUse"><stop offset="0" stop-color="#321031"/><stop offset="1" stop-color="#422c3b"/></linearGradient><linearGradient id="Áĺçűě_ííűé_ăđŕäčĺíň_149-3" x1="127.58" y1="636.02" x2="323.4" y2="636.02" xlink:href="#Áĺçűě_ííűé_ăđŕäčĺíň_149"/><linearGradient id="Áĺçűě_ííűé_ăđŕäčĺíň_361-2" x1="235.68" y1="650.99" x2="399.82" y2="650.99" xlink:href="#Áĺçűě_ííűé_ăđŕäčĺíň_361"/><linearGradient id="Áĺçűě_ííűé_ăđŕäčĺíň_149-4" x1="235.68" y1="657.49" x2="352.21" y2="657.49" xlink:href="#Áĺçűě_ííűé_ăđŕäčĺíň_149"/><radialGradient id="Áĺçűě_ííűé_ăđŕäčĺíň_75" cx="759.5" cy="127.3" r="10.95" gradientTransform="matrix(2.06, -1.05, 0.69, 1.35, -1263.66, 1018.68)" gradientUnits="userSpaceOnUse"><stop offset="0" stop-color="#a9d1ff"/><stop offset="0.37" stop-color="#a8cffd"/><stop offset="0.5" stop-color="#a3caf6"/><stop offset="0.6" stop-color="#9bc0eb"/><stop offset="0.68" stop-color="#90b2da"/><stop offset="0.74" stop-color="#82a0c4"/><stop offset="0.8" stop-color="#708aa8"/><stop offset="0.85" stop-color="#5a6f88"/><stop offset="0.9" stop-color="#415062"/><stop offset="0.95" stop-color="#242d37"/><stop offset="0.99" stop-color="#060809"/><stop offset="0.99"/></radialGradient><radialGradient id="Áĺçűě_ííűé_ăđŕäčĺíň_75-2" cx="1111.18" cy="184.95" r="10.95" gradientTransform="matrix(1.93, -0.82, 0.47, 1.1, -1436.6, 1141.58)" xlink:href="#Áĺçűě_ííűé_ăđŕäčĺíň_75"/><radialGradient id="Áĺçűě_ííűé_ăđŕäčĺíň_75-3" cx="1228.33" cy="384.34" r="6.16" gradientTransform="matrix(2.43, -0.91, 0.43, 1.15, -2240.66, 1270.24)" xlink:href="#Áĺçűě_ííűé_ăđŕäčĺíň_75"/><radialGradient id="Áĺçűě_ííűé_ăđŕäčĺíň_80" cx="1233.29" cy="129.67" r="25.87" gradientTransform="matrix(1.65, 0, 0, 1, -891.46, 65.06)" gradientUnits="userSpaceOnUse"><stop offset="0" stop-color="#97ccff"/><stop offset="0.37" stop-color="#96cbfd"/><stop offset="0.5" stop-color="#92c5f6"/><stop offset="0.6" stop-color="#8bbceb"/><stop offset="0.68" stop-color="#81aeda"/><stop offset="0.74" stop-color="#749cc4"/><stop offset="0.8" stop-color="#6487a8"/><stop offset="0.85" stop-color="#516d88"/><stop offset="0.9" stop-color="#3a4f62"/><stop offset="0.95" stop-color="#212c37"/><stop offset="0.99" stop-color="#050709"/><stop offset="0.99"/></radialGradient><linearGradient id="Áĺçűě_ííűé_ăđŕäčĺíň_361-3" x1="845.81" y1="635.33" x2="1093.33" y2="635.33" xlink:href="#Áĺçűě_ííűé_ăđŕäčĺíň_361"/><linearGradient id="Áĺçűě_ííűé_ăđŕäčĺíň_149-5" x1="1008.38" y1="633.96" x2="1039.71" y2="633.96" xlink:href="#Áĺçűě_ííűé_ăđŕäčĺíň_149"/><linearGradient id="Áĺçűě_ííűé_ăđŕäčĺíň_149-6" x1="1046.31" y1="656.66" x2="1093.33" y2="656.66" xlink:href="#Áĺçűě_ííűé_ăđŕäčĺíň_149"/><linearGradient id="Áĺçűě_ííűé_ăđŕäčĺíň_149-7" x1="881.79" y1="641.99" x2="904.61" y2="641.99" xlink:href="#Áĺçűě_ííűé_ăđŕäčĺíň_149"/><linearGradient id="Áĺçűě_ííűé_ăđŕäčĺíň_361-4" x1="983.95" y1="662.65" x2="983.95" y2="648.09" xlink:href="#Áĺçűě_ííűé_ăđŕäčĺíň_361"/><linearGradient id="Áĺçűě_ííűé_ăđŕäčĺíň_434" x1="315" y1="332.1" x2="2002.37" y2="332.1" gradientTransform="matrix(-1, 0, 0, 1, 2345.24, 0)" gradientUnits="userSpaceOnUse"><stop offset="0"/><stop offset="1" stop-color="#858dbc"/></linearGradient><radialGradient id="Áĺçűě_ííűé_ăđŕäčĺíň_8" cx="1421.26" cy="145.65" r="26.9" gradientTransform="translate(161.23 -527.79) rotate(22.27)" gradientUnits="userSpaceOnUse"><stop offset="0" stop-color="#00bdff"/><stop offset="0.04" stop-color="#6bb6f6"/><stop offset="1"/></radialGradient><radialGradient id="Áĺçűě_ííűé_ăđŕäčĺíň_8-2" cx="1421.26" cy="145.65" r="19.86" gradientTransform="translate(1336.52 -1280.54) rotate(80.75)" xlink:href="#Áĺçűě_ííűé_ăđŕäčĺíň_8"/><radialGradient id="Áĺçűě_ííűé_ăđŕäčĺíň_7" cx="1421.26" cy="145.65" r="16.21" gradientTransform="translate(162.3 -529.78) rotate(22.36)" gradientUnits="userSpaceOnUse"><stop offset="0.04" stop-color="#6bb6f6"/><stop offset="1"/></radialGradient><radialGradient id="Áĺçűě_ííűé_ăđŕäčĺíň_8-3" cx="1421.26" cy="145.65" r="36.57" gradientTransform="translate(160.28 -526.01) rotate(22.19)" xlink:href="#Áĺçűě_ííűé_ăđŕäčĺíň_8"/><radialGradient id="Áĺçűě_ííűé_ăđŕäčĺíň_8-4" cx="1421.26" cy="145.65" r="27" gradientTransform="translate(1350.82 -1281.31) rotate(81.32)" xlink:href="#Áĺçűě_ííűé_ăđŕäčĺíň_8"/><radialGradient id="Áĺçűě_ííűé_ăđŕäčĺíň_7-2" cx="1421.26" cy="145.65" r="22.03" gradientTransform="translate(1336.42 -1280.53) rotate(80.74)" xlink:href="#Áĺçűě_ííűé_ăđŕäčĺíň_7"/><radialGradient id="Áĺçűě_ííűé_ăđŕäčĺíň_8-5" cx="1421.26" cy="145.65" r="53.46" gradientTransform="translate(1231.89 -1270.45) rotate(76.53)" xlink:href="#Áĺçűě_ííűé_ăđŕäčĺíň_8"/><radialGradient id="Áĺçűě_ííűé_ăđŕäčĺíň_8-6" cx="1421.26" cy="145.65" r="39.47" gradientTransform="translate(1233.1 -1270.61) rotate(76.58)" xlink:href="#Áĺçűě_ííűé_ăđŕäčĺíň_8"/><radialGradient id="Áĺçűě_ííűé_ăđŕäčĺíň_7-3" cx="1421.26" cy="145.65" r="32.21" gradientTransform="translate(160.71 -526.81) rotate(22.23)" xlink:href="#Áĺçűě_ííűé_ăđŕäčĺíň_7"/><radialGradient id="Áĺçűě_ííűé_ăđŕäčĺíň_8-7" cx="1421.26" cy="145.65" r="129.44" gradientTransform="translate(519.27 -962.32) rotate(45)" xlink:href="#Áĺçűě_ííűé_ăđŕäčĺíň_8"/><radialGradient id="Áĺçűě_ííűé_ăđŕäčĺíň_8-8" cx="1421.26" cy="145.65" r="95.55" gradientTransform="translate(1448.07 -1282.8) rotate(85.22)" xlink:href="#Áĺçűě_ííűé_ăđŕäčĺíň_8"/><radialGradient id="Áĺçűě_ííűé_ăđŕäčĺíň_7-4" cx="1421.26" cy="145.65" r="77.99" gradientTransform="translate(1229.76 -1270.16) rotate(76.45)" xlink:href="#Áĺçűě_ííűé_ăđŕäčĺíň_7"/><linearGradient id="Áĺçűě_ííűé_ăđŕäčĺíň_64" x1="0.03" y1="448.76" x2="1713.92" y2="448.76" gradientUnits="userSpaceOnUse"><stop offset="0" stop-color="#858dbc"/><stop offset="1"/></linearGradient></defs><g class="cls-2"><g id="canyon"><g class="cls-3"><rect class="cls-4" width="1919.86" height="679.12"/><polygon class="cls-5" points="1919.86 313.73 773.5 290.77 1919.86 294.61 1919.86 271.24 303.66 265.52 302.46 321.28 1919.86 338.22 1919.86 313.73"/><polygon class="cls-6" points="1919.86 555.96 612.08 594.67 612.08 677.43 1919.86 677.43 1919.86 555.96"/><polygon class="cls-7" points="1306.03 287.95 1265.7 234.31 1254.38 232.73 1066.89 408.96 1065.46 411.15 1060.14 410.12 724.86 677.43 1626.5 677.43 1306.03 287.95"/><path class="cls-8" d="M991.13,677.43l214.12-327-5.73,26.12L1121.2,508.07,1131.63,471,1015.5,677.43h611l-302.7-367.9,38.5,62.46-96.58-137.68-11.33-1.58L1065.5,411.15l50.18-34.65,33.43-26.12-255.92,327Zm311.32-372.18-20.89-18-12.07,22.08-.7-44.23Zm-37.6,12.21,31,42.9-35.94-34.21Zm-13.6,21.25,111.08,152.83-116.4-141.16-116.4,172.09L1228,372Z" transform="translate(-0.03 0)"/><polygon class="cls-9" points="1196.76 435.96 1227.96 425.77 1266.18 479.64 1430.76 677.43 1626.5 677.43 1265.7 234.31 1254.38 232.73 1281.53 287.28 1277.35 295.63 1196.76 435.96"/><polygon class="cls-10" points="1205.21 350.39 1238.87 265.14 1188.81 325.15 1149.08 441.67 1205.21 350.39"/><polygon class="cls-11" points="1196.76 364.94 1188.63 360.23 1042.06 174.12 1035.21 174.12 1025.37 180.96 988.15 237.56 883.97 376.49 802.46 419.49 796.04 420.77 634.75 677.43 1542.08 677.43 1196.76 364.94"/><polygon class="cls-9" points="1481.15 622.3 1465.57 608.2 1281.53 556.69 1481.15 622.3"/><polygon class="cls-9" points="1206.93 382.48 1357.94 510.8 1196.77 364.93 1206.93 382.48"/><polygon class="cls-9" points="715.18 677.43 724.87 677.43 807.6 562.61 715.18 677.43"/><polygon class="cls-9" points="1357.94 510.8 1217.6 400.89 1223.18 434.96 1274.45 470 1224.78 444.63 1230.52 479.64 1419.3 566.33 1357.94 510.8"/><path class="cls-9" d="M801.86,435l-77,162.94V570.31l-54,107.12H709.2l117-155.89,157.5,19.88,38.79-61.78L988.19,547.7,832.66,565.18,765.28,677.43h21.17l18.37-29.62-8.74,29.62H909l34-39.73-23.76,39.73h162.38l-5.3-7.35-5.93-8.25,118.4-95.57-13.13,17.53-99.34,86.29,90.23-67.3,214.78,74.65H1542.1l-35.31-32-225.23-79.21L990.34,415.31,943.68,486l47.45-78.21h0l260.12,133.69,208.36,61.36-27.86-25.22-58.5-20.87-142.7-77.05L1221.2,453v0l-13.89-39.58-31.59-17.15L1205.08,407l-16.41-46.79L1042.09,174.12h-6.84l-9.84,6.84,13.94-.81L1081.67,251l-46.52-61.68-9.74-8.36-16.26,26.35-56.48,91.52,62.26-86.64,8.08,3.74.25.12-.76,1L892.58,386.71,884,376.5l-87.92,44.27L634.77,677.43,796.08,431.05ZM786.45,657.58l44.93-78.9L849,583.79ZM968.18,519.94l20-16.83-15,23.85-25.05-4.49Zm327.63,7L1256,515.35l-12.83-11.6Zm-135.2-51.64L995.43,366.46h0l-15.16,16,15.8-22.12,108.37,64.9,56.18,33.63ZM1041.23,372l22.51,4.51,22.5,26.94,19.17,8.13,35.3,30.1-54.47-38.23Zm47.22-71.87-21.33-14.33-51.62-53.06ZM1007,251l17.55,14.13,122.54,98.18,0,0,2,1.59-131.34-90.28-11.19,4.3-40.43,57.11ZM838.44,455.08,818.2,468l-58.7,73.38,46.56-88.51Z" transform="translate(-0.03 0)"/><polygon class="cls-9" points="1160.57 618.17 1154.34 622.85 1081.64 677.43 1357.94 677.43 1160.57 618.17"/><path class="cls-8" d="M1129.53,522.47l59.31,43.79-22.24,36.52-12.22,20.07-33.25,54.58h421l-35.31-32-25.61-23.17-15.58-14.1-6-5.42-27.86-25.22-12.41-11.23L1358,510.8,1196.8,364.93l-8.13-4.69L1042.09,174.12l-18.83,41.93-7.76,16.68L1007,251l17.55,14.13-6.78,9.52-15,21-6.74,64.68-.63,6.1-4.3,41.27h0l-.79,7.57,150.33,95.49Zm211.27-4.25-35.15-10.15-54.4-28.43Z" transform="translate(-0.03 0)"/><polygon class="cls-9" points="806.02 452.91 838.41 455.08 818.17 468.04 832.63 565.17 959.05 608.17 943.01 637.69 935.31 677.43 1081.63 677.43 943.65 485.95 921.19 420.77 883.96 376.5 796.05 420.77 801.82 434.96 806.02 452.91"/><polygon class="cls-12" points="1465.57 608.2 1459.57 602.78 1459.64 602.79 1465.57 608.2"/><path class="cls-10" d="M1251.25,541.42,991.13,407.73l4.29-41.27,109,58.8,4.19,2.25L996.06,360.36l1.05-10,4.76-45.74,25.62,10.08-24.69-19,15-21,129.32,88.66L1007,251l15.5-34,.51-1.1,19.08-41.81,146.58,186.12L1205.08,407l-29.37-10.85,31.59,17.15,13.89,39.58v0l14.7,65.26L1129.53,470Zm-110.54-99.75-35.3-30.1-19.17-8.13-22.5-26.94L1041.23,372l45,31.45Z" transform="translate(-0.03 0)"/><polygon class="cls-10" points="1121.1 534.17 1064.73 608.2 1075.22 566.33 1121.1 534.17"/><polygon class="cls-10" points="818.17 468.04 943.65 485.95 968.15 519.94 938.84 522.47 826.13 521.54 818.17 468.04"/><polygon class="cls-10" points="838.41 455.08 926.08 434.96 921.19 420.77 883.96 376.5 796.05 420.77 806.02 452.91 838.41 455.08"/><polygon class="cls-13" points="1022.8 444.64 1088.4 485.95 1049.33 470.95 1022.8 444.64"/><polygon class="cls-13" points="1206.93 382.48 1196.76 364.94 1340.76 495.25 1206.93 382.48"/><polygon class="cls-10" points="990.3 415.31 1140.64 510.8 1277.35 564.1 990.3 415.31"/><path class="cls-14" d="M1919.89.07,1707,0,1521.48,278.94l-26.26,14.12-66.81,80.86-37-35.21-42.2,19.81L1230.76,470h-13.13L988.18,677.43l931.71.2Z" transform="translate(-0.03 0)"/><polygon class="cls-15" points="1919.86 164.48 1873.7 131.88 1872.94 131.34 1873.74 132.27 1889.27 150.59 1919.86 173.92 1919.86 164.48"/><polygon class="cls-15" points="1919.86 0 1811.43 0 1919.86 22.51 1919.86 0"/><polygon class="cls-1" points="1845.73 67.47 1912.3 103.09 1835.51 47.39 1835.5 47.37 1782.03 131.34 1811.43 103.09 1845.73 67.47"/><polygon class="cls-1" points="1658.59 160.53 1643.19 170.63 1654.74 174.12 1658.59 160.53"/><polygon class="cls-1" points="1329.36 425.78 1344.77 406.02 1251.21 491.14 1266.4 506.8 1371.07 400.89 1329.36 425.78"/><polygon class="cls-1" points="1383.8 382.48 1371.07 400.89 1384.94 389.94 1383.8 382.48"/><polygon class="cls-1" points="1721.48 102.77 1575.13 303.34 1445.16 472.74 1535.8 372.64 1633.08 251.12 1580.29 357.67 1589.07 357.24 1620.18 311.82 1729.66 110.32 1799.31 0 1758.07 58.5 1721.48 102.77"/><polygon class="cls-1" points="1919.86 338.58 1830.72 295.68 1834.82 309.53 1821.47 340.39 1840.85 359.8 1818.12 348.15 1815.82 346.96 1814.73 355.95 1919.86 411.85 1919.86 338.58"/><polygon class="cls-1" points="1919.86 420.69 1807.91 371.74 1798.09 394.45 1919.86 459.2 1919.86 420.69"/><polygon class="cls-1" points="1919.86 154.11 1872.94 121.06 1778.39 232.73 1875.01 150.59 1919.86 182.96 1919.86 154.11"/><polygon class="cls-1" points="1273.38 513.98 1281.6 522.47 1289.66 513.98 1273.38 513.98"/><polygon class="cls-1" points="1349.46 503.11 1372.36 498.44 1407.65 521.54 1374.47 485.95 1349.46 503.11"/><polygon class="cls-1" points="1682.97 278.95 1662.04 305.25 1699.01 285.99 1735.96 225.03 1682.97 278.95"/><polygon class="cls-1" points="1542.07 602.79 1647.9 508.07 1636.77 530.09 1596.97 592.06 1782.03 403.44 1697.23 442.8 1542.07 602.79"/><polygon class="cls-1" points="1387.61 423.02 1388.19 415.31 1436.12 450.98 1387.61 407.73 1381.67 432.32 1283.78 524.72 1292.94 534.17 1377.15 469.97 1440.79 497.42 1437.83 468.04 1387.61 423.02"/><polygon class="cls-1" points="1713.81 164.29 1705.95 182.26 1749.75 135.42 1713.81 164.29"/><polygon class="cls-1" points="1481.18 458.89 1518.56 411.03 1484.67 445.16 1481.18 458.89"/><polygon class="cls-1" points="1489.16 497.15 1503.61 485.95 1491.84 492.64 1489.16 497.15"/><polygon class="cls-1" points="1541.17 425.78 1552.7 422.06 1572.91 400.89 1564.03 403.44 1541.17 425.78"/><path class="cls-8" d="M1610.46,436,1455.61,625,1339.82,613.6l-61.12,63.83h641.19V459.2l-121.77-64.75,9.82-22.71,112,48.95v-8.84L1814.77,356l1.08-9,2.3,1.19,22.73,11.65-19.37-19.41,13.34-30.86-4.1-13.85,89.14,42.9V183L1875,150.59l-96.62,82.14L1873,121.06l46.91,33.05V59.45l-90.68-24.53-3.47-6.82,78.47,18.52-81.75-25L1811.47,0h-12.13L1729.7,110.32l-109.49,201.5-31.11,45.42-8.77.43,52.79-106.55-97.28,121.52-90.64,100.1,130-169.4,146.36-200.57L1758.1,58.5,1799.34,0H1707l-97.87,147.14,65.25-81.28L1669.85,64l-4,2.88,5.29-10.42,26.13-27.13,15.26-7.69L1609.15,167.27,1660.84,105,1542.1,281.51l36.6-88.58-57.23,86,13.93,19.88-81.5,109.1,50.11-86-1.23-17.75-55.3,63.36,51.33-63.33-3.59-11.12-66.81,80.86-37-35.21-42.2,19.8-65.48,61.61,56.11-48.33-2-.12,4-4.81,14.23-6.1-15,10.49,16.68-9.74L1317,400.45l26.52-22L1315.28,409,1275.91,442l36.58-37.64-58.62,54.75L1230.76,470h-13.13L988.19,677.43H1022l193.35-180.28,8.49,10.92-57.23,50.86,73.17-50.86.4,28.94-132.5,140.42h159.46l82.36-87,104.41,12.36L1597,444.51l116.4-123L1610.47,435.94ZM1835.53,47.37l0,0,76.78,55.7-66.57-35.62-34.29,35.62-29.41,28.25ZM1658.62,160.53l-3.84,13.59-11.55-3.49ZM1266.44,506.8l-15.19-15.66L1344.8,406l-15.41,19.76,41.71-24.89,12.74-18.41L1385,390l-13.87,10.94Zm7,7.18h16.27l-8.06,8.49Zm99-15.54-22.9,4.67,25-17.16,33.17,35.59Zm4.79-28.47-84.2,64.2-9.16-9.45,97.88-92.4,6-24.59,48.5,43.25-47.93-35.67-.57,7.71,50.21,45,3,29.38Zm112,27.18,2.67-4.51,11.77-6.69Zm-8-38.26,3.49-13.73L1518.6,411Zm71.52-36.83-11.54,3.72,22.87-22.34,8.87-2.55Zm161.11-257.77,35.94-28.87L1706,182.26ZM1699.05,286l-37,19.26L1683,279,1736,225Zm83,117.45L1597,592.06l39.8-62,11.12-22L1542.1,602.79l155.17-160Z" transform="translate(-0.03 0)"/><polygon class="cls-8" points="1448.52 533.51 1442.53 514.69 1428.38 373.92 1391.41 338.71 1383.81 382.48 1387.61 407.72 1362.94 554.56 1316.74 677.43 1459.64 677.43 1448.52 533.51"/><polygon class="cls-1" points="1919.86 438.18 1804.3 396.99 1919.86 458.7 1919.86 438.18"/><polygon class="cls-8" points="1919.86 0 1811.43 0 1822.42 21.61 1825.71 28.1 1829.18 34.92 1835.5 47.37 1835.51 47.39 1845.73 67.47 1872.94 121.06 1919.86 154.11 1919.86 0"/><polygon class="cls-8" points="1818.12 348.15 1814.73 355.95 1807.91 371.74 1798.09 394.45 1675.71 677.43 1919.86 677.43 1919.86 458.7 1804.3 396.99 1919.86 438.18 1919.86 164.48 1873.7 131.88 1873.74 132.27 1875.01 150.59 1713.37 321.47 1596.97 444.51 1610.42 435.96 1610.44 435.94 1830.72 295.68 1834.82 309.53 1821.47 340.39 1818.12 348.15"/><polygon class="cls-16" points="1217.6 470 1258.76 538.86 1312.03 551.6 1292.94 534.17 1230.72 470 1217.6 470"/><polygon class="cls-17" points="1521.44 278.95 1495.19 293.06 1503.98 321.9 1518.68 350.39 1535.36 298.83 1521.44 278.95"/><polygon class="cls-16" points="1442.53 514.69 1487.24 472.74 1541.16 425.77 1448.52 533.51 1442.53 514.69"/><polygon class="cls-16" points="1686.4 252.84 1785.55 125.81 1721.06 182.26 1686.4 252.84"/><polygon class="cls-8" points="1604.68 479.64 1459.64 639.62 1459.64 677.43 1697.23 442.8 1604.68 479.64"/><polygon class="cls-8" points="1919.86 105.63 1912.3 103.09 1845.73 67.47 1872.94 121.06 1873.7 131.88 1919.86 164.82 1919.86 105.63"/><polygon class="cls-16" points="1919.86 59.45 1829.18 34.92 1835.5 47.37 1912.3 103.09 1919.86 104.04 1919.86 59.45"/><polygon class="cls-16" points="1822.42 21.61 1904.17 46.62 1825.71 28.1 1822.42 21.61"/><polygon class="cls-8" points="1919.86 0 1811.44 0 1919.86 22.51 1919.86 0"/><polygon class="cls-8" points="1919.86 459.2 1798.09 394.45 1742.72 522.47 1919.86 677.29 1919.86 459.2"/><polygon class="cls-8" points="1919.86 420.69 1919.86 343.89 1830.72 295.68 1834.82 309.54 1807.91 371.75 1919.86 420.69"/><polygon class="cls-8" points="1919.86 677.31 1737.95 533.51 1889.26 677.43 1919.86 677.43 1919.86 677.31"/><polygon class="cls-10" points="1362.94 554.56 1453.87 602.79 1349.46 590.43 1362.94 554.56"/><polygon class="cls-9" points="1455.58 624.98 1339.79 613.6 1316.74 677.43 1459.64 677.43 1455.58 624.98"/><polygon class="cls-10" points="1387.61 423.02 1437.83 468.04 1436.12 450.98 1388.19 415.31 1387.61 423.02"/><polygon class="cls-16" points="1259.83 548.49 1312.03 556.7 1332.57 602.79 1259.83 548.49"/><polygon class="cls-16" points="1919.86 343.89 1830.72 295.68 1834.82 309.54 1919.86 357.44 1919.86 343.89"/><path class="cls-18" d="M1919.89,1.09H608.16c-171,163.22-276,384.42-276,628q0,24.63,1.43,48.93H1919.89Z" transform="translate(-0.03 0)"/><polygon class="cls-19" points="601.74 380.33 630.25 403.28 640.11 444.93 644.58 443.25 660.35 445.6 677.43 477.68 689.85 486.5 718.97 576.87 630.21 573.51 601.74 380.33"/><polygon class="cls-20" points="644.58 443.25 660.35 505.11 667.29 511.03 677.43 576.47 640.11 444.93 644.58 443.25"/><polygon class="cls-21" points="677.43 477.68 694.31 550.38 688.06 506.03 681.06 480.26 677.43 477.68"/><polygon class="cls-22" points="601.74 380.33 609.26 392.91 623.53 520.56 628.47 522.18 640.11 573.89 630.21 573.51 601.74 380.33"/><polygon class="cls-23" points="630.21 578.13 562.59 588.09 495.4 339.04 500.89 287.35 518.79 274.05 537.88 257.85 545.21 261.37 562.59 296.7 570.11 298.32 590.68 334.19 592.56 337.43 620.19 466.58 628.18 466.58 630.21 578.13"/><polygon class="cls-24" points="597.83 455.15 596.43 455.71 601.49 580.73 599.22 580.93 590.21 428.05 573.27 372.62 573.83 366.08 550.7 315.29 540.81 325.17 539.96 350.86 560.47 410.98 580.25 434.11 580.25 511.04 584.33 516.69 587.7 582.28 562.59 588.09 495.4 339.04 500.89 287.35 518.79 274.05 537.88 257.85 553.8 315.29 569.04 325.17 562.59 296.7 570.11 298.32 567.35 306.06 597.83 452.74 620.19 466.58 622.63 467.22 616.6 467.22 597.83 455.15"/><polygon class="cls-25" points="569.04 325.17 561.52 339.04 573.83 366.08 573.27 372.62 590.21 428.05 592.36 464.56 596.43 455.71 597.83 452.74 567.35 306.06 563.83 302.18 569.04 325.17"/><polygon class="cls-26" points="550.7 315.29 540.81 325.17 529.95 343.74 495.4 343.74 500.89 287.35 537.88 257.85 553.8 315.29 550.7 315.29"/><polygon class="cls-27" points="560.47 410.98 537.89 464.56 545.21 487.76 580.25 434.11 560.47 410.98"/><polygon class="cls-28" points="580.25 511.04 559.01 514 559.01 530.09 584.33 516.69 580.25 511.04"/><path class="cls-29" d="M558.67,417.89l-17.12-50.81-14.06-28.37-5.71-3.38-12.29,3.38L498.94,309.5l-3.51-11.85h-6.59l-28.67-25,1.44-28-55.77-29.64-3.08-75.36c-4.39-14.82-24.59-43.19-24.59-43.19C355.33,86,302.19,72,302.19,72L293.85,59.7,258.27,24.84V19.19L230,0H0V677.43h562.6V588.09l-4-129.13,4-8Z" transform="translate(-0.03 0)"/><polygon class="cls-30" points="296.3 224.12 279.61 156.37 258.82 73.95 252.79 15.49 229.99 0 156.76 0 217.83 249.52 235.4 337.87 248.28 359.99 258.82 372.59 274.05 381.05 290.45 395.73 305.67 401.94 323.82 401.94 323.82 387.26 305.67 320.08 296.3 224.12"/><polygon class="cls-31" points="329.09 394.6 336.71 420.15 370.67 491.7 414.59 530.09 459.09 557.75 466.12 557.75 413.42 443.72 345.49 268.71 316.21 248.39 308.01 248.39 313.28 325.11 315.77 342.95 329.09 394.6"/><polygon class="cls-32" points="296.01 453.88 323.82 466.58 330.56 466.58 344.9 466.58 352.22 463.47 318.26 414.36 316.21 420.15 292.2 416.9 268.78 401.94 250.92 377.95 296.01 453.88"/><polygon class="cls-33" points="77.88 150.16 22.32 0 0 0 0 139.44 36.89 207.18 49.19 238.79 90.76 278.88 113.02 302.58 122.39 308.8 166.3 319.52 176.26 319.52 165.13 300.89 77.88 150.16"/><polygon class="cls-34" points="222.23 477.16 176.26 319.52 77.88 150.16 22.32 0 0 0 0 650.33 285.47 638.9 262.48 553.26 222.23 477.16"/><polygon class="cls-31" points="240.29 640.71 218.42 610.25 115.94 522.18 105.4 522.18 96.62 526.14 96.62 545.33 119.46 595.57 125.46 600.09 139.95 602.91 164.56 643.74 240.29 640.71"/><path class="cls-35" d="M378.17,96.53l-5.12,59.28v35.56l5.12,61,8.93,24.28,11.71,10.72,7-72.26-3.08-75.36S390.91,108.39,378.17,96.53Z" transform="translate(-0.03 0)"/><polygon class="cls-36" points="43.04 0 76.42 60.12 88.13 68.59 145.81 139.44 168.46 144.8 176.26 144.8 138.82 0 43.04 0"/><polygon class="cls-37" points="0 139.44 36.89 207.18 49.19 238.79 43.04 297.5 43.04 533.48 76.42 647.27 0 650.33 0 139.44"/><polygon class="cls-38" points="88.13 68.59 76.42 60.12 43.04 0 28.73 0 49.19 53.06 99.55 103.31 103.5 139.44 144.05 246.06 131.75 174.44 145.81 139.44 88.13 68.59"/><polygon class="cls-39" points="301.57 504.69 296.01 453.88 250.92 377.95 258.82 372.59 235.4 337.87 221.25 266.69 156.76 0 138.82 0 176.26 144.8 176.26 165.12 189.14 186.86 197.93 217.91 217.83 272.67 228.96 334.2 255.31 401.94 295.13 528.96 313.28 604.61 313.28 637.02 331.44 635.79 313.28 588.09 301.57 504.69"/><polygon class="cls-40" points="84.32 272.67 96.62 318.43 96.62 351.7 96.62 394.88 92.38 526.7 92.38 588.09 96.62 646.46 164.56 643.74 139.95 602.91 125.46 600.09 119.46 595.57 96.62 545.33 96.62 526.14 105.4 522.18 115.94 522.18 218.42 610.25 240.29 640.71 245.96 640.48 221.35 602.35 202.61 577.51 199.1 570.17 202.61 510.89 198.51 502.99 163.96 479.85 131.75 435.81 131.75 422.26 149.32 438.07 156.76 447.67 148.74 403.07 123.56 364.12 122.39 350 118.51 306.23 84.32 272.67"/><polygon class="cls-41" points="258.24 24.84 258.82 73.95 289.67 197.2 296.3 224.12 305.67 320.08 323.82 387.26 323.82 401.94 318.26 414.36 352.22 463.47 381.8 539.12 405.8 630.75 427 629.32 402.29 595.57 382.97 522.18 370.67 491.7 336.71 420.15 315.77 342.95 308.01 248.39 289.86 175 269.37 88.07 258.24 24.84"/><path class="cls-42" d="M302.19,72l-5.85,80.44,5.85,36.41,43.33,79.88L404.3,420.15l-21.88-95,4.68-48.49-8.93-24.28-5.12-61V144.8l5.12-48.27S317.42,74.52,302.19,72Z" transform="translate(-0.03 0)"/><polygon class="cls-43" points="405.8 215.08 404.27 292.99 405.8 370.05 407.56 428.63 464.04 553.26 456.31 522.18 429.52 466.58 422.49 437.37 418.1 384.17 439.18 392.91 456.16 389.52 430.84 384.17 423.37 377.95 419.93 222.59 405.8 215.08"/><polygon class="cls-44" points="131.75 435.81 131.75 422.26 156.76 447.67 163.96 459.56 188.85 476.32 222.23 482.25 222.23 477.16 262.48 553.26 262.48 553.26 202.61 510.89 198.51 502.99 163.96 479.85 131.75 435.81"/><polygon class="cls-45" points="96.62 526.14 92.73 515.7 93.51 491.41 121.8 522.18 170.69 565.94 182.11 567.91 199.1 570.17 202.61 577.51 221.35 602.35 245.96 640.48 240.29 640.71 218.42 610.25 115.94 522.18 105.4 522.18 96.62 526.14"/><polygon class="cls-44" points="323.82 401.94 323.82 387.26 305.67 320.08 271.12 261.38 221.93 235.92 222.44 272.67 235.4 337.87 258.82 372.59 274.05 381.05 290.45 395.73 305.67 401.94 323.82 401.94"/><polygon class="cls-44" points="49.19 238.79 118.51 306.23 138.78 312.8 166.3 319.52 176.26 319.52 77.88 150.16 63.24 150.16 0 121.94 0 139.44 49.19 238.79"/><polygon class="cls-36" points="258.24 19.19 229.99 0 156.76 0 180.39 96.53 217.83 159.68 250.92 170.2 245.96 122.95 235.11 53.35 258.24 145.08 272.88 200.97 296.3 224.12 258.82 73.95 258.24 19.19"/><polygon class="cls-46" points="144.05 246.06 207.88 272.67 217.83 272.67 197.93 217.91 189.14 186.86 176.26 165.12 131.75 174.44 144.05 246.06"/><polygon class="cls-47" points="405.8 630.75 381.8 539.12 382.97 522.18 402.29 595.57 427 629.32 405.8 630.75"/><polygon class="cls-48" points="313.28 637.02 313.28 604.61 288.49 507.79 296.01 453.88 313.28 588.09 331.44 635.79 313.28 637.02"/><polygon class="cls-49" points="258.69 61.54 256.19 67.46 235.11 64.5 170.11 47.7 166.89 42.34 168.94 52.22 243.6 67.46 258.82 73.95 258.69 61.54"/><polygon class="cls-49" points="176.26 80.63 261.46 117.99 267.75 117.7 268.33 112.06 271.09 122.97 190.31 88.91 178.31 89.19 176.26 80.63"/><polygon class="cls-50" points="296.3 224.12 272.88 200.97 231.3 197.02 217.83 165.12 217.83 159.68 180.39 96.53 221.25 266.69 221.93 235.92 271.12 261.38 305.67 320.08 296.3 224.12"/><polygon class="cls-51" points="49.19 238.79 138.78 260.39 145.81 267.1 137.38 252.95 136.81 257.21 71.73 243.66 46.68 233.73 49.19 238.79"/><polygon class="cls-52" points="206.22 422.26 180.39 420.15 162.5 422.26 151.81 420.15 151.1 416.23 153.06 419.25 162.28 421.35 179.96 419.25 201.69 419.25 204.46 416.23 206.22 422.26"/><polygon class="cls-53" points="308.01 547.15 377.7 566.06 383.11 566.06 387.07 566.06 389.22 567.46 388.02 562.88 386.19 564.52 376.31 565.09 311.53 544.63 306.23 533.3 308.01 547.15"/><polygon class="cls-54" points="313.28 588.09 323.82 588.09 384.28 599.88 393.07 599.1 396.12 593.79 398.79 603.97 389.22 601.43 322.8 589.79 314.81 592.09 313.28 588.09"/><polygon class="cls-55" points="235.4 337.87 258.82 372.59 250.92 377.95 288.49 441.22 296.01 453.88 281.3 439.06 259.79 416.23 228.96 334.2 235.4 337.87"/><polygon class="cls-56" points="265.22 376.14 272.88 384.17 268.78 401.94 292.2 416.9 296.01 401.94 301.57 401.94 305.67 401.94 290.45 395.73 274.05 381.05 265.22 376.14"/><polygon class="cls-57" points="231.3 197.02 221.93 235.92 221.25 266.69 205.36 200.97 189.14 186.86 176.26 165.12 176.26 144.8 167.59 111.26 180.39 96.53 217.83 159.68 217.83 165.12 231.3 197.02"/><polygon class="cls-58" points="318.26 414.36 323.82 401.94 323.82 387.26 327.79 387.26 336.71 420.15 356.63 462.11 354.77 470 352.22 463.47 318.26 414.36"/><polygon class="cls-59" points="76.42 60.12 84.32 65.84 84.32 58.15 138.78 13.55 142.73 15.12 140.46 6.32 138.78 10.57 80.59 58.15 76.42 60.12"/><polygon class="cls-60" points="76.42 60.12 43.04 0 67.93 58.15 49.19 53.06 99.55 103.31 103.5 139.44 119.54 181.61 131.75 174.44 145.81 139.44 88.13 68.59 76.42 60.12"/><polygon class="cls-61" points="138.82 0 154.59 60.97 165.49 36.08 156.76 0 138.82 0"/><polygon class="cls-62" points="43.04 297.5 0 359.99 0 650.33 76.42 647.27 43.92 541.38 43.04 297.5"/><polygon class="cls-63" points="296.3 152.42 373.58 139.44 373.01 191.37 378.14 252.34 350.29 281.07 302.16 188.83 296.3 152.42"/><polygon class="cls-64" points="370.91 334.2 382.38 325.11 404.27 420.15 370.91 334.2"/><polygon class="cls-65" points="285.77 181.61 289.86 175 308.01 248.39 315.18 338.71 305.67 320.08 296.3 224.12 285.77 181.61"/><polygon class="cls-66" points="0 384.17 43.04 377.95 96.62 394.88 139.98 389.52 197.99 394.04 201.49 406.06 258.24 412.1 271.2 412.1 329.86 431.13 340.46 428.05 413.42 443.72 422.23 434.12 444.94 434.12 446.28 443.72 422.49 437.37 416.48 448.3 412.25 448.3 346.08 439.89 339.79 445.5 274.05 416.9 263.5 428.05 207.91 428.05 201.73 409.28 198.73 399.58 145.81 396.52 142.73 396.52 94.42 401.94 43.04 384.17 0 387.26 0 384.17"/><polygon class="cls-66" points="0 416.9 43.04 413.13 61.48 419.25 95.53 428.63 131.75 422.26 151.1 428.05 209.67 434.12 217.09 459.56 272.88 457.98 297.64 466.58 337.44 479.28 360.79 485.4 365.41 480.62 434.16 488.59 439.18 486.63 454.89 488.59 457.11 496.24 441.48 491.41 439.18 496.24 368.8 487.76 365.03 496.24 300.48 472.51 274.94 464.56 220.14 470 211.79 446.26 156.76 447.67 144.93 434.12 131.75 428.05 94.42 448.3 66.76 448.3 42.75 443.15 0 448.3 0 416.9"/><polygon class="cls-66" points="0 220.73 30.46 200.97 111.66 208.31 126.9 200.97 134.76 191.94 190.58 191.94 195.21 208.31 231.3 197.02 272.88 200.97 296.3 224.12 299.96 213.81 320.82 222.49 372.43 186.86 404.27 218.89 404.27 233.73 420.22 235.92 460.78 260.27 459.38 287.34 420.69 256.86 404.98 256.86 403.46 241.05 400.1 224.12 373.74 204.08 323.82 228.77 302.01 224.12 302.01 224.12 297.24 233.73 298.87 250.41 245.96 218.89 225.59 220.73 215.2 241.76 200.18 224.12 197.12 215.06 138.78 208.31 133.72 218.89 118.87 220.73 115.59 215.08 37.45 215.08 0 246.06 0 220.73"/><polygon class="cls-67" points="389.22 567.46 393.42 561.87 415.17 564.66 464.04 569.61 414.88 561.87 391.81 555.76 388.02 562.88 389.22 567.46"/><polygon class="cls-68" points="389.22 567.46 396.12 593.79 393.07 599.1 384.28 599.88 323.82 588.09 313.28 588.09 308.01 547.15 377.7 566.06 387.07 566.06 389.22 567.46"/><polygon class="cls-68" points="164.56 643.74 139.95 602.91 164.56 569.61 163.07 562.68 218.42 610.25 240.29 640.71 164.56 643.74"/><polygon class="cls-68" points="49.19 238.79 118.51 306.23 166.3 319.52 176.26 319.52 145.81 267.1 136.81 257.21 71.15 246.06 49.19 238.79"/><polygon class="cls-69" points="131.75 422.26 123.85 389.52 123.56 364.12 148.74 403.07 156.76 447.67 131.75 422.26"/><polygon class="cls-66" points="0 470 43.04 470 94.42 478.15 92.38 526.7 43.85 522.18 0 522.18 0 470"/><polygon class="cls-70" points="125.46 600.09 107.16 643.74 96.62 646.46 92.38 547.15 96.62 545.33 119.46 595.57 125.46 600.09"/><polygon class="cls-71" points="43.92 541.38 38.21 596.03 28.69 646.46 76.42 647.27 43.92 541.38"/><polygon class="cls-72" points="176.26 80.63 165.14 96.53 178.31 89.19 190.31 88.91 176.26 80.63"/><polygon class="cls-31" points="454.05 554.62 441.28 526.51 439.18 499.47 466.12 557.75 459.09 557.75 454.05 554.62"/><polygon class="cls-31" points="387.07 506.03 359.81 432.2 337.44 394.88 324.77 376.14 336.71 420.15 370.67 491.7 387.07 506.03"/><polygon class="cls-31" points="271.12 261.38 292.2 314.44 315.18 369.2 320.82 376.14 305.67 320.08 271.12 261.38"/><polygon class="cls-31" points="230.39 312.65 245.96 318.43 265.22 356.78 274.05 381.05 258.82 372.59 235.4 337.87 230.39 312.65"/><polygon class="cls-31" points="292.2 416.9 323.82 466.58 344.9 466.58 352.22 463.47 318.26 414.36 316.21 420.15 292.2 416.9"/><polygon class="cls-31" points="46.68 142.77 76.42 195.89 94.42 215.08 117.11 251.78 136.81 257.21 137.38 252.95 77.88 150.16 63.24 150.16 46.68 142.77"/><polygon class="cls-31" points="84.32 65.84 84.32 58.15 103.63 42.34 159.89 142.77 145.81 139.44 84.32 65.84"/><polygon class="cls-73" points="378.14 96.53 387.07 154.12 395.26 169.92 395.26 246.06 395.26 284.13 398.78 287.34 405.8 215.08 402.73 139.72 378.14 96.53"/><polygon class="cls-31" points="364.79 318.43 350.29 318.43 342.62 352.26 356.63 401.94 388.02 422.26 407.56 428.63 364.79 318.43"/><polygon class="cls-31" points="163.07 562.68 164.56 569.61 151.1 587.81 184.46 610.82 218.42 610.25 163.07 562.68"/><polygon class="cls-31" points="96.62 526.14 125.46 541.38 148.75 550.38 115.94 522.18 105.4 522.18 96.62 526.14"/><polygon class="cls-31" points="43.04 297.5 46.68 262.74 52.55 279.16 76.42 325.08 66.76 448.3 43.04 470 43.04 297.5"/><polygon class="cls-31" points="189.26 364.12 189.26 384.17 197.12 413.13 204.46 416.23 189.26 364.12"/><polygon class="cls-31" points="221.93 235.92 230.39 272.67 240.29 297.5 285.77 319.52 285.77 309.92 271.12 261.38 221.93 235.92"/><polygon class="cls-31" points="0 121.94 19.32 139.44 49.19 165.12 59.73 203.62 46.68 220.73 41.92 224.12 0 139.44 0 121.94"/><polygon class="cls-33" points="80.94 0 99.69 24.84 114.52 30.4 138.78 10.57 140.46 6.32 138.82 0 80.94 0"/><polygon class="cls-74" points="221.93 0 196.86 15.12 199.1 55.19 256.19 67.46 258.69 61.54 258.24 19.19 221.93 0"/><polygon class="cls-75" points="439.18 392.91 418.1 384.17 422.49 437.37 429.52 466.58 456.31 522.18 466.12 527.27 450.38 473.07 439.18 392.91"/><polygon class="cls-76" points="405.8 215.08 419.93 222.59 419.93 312.65 423.37 377.95 430.84 384.17 418.1 384.17 422.49 437.37 418.96 455.72 407.56 428.63 405.8 215.08"/><polygon class="cls-77" points="302.01 224.12 323.82 228.77 345.49 268.71 324.77 242.18 304.39 233.73 302.01 224.12"/><polygon class="cls-78" points="404.27 420.15 390.06 358.47 397.17 294.17 398.78 287.34 391.97 355.65 397.17 366.37 401.76 272.67 404.98 256.86 404.27 420.15"/><polygon class="cls-78" points="217.83 272.67 228.96 334.2 258.24 412.1 253.85 411.63 223.14 334.2 211.69 331.09 234.96 409.62 217.83 408.43 184.76 322.44 184.07 262.74 207.88 272.67 217.83 272.67"/><polygon class="cls-77" points="262.89 29.4 275.02 112.06 281.3 112.06 274.05 58.15 285.77 65.04 292.2 144.8 296.3 152.42 302.16 71.98 293.81 59.7 262.89 29.4"/><polygon class="cls-79" points="46.68 72.32 53.29 99.07 60.39 102.89 22.32 0 0 0 0 47.7 13.76 58.15 31.91 121.94 33.1 119.55 24.59 89.67 8.78 42.34 8.78 26.82 12.3 24.84 44.59 141.84 52.99 144.8 50.36 134.07 54.17 129.56 54.75 121.94 32.21 51.36 43.04 69.15 46.68 72.32"/><polygon class="cls-80" points="99.55 103.31 109.58 94.93 112.13 99.12 102.99 109.87 104.09 112.06 114.31 101.73 128.9 118.76 110.43 157.66 109.58 155.41 126.27 120.24 123.63 116.01 103.5 139.44 99.55 103.31"/><polygon class="cls-81" points="419.93 222.59 422.4 334.2 427 342.95 427 277.72 430.84 272.67 430.84 287.34 439.18 308.54 442.11 311.62 451.72 243.45 456.09 246.06 456.09 370.61 456.16 389.52 461.58 244.72 419.93 222.59"/><polygon class="cls-81" points="439.18 392.91 418.1 384.17 422.49 437.37 429.52 466.58 439.18 486.63 442.11 487.76 430.11 459.56 426.03 437.51 434.89 441.09 438.25 453.88 430.11 459.56 457.11 496.24 439.18 392.91"/><polygon class="cls-81" points="423.37 377.95 430.84 384.17 437.61 385.6 422.75 366.07 423.37 377.95"/><polygon class="cls-81" points="439.18 376.14 434.16 366.07 439.18 346.26 439.18 376.14"/><polygon class="cls-81" points="337.44 287.34 342.62 303.57 350.29 306.06 337.44 287.34"/><polygon class="cls-81" points="245.96 428.98 253.85 457.55 252.22 440.2 245.96 428.98"/><polygon class="cls-81" points="131.75 272.67 145.81 291.3 151.1 291.3 131.75 272.67"/><polygon class="cls-81" points="231.3 232.02 245.96 218.89 243.03 225.46 243.03 230.54 231.3 232.02"/><polygon class="cls-81" points="285.77 259.12 287.12 256.86 291.97 256.86 291.97 269.91 288.87 266.69 285.77 259.12"/><polygon class="cls-81" points="293.42 274.05 295.97 281.98 298.03 279.16 293.42 274.05"/><polygon class="cls-81" points="337.44 173.03 337.22 181.62 342.62 191.32 337.44 173.03"/><polygon class="cls-81" points="305.67 141.05 313.94 133.79 320.82 132.66 320.68 137.42 305.67 141.05"/><polygon class="cls-81" points="145.81 527.27 159.89 496 156.76 518.94 145.81 527.27"/><polygon class="cls-81" points="141.43 518.94 137.38 511.63 131.75 514 131.75 518.94 141.43 518.94"/><polygon class="cls-81" points="189.26 555.07 190.12 550.38 196.86 562.68 189.26 562.68 189.26 555.07"/><polygon class="cls-81" points="112.72 613.13 108.92 603.21 110.82 593.79 112.72 613.13"/><polygon class="cls-81" points="99.55 281.98 117.7 300.79 128.9 310.39 138.78 312.8 99.55 281.98"/><polygon class="cls-81" points="123.56 364.12 120.19 325.17 125.46 353.7 123.56 364.12"/><polygon class="cls-81" points="178.66 372.63 176.26 346.85 184.07 372.63 184.07 384.52 178.66 372.63"/><polygon class="cls-81" points="171.9 457.55 189.26 466.58 180.58 466.58 171.9 457.55"/><polygon class="cls-81" points="38.21 252.23 35.56 291.3 30.19 274.05 38.21 252.23"/><polygon class="cls-81" points="34.2 248.39 38.21 232.02 36.2 225.46 34.2 248.39"/><polygon class="cls-81" points="41.49 598.47 43.65 613.13 52.55 610.82 41.49 598.47"/><polygon class="cls-81" points="43.04 615.33 40.08 625.47 47.21 632.83 47.21 624.08 43.04 615.33"/><polygon class="cls-81" points="112.72 318.43 109.8 335.4 115.44 342.38 112.72 318.43"/><polygon class="cls-82" points="460.13 272.67 456.16 349.44 456.16 389.52 439.18 392.91 450.38 473.07 466.12 527.27 466.12 557.75 490.13 595.57 562.59 588.09 562.59 575.82 558.64 458.96 562.59 450.91 558.64 417.89 541.51 367.08 527.46 338.71 521.75 335.33 509.45 338.71 495.4 297.64 488.81 297.64 460.13 272.67"/><polygon class="cls-83" points="488.81 297.64 483.54 355.65 483.54 375.55 480.46 394.88 488.81 373.86 493.64 327.8 495.4 297.64 488.81 297.64"/><polygon class="cls-84" points="440.44 401.94 458.07 408.43 487.93 428.47 507.69 466.58 507.69 466.58 513.84 440.33 513.84 440.33 492.32 416.2 456.16 389.52 439.18 392.91 440.44 401.94"/><polygon class="cls-85" points="507.37 593.79 500.89 514 507.69 466.58 507.69 466.58 513.84 440.33 513.84 440.33 518.24 374.28 518.24 364.54 509.45 338.71 521.75 335.33 527.46 338.71 527.46 364.96 530.97 403.07 545.9 420.15 558.05 437.51 562.59 450.91 558.64 458.96 556.3 441.74 551.61 434.68 529.95 417.18 520.87 448.8 522.92 475.33 521.16 534.04 522.34 592.25 507.37 593.79"/><polygon class="cls-86" points="487.93 428.47 480.46 477.68 487.93 503.9 500.89 514 507.69 466.58 490.86 434.12 487.93 428.47"/><polygon class="cls-86" points="507.37 593.79 490.13 595.57 478.71 576.47 469.63 491.41 478.71 487.62 487.93 511.03 500.89 525 507.37 593.79"/><polygon class="cls-86" points="529.95 417.18 520.87 448.8 522.34 592.25 562.59 588.09 556.3 441.74 551.61 434.68 529.95 417.18"/><polygon class="cls-86" points="527.46 338.71 527.46 359.04 530.97 403.07 545.9 420.15 548.32 387.26 540.13 364.3 527.46 338.71"/><polygon class="cls-87" points="522.34 592.25 521.76 514 513.84 524.16 500.89 525 507.37 593.79 522.34 592.25"/><polygon class="cls-88" points="453.58 484.08 466.12 484.08 478.71 487.62 487.93 511.03 500.89 525 500.89 514 487.93 503.9 482.05 483.26 469.63 482.56 463.04 480.13 451.72 477.68 453.58 484.08"/><polygon class="cls-89" points="458.07 408.43 473 401.94 456.16 389.52 439.18 392.91 440.44 401.94 458.07 408.43"/><polygon class="cls-90" points="483.54 355.65 491.19 351.18 493.8 325.08 486.56 322.44 483.54 355.65"/><polygon class="cls-91" points="447.07 449.37 484.37 455.72 505.11 484.58 522.34 481.87 559.42 499.47 559.73 505.11 522.59 486.5 504.13 491.41 483.54 462.63 448.8 461.74 447.07 449.37"/><polygon class="cls-91" points="444.42 430.43 487.07 434.12 507.18 470.17 522.24 466.58 559.07 473 559.26 477.24 522.34 470 506.79 472.87 486.15 440.2 445.13 435.46 444.42 430.43"/><polygon class="cls-92" points="527.46 533.3 524.16 505.11 527.46 517.1 527.46 533.3"/><polygon class="cls-92" points="528.59 526.01 528.59 538.95 531.74 535.71 528.59 526.01"/><polygon class="cls-92" points="548.32 483.01 552.08 477.24 552.08 481.87 548.32 483.01"/><polygon class="cls-92" points="534.89 428.05 533.31 434.12 533.31 441.09 534.89 428.05"/><polygon class="cls-92" points="537.89 379.43 541.73 391.21 541.73 381.51 537.89 379.43"/><polygon class="cls-92" points="488.67 391.21 494.08 379.43 491.37 389.52 488.67 391.21"/><polygon class="cls-92" points="552.97 569.3 554.93 587.51 559.01 586.8 552.97 569.3"/><polygon class="cls-92" points="491.37 582.59 494.08 573.51 494.08 580.62 491.37 582.59"/><polygon class="cls-93" points="1354.86 672.05 1099.71 661.26 977.19 622.81 815.88 608.42 813.76 601.64 788.11 587.21 707.44 575.15 630.21 573.51 630.21 578.13 490.13 595.57 503.74 621.12 498.03 624.5 0 650.33 0 677.43 1354.86 677.43 1354.86 672.05"/><polygon class="cls-94" points="1355.15 673.86 1100 663.07 1001.05 647.73 498.32 626.31 0.29 652.14 0.29 679.24 1355.15 679.24 1355.15 673.86"/><polygon class="cls-95" points="587.7 582.28 770.46 584.57 707.44 575.15 630.21 573.51 630.21 578.13 587.7 582.28"/><polygon class="cls-96" points="788.11 587.21 562.81 584.57 507.37 593.79 806.96 597.81 788.11 587.21"/><polygon class="cls-97" points="822.93 609.05 610.25 610.82 587.7 613.13 821.87 613.13 829.93 615.43 798.52 616.94 827.64 621.24 950.34 618.25 822.93 609.05"/><polygon class="cls-98" points="0 300.79 43.22 322.44 49.19 337.42 94.42 401.94 136 383.37 148.74 403.07 217.09 459.56 221.93 476.16 262.48 553.26 313.28 588.09 400.12 609.05 402.29 595.57 479.83 580.85 559.26 623.67 0 655.7 0 300.79"/><polygon class="cls-99" points="402.29 595.57 413.16 610.42 515.77 626.16 402.29 632.66 400.12 609.05 402.29 595.57"/><polygon class="cls-99" points="308.54 584.84 313.28 604.61 313.28 637.02 331.44 635.79 313.28 588.09 308.54 584.84"/><polygon class="cls-99" points="148.74 403.07 145.81 533.3 174.35 643.83 123.56 648.62 108.92 482.33 94.42 401.94 136 383.37 148.74 403.07"/><polygon class="cls-99" points="43.22 322.44 49.19 447.39 92.38 598.47 108.92 648.88 71.27 651.61 38.21 474.11 0 416.9 0 300.79 43.22 322.44"/><polygon class="cls-100" points="49.19 447.39 38.21 474.11 71.27 651.61 108.92 648.88 49.19 447.39"/><polygon class="cls-101" points="136 383.37 217.09 459.56 148.47 415.1 136 383.37"/><polygon class="cls-101" points="145.81 533.3 262.48 553.26 308.54 584.84 199.75 559.07 309.96 590.78 311.23 596.03 152.85 560.56 136.59 545.33 147.27 538.95 145.81 533.3"/><polygon class="cls-101" points="43.22 322.44 0 300.79 43.78 334.2 88.13 396.52 43.25 355.65 47.21 403.07 101.32 440.2 94.42 398.98 43.22 322.44"/><polygon class="cls-101" points="254.16 537.44 146.81 488.93 127.58 441.78 249.52 528.61 254.16 537.44"/><polygon class="cls-100" points="127.58 441.78 111.34 509.86 108.92 482.33 94.42 401.94 136 383.37 148.47 415.1 146.24 455.06 127.58 441.78"/><polygon class="cls-98" points="176.26 319.52 169.34 320.08 115.44 306.06 49.19 238.79 138.78 260.39 37.45 215.08 21.16 182.17 119.17 232.02 16.63 173.03 118.87 220.73 176.26 319.52"/><polygon class="cls-98" points="94.42 178.64 1.65 142.77 0 139.44 0 120.9 78.72 151.55 89.15 168.07 69.1 161.18 28.73 151.55 91.12 173.03 94.42 178.64"/><polygon class="cls-102" points="221.93 235.92 271.12 261.38 301.57 313.12 228.55 292.23 305.67 320.08 308.01 328.75 232.39 313.07 313.25 348.12 323.82 387.26 234.32 332.41 221.93 246.06 221.93 235.92"/><polygon class="cls-98" points="308.01 547.15 387.07 566.06 390.06 570.68 394.63 588.09 319.99 562.68 319.99 566.06 331.44 571.38 376.99 598.54 356.63 594.49 310.64 569.3 308.01 547.15"/><polygon class="cls-98" points="151.1 383.62 174.35 403.52 189.26 412.1 180.58 416.28 170.18 410.98 151.1 383.62"/><polygon class="cls-98" points="145.81 370.5 151.1 372.63 152.85 376.14 149.33 377.95 145.81 370.5"/><polygon class="cls-98" points="231.3 452.05 240.29 456.25 258.24 466.22 240.29 464.45 231.3 452.05"/><polygon class="cls-98" points="327.81 497.36 337.22 498.35 339.92 506.03 327.81 497.36"/><polygon class="cls-99" points="111.34 509.86 60.47 485.45 111.34 512.97 108.92 515.29 65.3 504.2 70.57 522.18 111.34 539.93 72.87 527.27 73.56 529.61 114.46 545.33 111.34 509.86"/><polygon class="cls-99" points="0 528.61 55.17 578.05 0 536.28 0 549.5 63.22 608.41 64.63 615.97 7.33 582.96 66.82 627.75 0 582.96 0 528.61"/><polygon class="cls-99" points="559.26 623.67 430.84 603.97 551.09 619.26 559.26 623.67"/><polygon class="cls-99" points="221.93 235.92 268 265.46 223.93 243.11 226.6 266.69 293.94 300.14 232.48 272.67 232.38 275.2 301.57 313.12 229.38 292.47 241.9 309.43 306.29 325.17 308.01 328.75 231.48 312.65 236.23 326.32 318.26 376.14 323.82 387.26 234.32 332.41 221.93 246.06 221.93 235.92"/><polygon class="cls-102" points="302.01 379.21 260.4 351.57 245.96 350.93 302.01 379.21"/><polygon class="cls-102" points="295.06 383.37 286.5 381.05 282.33 383.37 288.69 390.17 311.42 392 295.06 383.37"/><polygon class="cls-102" points="170.18 234.47 145.81 218.89 151.1 208.31 197.12 233.73 170.18 234.47"/><polygon class="cls-102" points="178.66 215.08 174.35 210.25 170.18 200.97 189.26 215.08 178.66 215.08"/><polygon class="cls-99" points="176.26 319.52 99.55 281.98 79.31 267.1 109.8 276.59 159.46 290.6 157.82 288.25 99.55 266.69 49.19 238.79 115.44 306.06 169.34 320.08 176.26 319.52"/><polygon class="cls-99" points="16.63 173.03 92.03 209.79 127.7 235.92 117.86 231.27 16.63 173.03"/><polygon class="cls-99" points="0 121.94 2.41 128.76 74.5 159.76 89.15 168.07 69.1 161.18 28.73 151.55 3.69 141.05 88.13 174.87 94.42 178.64 1.65 142.77 0 139.44 0 121.94"/><polygon class="cls-101" points="342.62 346.26 347.73 346.85 365.12 368.79 347.73 353.7 352.22 361.2 337.22 350.78 345.86 353.15 342.62 346.26"/><polygon class="cls-101" points="370.91 388.98 375.09 393.85 380.63 408.36 370.91 388.98"/><polygon class="cls-98" points="178.31 89.19 214.41 103.95 211.2 100.74 271.09 122.97 190.31 88.91 178.31 89.19"/><polygon class="cls-98" points="240.29 66.79 263.1 90.91 258.82 73.95 240.29 66.79"/><polygon class="cls-98" points="381.8 475.69 387.07 470 390.06 471.24 413.57 478.24 381.8 475.69"/><polygon class="cls-98" points="387.63 481.74 384.69 480.03 377.78 480.89 387.63 481.74"/><polygon class="cls-102" points="460.13 272.67 483.54 300.79 488.4 302.18 488.81 297.64 460.13 272.67"/><polygon class="cls-102" points="467.57 560.04 476.66 557.26 505.74 576.47 521.88 569.3 552.97 569.3 571.67 573.51 619.42 574.86 628.57 550.92 649.92 579.04 631.98 580.01 504.43 593.79 479.83 580.85 467.57 560.04"/><polygon class="cls-99" points="476.66 557.26 492.18 587.51 479.83 580.85 467.57 560.04 476.66 557.26"/><polygon class="cls-99" points="505.74 576.47 504.43 593.79 522.19 591.7 521.88 569.3 505.74 576.47"/><polygon class="cls-102" points="504.98 564.41 473.86 549.3 471.15 541.6 498.12 553.26 466.12 530.09 503.55 553.26 504.98 564.41"/><polygon class="cls-102" points="522.19 560.68 552.29 564.41 552.08 560.68 521.88 550.38 522.19 560.68"/><polygon class="cls-102" points="521.45 548.32 548.61 553.26 521.88 547.15 521.45 548.32"/><polygon class="cls-103" points="127.58 650.29 215.36 608.87 349.01 596.03 352.21 606.23 344.38 643.73 258.97 650.29 127.58 650.29"/><polygon class="cls-104" points="215.36 608.87 191.08 621.74 258.97 638.4 323.4 627.91 352.21 606.23 349.01 596.03 215.36 608.87"/><polygon class="cls-105" points="323.4 627.91 320.2 645.59 260.86 650.15 127.58 650.29 191.08 621.74 258.97 638.4 323.4 627.91"/><polygon class="cls-104" points="168.99 630.75 255.65 642.71 312.74 640.71 255.02 646.46 174.35 643.83 168.99 630.75"/><polygon class="cls-106" points="235.68 661.26 258.76 653.72 357.06 640.71 383.02 640.71 396.85 646.46 399.82 650.99 352.21 661.26 235.68 661.26"/><polygon class="cls-104" points="258.76 653.72 349.01 655.7 359.88 653.72 396.85 646.46 383.02 640.71 357.06 640.71 258.76 653.72"/><polygon class="cls-107" points="349.01 655.7 352.21 661.26 235.68 661.26 258.76 653.72 349.01 655.7"/><polygon class="cls-108" points="215.36 608.87 277.47 617.22 327.81 608.87 344.38 603.21 349.01 596.03 215.36 608.87"/><path class="cls-109" d="M719,627.17l-159.71-1.8h0L479.9,582.55h0L476.72,559h0l-10.54-30h0l-4.72-16.23-4.29-14.79h0l-27.58-29.66L417,453.88h0l-5.92-15.19h0L327.84,389h0L227.5,286.21h0L222,247.74h0l9.37-49v0l-55-31.88,0,0V146.49s0,0,0,0l-30.42-5.36h0l-87.56-112h0L43.09,1.67l0,0H.06s0,0,0,0V679.11s0,0,0,0H1328.64a0,0,0,0,0,0,0l-478.17-38L719,627.17Z" transform="translate(-0.03 0)"/><path class="cls-98" d="M589.71,548.92c-1.67-1.68,5.23-7.31,7-5.49S591.61,550.81,589.71,548.92Z" transform="translate(-0.03 0)"/><path class="cls-98" d="M761,469.45c-1.67-1.68,5.23-7.3,7-5.49S762.9,471.35,761,469.45Z" transform="translate(-0.03 0)"/><path class="cls-98" d="M422.75,508.48c-3.8-2.36,5.23-7.3,7-5.48S428.48,512.06,422.75,508.48Z" transform="translate(-0.03 0)"/><path class="cls-12" d="M896.94,273c-1.63-1,2.24-3.13,3-2.36S899.39,274.49,896.94,273Z" transform="translate(-0.03 0)"/><path class="cls-110" d="M890.89,417.34c-1.63-1,2.24-3.13,3-2.35S893.34,418.88,890.89,417.34Z" transform="translate(-0.03 0)"/><path class="cls-110" d="M777.92,408c-.8-.5,1.11-1.54,1.49-1.16S779.14,408.8,777.92,408Z" transform="translate(-0.03 0)"/><path class="cls-98" d="M975.52,230.3c-1.62-1,2.24-3.13,3-2.35S978,231.83,975.52,230.3Z" transform="translate(-0.03 0)"/><path class="cls-98" d="M751.85,521.06c0-1.18,2.86-2.86,4.74-2.86s2.94,3.41,2.11,4.24S751.85,523.15,751.85,521.06Z" transform="translate(-0.03 0)"/><path class="cls-98" d="M839.11,383.77c0-1.19,2.86-2.87,4.74-2.87s2.94,3.42,2.11,4.25S839.11,385.86,839.11,383.77Z" transform="translate(-0.03 0)"/><path class="cls-98" d="M616.09,525.09c-.48-.22-.64-1.68-.3-2.44s1.91-.57,2.1-.08S616.93,525.47,616.09,525.09Z" transform="translate(-0.03 0)"/><path class="cls-98" d="M801,462.41c-.48-.21-.64-1.67-.3-2.43s1.91-.58,2.1-.09S801.84,462.79,801,462.41Z" transform="translate(-0.03 0)"/><path class="cls-110" d="M918,407.49c-.48-.22-.64-1.68-.3-2.44s1.91-.57,2.1-.09S918.88,407.86,918,407.49Z" transform="translate(-0.03 0)"/><path class="cls-98" d="M672.75,502.51c-.48-.21-.64-1.68-.3-2.44s1.91-.57,2.1-.08S673.6,502.89,672.75,502.51Z" transform="translate(-0.03 0)"/><path class="cls-111" d="M657.48,517.91c1-1.51,3.73-1,3.73,0s-3.23,2-3.73,1.48S657,518.65,657.48,517.91Z" transform="translate(-0.03 0)"/><path class="cls-12" d="M631.31,324.52c1-1.51,3.73-1,3.73,0s-3.23,2-3.73,1.48S630.82,325.26,631.31,324.52Z" transform="translate(-0.03 0)"/><path class="cls-12" d="M523.68,175.94c-1.67-1.67,5.23-7.3,7.05-5.48S525.58,177.84,523.68,175.94Z" transform="translate(-0.03 0)"/><path class="cls-12" d="M1178.83,400.08c-1.68-1.68,5.23-7.31,7-5.49S1180.72,402,1178.83,400.08Z" transform="translate(-0.03 0)"/><path class="cls-12" d="M510.22,171.8c0-1.19,2.87-2.87,4.74-2.87s2.94,3.42,2.11,4.25S510.22,173.89,510.22,171.8Z" transform="translate(-0.03 0)"/><path class="cls-12" d="M641.59,252.34c0-1.18,2.86-2.86,4.74-2.86s2.94,3.41,2.11,4.24S641.59,254.43,641.59,252.34Z" transform="translate(-0.03 0)"/><path class="cls-12" d="M600.83,186.76c-.47-.21-.64-1.68-.3-2.44s1.92-.57,2.1-.08S601.68,187.14,600.83,186.76Z" transform="translate(-0.03 0)"/><path class="cls-12" d="M1318.66,457.74c-.48-.21-.64-1.67-.3-2.43s1.92-.58,2.1-.09S1319.51,458.12,1318.66,457.74Z" transform="translate(-0.03 0)"/><path class="cls-12" d="M1300.86,318.68c-.48-.21-.65-1.67-.31-2.43s1.92-.58,2.1-.09S1301.7,319.06,1300.86,318.68Z" transform="translate(-0.03 0)"/><path class="cls-12" d="M438.63,337.92c-.48-.21-.64-1.68-.3-2.44s1.91-.57,2.1-.08S439.47,338.3,438.63,337.92Z" transform="translate(-0.03 0)"/><path class="cls-12" d="M562.41,297.79c1-1.5,3.73-1,3.73,0s-3.23,2-3.73,1.48S561.92,298.53,562.41,297.79Z" transform="translate(-0.03 0)"/><path class="cls-12" d="M433.79,193.09c1-1.5,3.73-1,3.73,0s-3.23,2-3.73,1.48S433.3,193.83,433.79,193.09Z" transform="translate(-0.03 0)"/><path class="cls-12" d="M1315.6,291.89c1-1.51,3.73-1,3.73,0s-3.23,2-3.73,1.48S1315.11,292.63,1315.6,291.89Z" transform="translate(-0.03 0)"/><path class="cls-12" d="M121.35,521.41c-1.67-1.68,5.23-7.31,7.05-5.49S123.25,523.3,121.35,521.41Z" transform="translate(-0.03 0)"/><path class="cls-12" d="M163.22,423.73c0-1.18,2.87-2.86,4.74-2.86s2.94,3.41,2.11,4.24S163.22,425.82,163.22,423.73Z" transform="translate(-0.03 0)"/><path class="cls-12" d="M278.89,464.4c-.48-.21-.65-1.67-.31-2.43s1.92-.57,2.1-.09S279.73,464.78,278.89,464.4Z" transform="translate(-0.03 0)"/><path class="cls-12" d="M123.22,494.07c1-1.51,3.73-1,3.73,0s-3.23,2-3.73,1.48S122.73,494.81,123.22,494.07Z" transform="translate(-0.03 0)"/><path class="cls-112" d="M410.22,383.34c4.16,8.18-2.56,20-15,26.29s-25.92,4.85-30.09-3.33,2.56-19.94,15-26.28S406.06,375.17,410.22,383.34Z" transform="translate(-0.03 0)"/><path class="cls-113" d="M811.91,427c2.83,6.67-4.32,16.09-16,21s-23.41,3.56-26.24-3.11,4.32-16.09,16-21S809.08,420.32,811.91,427Z" transform="translate(-0.03 0)"/><path class="cls-114" d="M922.89,589.59c1.47,3.91-4,9.59-12.31,12.69s-16.16,2.43-17.62-1.48,4-9.6,12.31-12.69S921.43,585.68,922.89,589.59Z" transform="translate(-0.03 0)"/><ellipse class="cls-115" cx="1143.62" cy="194.71" rx="42.7" ry="25.87" transform="translate(-5.61 353.26) rotate(-17.52)"/><polygon class="cls-116" points="845.81 646.29 864.97 626.61 883.06 626.61 904.36 641.71 910.58 621.35 916.36 615.39 1033.22 608.02 1039.71 613.76 1018.94 651.86 1028.92 648.09 1070.48 648.09 1093.33 661.27 1088.54 662.65 996.52 662.65 845.81 646.29"/><polygon class="cls-104" points="916.36 615.39 910.58 621.35 955.88 638.8 1008.38 637.06 1039.71 613.76 1033.22 608.02 916.36 615.39"/><polygon class="cls-104" points="864.97 626.61 850.4 641.58 881.79 638.8 889.68 631.31 883.06 626.61 864.97 626.61"/><polygon class="cls-104" points="1028.92 648.09 1018.94 651.86 1000.76 657.68 1046.31 658.61 1065.86 653.35 1074.97 650.68 1070.48 648.09 1028.92 648.09"/><polygon class="cls-117" points="1008.38 637.06 1011.77 654.16 1018.94 651.86 1039.71 613.76 1008.38 637.06"/><polygon class="cls-118" points="1046.31 658.61 1081.2 662.65 1088.54 662.65 1093.33 661.27 1074.97 650.68 1046.31 658.61"/><polygon class="cls-119" points="881.79 638.8 889.68 650.68 904.62 652.67 904.36 641.71 889.68 631.31 881.79 638.8"/><polygon class="cls-104" points="906.98 633.14 928.78 644.32 955.88 646.29 931.43 650.68 910.58 641.99 906.98 633.14"/><polygon class="cls-120" points="964.31 662.65 975.14 651.86 1000.76 648.09 1003.58 651.86 999.62 662.65 964.31 662.65"/><polygon class="cls-104" points="975.14 651.86 984.11 658.61 1001.75 654.16 1003.58 651.86 1000.76 648.09 975.14 651.86"/><polygon class="cls-121" points="916.36 615.39 918.82 612.28 1033.22 608.02 1039.71 613.76 947.89 626.67 1034.55 617.6 1026.73 623.41 943.31 633.96 1003.58 637.22 955.88 638.8 910.58 621.35 913.37 614.64 916.36 615.39"/><polygon class="cls-121" points="883.06 626.61 864.97 626.61 850.4 641.58 875.87 633.14 862.75 640.36 875.87 638.8 886.62 629.14 883.06 626.61"/><polygon class="cls-102" points="1028.92 648.09 1002.6 657.05 1019.41 658.06 1052.94 648.6 1024.05 658.61 1036.14 658.4 1070.48 648.09 1028.92 648.09"/><polygon class="cls-99" points="1033.22 608.02 998.44 618.47 931.43 628.52 948.82 626.54 1039.71 613.76 1033.22 608.02"/><polygon class="cls-99" points="1034.55 617.6 1002.25 625.78 943.31 633.96 1026.73 623.41 1034.55 617.6"/><polygon class="cls-99" points="1019.41 658.06 1037.38 649.89 1053.42 648.09 1052.94 648.6 1019.41 658.06"/><polygon class="cls-99" points="1036.14 658.4 1056.63 649.81 1070.48 648.09 1036.14 658.4"/><polygon class="cls-99" points="850.4 641.58 872.36 630.39 883.06 626.61 886.62 629.14 875.87 633.14 850.4 641.58"/><polygon class="cls-99" points="875.87 638.8 877.65 635.33 886.62 629.14 875.87 638.8"/><path class="cls-122" d="M1919.89,214.55c-91.23-17.85-156-4.94-201.49,14.08-74.75,31.22-155.88,109.22-270.93,127.66-136.55,21.89-95.85-11.18-324.76-63.79s-348.34,78.32-462.23,97.67S388.28,264.79,428.65,218.28s404.62,26.16,400,62.6-139.89,87.81-213.89,65.77-40.56-88.8-40.56-88.8c-84.47,3.24-66.5,66.61-66.5,66.61s48.16,50.11,114.56,53.47,256-64.94,206.43-109.14-433.27-112.69-480.84-34S606.65,420.17,647,426.66s40.29-74.85,282.41-81.76,411.51,104.1,437.89,99.29c11.44-2.09-1.45-18.89,5.61-35.2,5.65-13.05,50.18-49.92,228.49-27.51,77.2,9.7,186.26,31.27,318.5,83.9Z" transform="translate(-0.03 0)"/><circle class="cls-123" cx="1421.26" cy="145.65" r="26.9" transform="translate(50.8 549.53) rotate(-22.27)"/><circle class="cls-124" cx="1421.26" cy="145.65" r="19.86" transform="translate(1048.97 1525) rotate(-80.75)"/><circle class="cls-125" cx="1421.26" cy="145.65" r="16.21" transform="translate(51.43 551.68) rotate(-22.36)"/><circle class="cls-126" cx="1421.26" cy="145.65" r="36.57" transform="translate(50.23 547.59) rotate(-22.19)"/><circle class="cls-127" cx="1421.26" cy="145.65" r="27" transform="translate(1062.82 1528.66) rotate(-81.32)"/><circle class="cls-128" cx="1421.26" cy="145.65" r="22.03" transform="translate(1048.88 1524.98) rotate(-80.74)"/><circle class="cls-129" cx="1421.26" cy="145.65" r="53.46" transform="translate(948.57 1493.9) rotate(-76.53)"/><circle class="cls-130" cx="1421.26" cy="145.65" r="39.47" transform="translate(949.72 1494.3) rotate(-76.58)"/><circle class="cls-131" cx="1421.26" cy="145.65" r="32.21" transform="translate(50.48 548.46) rotate(-22.23)"/><circle class="cls-132" cx="1421.26" cy="145.65" r="129.44" transform="translate(313.25 1047.64) rotate(-45)"/><circle class="cls-133" cx="1421.26" cy="145.65" r="95.55" transform="matrix(0.08, -1, 1, 0.08, 1157.75, 1549.84)"/><circle class="cls-134" cx="1421.26" cy="145.65" r="77.99" transform="translate(946.54 1493.19) rotate(-76.45)"/><path class="cls-135" d="M0,615.64S144.66,489.73,455.4,464.54s207.72,57.9,234.11,62.71S885.27,421,1127.39,428s242.08,88.24,282.42,81.75,346.68-113.08,299.11-191.81-431.31-10.25-480.84,34,140,112.5,206.43,109.14,114.55-53.47,114.55-53.47,18-63.37-66.5-66.61c0,0,33.44,66.75-40.56,88.79s-209.29-29.33-213.88-65.76,359.66-109.11,400-62.6-118,191.23-231.83,171.89S1163,322.94,934.08,375.56s-188.21,85.67-324.75,63.79S388,212.37,0,337.05Z" transform="translate(-0.03 0)"/></g></g></g></svg>