<svg width="40" height="40" viewBox="0 0 40 40" fill="none" xmlns="http://www.w3.org/2000/svg">
<circle cx="20" cy="20" r="20" fill="#783046"/>
<path d="M28.9977 25.7505H27.1227V23.8755C27.1227 23.7724 27.0383 23.688 26.9352 23.688H25.8102C25.7071 23.688 25.6227 23.7724 25.6227 23.8755V25.7505H23.7477C23.6446 25.7505 23.5602 25.8349 23.5602 25.938V27.063C23.5602 27.1662 23.6446 27.2505 23.7477 27.2505H25.6227V29.1255C25.6227 29.2287 25.7071 29.313 25.8102 29.313H26.9352C27.0383 29.313 27.1227 29.2287 27.1227 29.1255V27.2505H28.9977C29.1008 27.2505 29.1852 27.1662 29.1852 27.063V25.938C29.1852 25.8349 29.1008 25.7505 28.9977 25.7505ZM16.8454 19.338C16.8243 19.1341 16.8126 18.9279 16.8126 18.7193C16.8126 18.3466 16.8477 17.9834 16.9133 17.6295C16.9297 17.5451 16.8852 17.4584 16.8079 17.4232C16.4891 17.2802 16.1962 17.0834 15.943 16.8349C15.6448 16.5457 15.4101 16.1975 15.2539 15.8125C15.0977 15.4276 15.0235 15.0143 15.036 14.599C15.0571 13.8466 15.3594 13.1318 15.8868 12.5927C16.4657 11.9998 17.2438 11.6763 18.0712 11.6857C18.8188 11.6927 19.5407 11.981 20.0868 12.492C20.2719 12.6654 20.4313 12.8576 20.5649 13.0638C20.6118 13.1365 20.7032 13.167 20.7829 13.1388C21.1954 12.9959 21.6313 12.8951 22.079 12.8482C22.2102 12.8341 22.2852 12.6935 22.2266 12.5763C21.4649 11.0693 19.9087 10.0287 18.1087 10.0005C15.5118 9.96071 13.3462 12.0912 13.3462 14.6881C13.3462 16.1599 14.0235 17.4724 15.0852 18.3326C14.3399 18.6771 13.6532 19.1529 13.0579 19.7482C11.7735 21.0302 11.0469 22.7224 11.0001 24.5295C10.9994 24.5545 11.0038 24.5794 11.013 24.6026C11.0221 24.6259 11.0358 24.6472 11.0533 24.6651C11.0708 24.683 11.0916 24.6972 11.1147 24.7069C11.1378 24.7167 11.1625 24.7217 11.1876 24.7216H12.5024C12.6032 24.7216 12.6876 24.642 12.6899 24.5412C12.7344 23.1818 13.2852 21.9091 14.2532 20.9435C14.9422 20.2545 15.786 19.7763 16.7071 19.5443C16.7962 19.5185 16.8571 19.4318 16.8454 19.338ZM27.404 18.7193C27.404 16.1552 25.3438 14.0716 22.7891 14.0318C20.1922 13.992 18.029 16.1224 18.029 18.7193C18.029 20.1912 18.7087 21.5037 19.768 22.3638C19.015 22.7129 18.3295 23.1921 17.743 23.7795C16.4587 25.0615 15.7321 26.7537 15.6852 28.5584C15.6846 28.5834 15.689 28.6083 15.6981 28.6316C15.7073 28.6548 15.721 28.6761 15.7384 28.694C15.7559 28.7119 15.7768 28.7261 15.7999 28.7358C15.8229 28.7456 15.8477 28.7506 15.8727 28.7505H17.1852C17.286 28.7505 17.3704 28.6709 17.3727 28.5701C17.4172 27.2107 17.968 25.938 18.936 24.9724C19.9462 23.9623 21.2868 23.4068 22.7165 23.4068C25.304 23.4068 27.404 21.3091 27.404 18.7193ZM24.8376 20.8404C24.2704 21.4076 23.518 21.7193 22.7165 21.7193C21.9149 21.7193 21.1626 21.4076 20.5954 20.8404C20.3123 20.5588 20.0887 20.2233 19.9377 19.8537C19.7868 19.4842 19.7115 19.088 19.7165 18.6888C19.7235 17.9201 20.0305 17.1771 20.5672 16.6263C21.1297 16.0498 21.8821 15.7287 22.686 15.7193C23.4805 15.7123 24.2516 16.0216 24.8188 16.5771C25.4001 17.1466 25.7188 17.9084 25.7188 18.7193C25.7165 19.5209 25.4047 20.2732 24.8376 20.8404Z" fill="white"/>
</svg>
