<svg width="40" height="40" viewBox="0 0 40 40" fill="none" xmlns="http://www.w3.org/2000/svg">
<path d="M40 20C40 31.0457 31.0457 40 20 40C8.9543 40 0 31.0457 0 20C0 8.9543 8.9543 0 20 0C31.0457 0 40 8.9543 40 20Z" fill="#783046"/>
<path d="M26.3126 23.7193H24.4376V21.8443C24.4376 21.7412 24.3532 21.6568 24.2501 21.6568H23.1251C23.0219 21.6568 22.9376 21.7412 22.9376 21.8443V23.7193H21.0626C20.9594 23.7193 20.8751 23.8037 20.8751 23.9068V25.0318C20.8751 25.1349 20.9594 25.2193 21.0626 25.2193H22.9376V27.0943C22.9376 27.1974 23.0219 27.2818 23.1251 27.2818H24.2501C24.3532 27.2818 24.4376 27.1974 24.4376 27.0943V25.2193H26.3126C26.4157 25.2193 26.5001 25.1349 26.5001 25.0318V23.9068C26.5001 23.8037 26.4157 23.7193 26.3126 23.7193ZM24.7188 16.6881C24.7188 14.124 22.6587 12.0404 20.104 12.0005C17.5071 11.9607 15.3438 14.0912 15.3438 16.6881C15.3438 18.1599 16.0235 19.4724 17.0829 20.3326C16.3298 20.6816 15.6443 21.1609 15.0579 21.7482C13.7735 23.0302 13.0469 24.7224 13.0001 26.5271C12.9994 26.5521 13.0038 26.577 13.013 26.6003C13.0221 26.6236 13.0358 26.6448 13.0533 26.6627C13.0708 26.6806 13.0916 26.6949 13.1147 26.7046C13.1378 26.7143 13.1625 26.7193 13.1876 26.7193H14.5001C14.6008 26.7193 14.6852 26.6396 14.6876 26.5388C14.7321 25.1795 15.2829 23.9068 16.2508 22.9412C17.261 21.931 18.6016 21.3755 20.0313 21.3755C22.6188 21.3755 24.7188 19.2779 24.7188 16.6881ZM22.1524 18.8091C21.5852 19.3763 20.8329 19.6881 20.0313 19.6881C19.2297 19.6881 18.4774 19.3763 17.9102 18.8091C17.6272 18.5276 17.4035 18.1921 17.2526 17.8225C17.1016 17.4529 17.0264 17.0568 17.0313 16.6576C17.0383 15.8888 17.3454 15.1459 17.8821 14.5951C18.4446 14.0185 19.1969 13.6974 20.0008 13.688C20.7954 13.681 21.5665 13.9904 22.1337 14.5459C22.7149 15.1154 23.0337 15.8771 23.0337 16.6881C23.0313 17.4896 22.7196 18.242 22.1524 18.8091Z" fill="white"/>
</svg>
