<svg width="22" height="22" viewBox="0 0 22 22" fill="none" xmlns="http://www.w3.org/2000/svg">
<path d="M19.5 3H17V2.5C17 2.224 16.776 2 16.5 2C16.224 2 16 2.224 16 2.5V3H6V2.5C6 2.224 5.776 2 5.5 2C5.224 2 5 2.224 5 2.5V3H2.5C1.673 3 1 3.673 1 4.5V18.5C1 19.327 1.673 20 2.5 20H19.5C20.327 20 21 19.327 21 18.5V4.5C21 3.673 20.327 3 19.5 3ZM2.5 4H5V5.5C5 5.776 5.224 6 5.5 6C5.776 6 6 5.776 6 5.5V4H16V5.5C16 5.776 16.224 6 16.5 6C16.776 6 17 5.776 17 5.5V4H19.5C19.776 4 20 4.224 20 4.5V7H2V4.5C2 4.224 2.224 4 2.5 4ZM19.5 19H2.5C2.224 19 2 18.776 2 18.5V8H20V18.5C20 18.776 19.776 19 19.5 19Z" fill="black"/>
<path d="M8.5 11H7.5C7.224 11 7 10.776 7 10.5C7 10.224 7.224 10 7.5 10H8.5C8.776 10 9 10.224 9 10.5C9 10.776 8.776 11 8.5 11Z" fill="black"/>
<path d="M11.5 11H10.5C10.224 11 10 10.776 10 10.5C10 10.224 10.224 10 10.5 10H11.5C11.776 10 12 10.224 12 10.5C12 10.776 11.776 11 11.5 11Z" fill="black"/>
<path d="M14.5 11H13.5C13.224 11 13 10.776 13 10.5C13 10.224 13.224 10 13.5 10H14.5C14.776 10 15 10.224 15 10.5C15 10.776 14.776 11 14.5 11Z" fill="black"/>
<path d="M17.5 11H16.5C16.224 11 16 10.776 16 10.5C16 10.224 16.224 10 16.5 10H17.5C17.776 10 18 10.224 18 10.5C18 10.776 17.776 11 17.5 11Z" fill="black"/>
<path d="M5.5 13H4.5C4.224 13 4 12.776 4 12.5C4 12.224 4.224 12 4.5 12H5.5C5.776 12 6 12.224 6 12.5C6 12.776 5.776 13 5.5 13Z" fill="black"/>
<path d="M8.5 13H7.5C7.224 13 7 12.776 7 12.5C7 12.224 7.224 12 7.5 12H8.5C8.776 12 9 12.224 9 12.5C9 12.776 8.776 13 8.5 13Z" fill="black"/>
<path d="M11.5 13H10.5C10.224 13 10 12.776 10 12.5C10 12.224 10.224 12 10.5 12H11.5C11.776 12 12 12.224 12 12.5C12 12.776 11.776 13 11.5 13Z" fill="black"/>
<path d="M14.5 13H13.5C13.224 13 13 12.776 13 12.5C13 12.224 13.224 12 13.5 12H14.5C14.776 12 15 12.224 15 12.5C15 12.776 14.776 13 14.5 13Z" fill="black"/>
<path d="M17.5 13H16.5C16.224 13 16 12.776 16 12.5C16 12.224 16.224 12 16.5 12H17.5C17.776 12 18 12.224 18 12.5C18 12.776 17.776 13 17.5 13Z" fill="black"/>
<path d="M5.5 15H4.5C4.224 15 4 14.776 4 14.5C4 14.224 4.224 14 4.5 14H5.5C5.776 14 6 14.224 6 14.5C6 14.776 5.776 15 5.5 15Z" fill="black"/>
<path d="M8.5 15H7.5C7.224 15 7 14.776 7 14.5C7 14.224 7.224 14 7.5 14H8.5C8.776 14 9 14.224 9 14.5C9 14.776 8.776 15 8.5 15Z" fill="black"/>
<path d="M11.5 15H10.5C10.224 15 10 14.776 10 14.5C10 14.224 10.224 14 10.5 14H11.5C11.776 14 12 14.224 12 14.5C12 14.776 11.776 15 11.5 15Z" fill="black"/>
<path d="M14.5 15H13.5C13.224 15 13 14.776 13 14.5C13 14.224 13.224 14 13.5 14H14.5C14.776 14 15 14.224 15 14.5C15 14.776 14.776 15 14.5 15Z" fill="black"/>
<path d="M17.5 15H16.5C16.224 15 16 14.776 16 14.5C16 14.224 16.224 14 16.5 14H17.5C17.776 14 18 14.224 18 14.5C18 14.776 17.776 15 17.5 15Z" fill="black"/>
<path d="M5.5 17H4.5C4.224 17 4 16.776 4 16.5C4 16.224 4.224 16 4.5 16H5.5C5.776 16 6 16.224 6 16.5C6 16.776 5.776 17 5.5 17Z" fill="black"/>
<path d="M8.5 17H7.5C7.224 17 7 16.776 7 16.5C7 16.224 7.224 16 7.5 16H8.5C8.776 16 9 16.224 9 16.5C9 16.776 8.776 17 8.5 17Z" fill="black"/>
<path d="M11.5 17H10.5C10.224 17 10 16.776 10 16.5C10 16.224 10.224 16 10.5 16H11.5C11.776 16 12 16.224 12 16.5C12 16.776 11.776 17 11.5 17Z" fill="black"/>
<path d="M14.5 17H13.5C13.224 17 13 16.776 13 16.5C13 16.224 13.224 16 13.5 16H14.5C14.776 16 15 16.224 15 16.5C15 16.776 14.776 17 14.5 17Z" fill="black"/>
<path d="M17.5 17H16.5C16.224 17 16 16.776 16 16.5C16 16.224 16.224 16 16.5 16H17.5C17.776 16 18 16.224 18 16.5C18 16.776 17.776 17 17.5 17Z" fill="black"/>
</svg>
