<svg width="22" height="22" viewBox="0 0 22 22" fill="none" xmlns="http://www.w3.org/2000/svg">
<path d="M18.5 7H2.5C1.673 7 1 7.673 1 8.5V17.5C1 18.327 1.673 19 2.5 19H18.5C19.327 19 20 18.327 20 17.5V8.5C20 7.673 19.327 7 18.5 7ZM18.5 8C18.53 8 18.558 8.003 18.587 8.008L11.055 13.029C10.765 13.222 10.236 13.222 9.946 13.029L2.414 8.008C2.442 8.003 2.471 8 2.501 8H18.501H18.5ZM18.5 18H2.5C2.224 18 2 17.776 2 17.5V8.934L9.391 13.861C9.702 14.068 10.101 14.172 10.5 14.172C10.899 14.172 11.298 14.068 11.609 13.861L19 8.934V17.5C19 17.776 18.776 18 18.5 18Z" fill="black"/>
</svg>
