<svg width="22" height="22" viewBox="0 0 22 22" fill="none" xmlns="http://www.w3.org/2000/svg">
<path d="M20.881 1.17821C20.786 1.06521 20.646 1.00021 20.499 1.00021H19.989C14.949 0.998205 10.968 0.997205 8.037 1.69821C6.462 2.07521 5.244 2.64421 4.314 3.43721C3.31 4.29321 2.626 5.41421 2.221 6.86621C1.952 7.83021 1.826 9.57121 2.357 11.3032C2.553 11.9432 2.859 12.5472 3.267 13.1022C2.051 15.0072 1 17.5162 1 20.5012C1 20.7772 1.224 21.0012 1.5 21.0012C1.776 21.0012 2 20.7772 2 20.5012C2 15.8962 4.728 12.4802 6.354 10.8552C7.521 9.6882 8.84 8.70321 10.17 8.00721C11.408 7.35921 12.591 7.00221 13.501 7.00221C13.777 7.00221 14.001 6.77821 14.001 6.50221C14.001 6.22621 13.777 6.00221 13.501 6.00221C12.417 6.00221 11.105 6.38921 9.707 7.12221C8.289 7.86521 6.885 8.91121 5.648 10.1492C5.126 10.6712 4.498 11.3672 3.874 12.2192C3.632 11.8382 3.444 11.4342 3.315 11.0122C2.815 9.38021 2.999 7.80821 3.186 7.13721C4.616 2.01221 10.048 1.99921 19.903 2.00221C18.728 8.29021 16.537 12.3602 13.387 14.1032C10.465 15.7202 7.567 14.8382 6.456 14.3832C6.222 14.2872 5.986 14.1692 5.757 14.0332C5.52 13.8922 5.213 13.9702 5.072 14.2072C4.931 14.4442 5.009 14.7512 5.246 14.8922C5.518 15.0542 5.798 15.1942 6.078 15.3092C6.7 15.5632 7.702 15.8892 8.943 15.9962C9.217 16.0202 9.488 16.0312 9.757 16.0312C11.226 16.0312 12.606 15.6782 13.872 14.9782C15.481 14.0882 16.873 12.6392 18.011 10.6742C19.345 8.3692 20.349 5.31221 20.994 1.58821C21.019 1.44321 20.979 1.29421 20.884 1.18121L20.881 1.17821Z" fill="black"/>
</svg>
