<svg width="22" height="22" viewBox="0 0 22 22" fill="none" xmlns="http://www.w3.org/2000/svg">
<path d="M19.5 19H2.5C1.673 19 1 18.327 1 17.5V4.5C1 3.673 1.673 3 2.5 3H19.5C20.327 3 21 3.673 21 4.5V17.5C21 18.327 20.327 19 19.5 19ZM2.5 4C2.224 4 2 4.224 2 4.5V17.5C2 17.776 2.224 18 2.5 18H19.5C19.776 18 20 17.776 20 17.5V4.5C20 4.224 19.776 4 19.5 4H2.5Z" fill="black"/>
<path d="M10.5 7H4.5C4.224 7 4 6.776 4 6.5C4 6.224 4.224 6 4.5 6H10.5C10.776 6 11 6.224 11 6.5C11 6.776 10.776 7 10.5 7Z" fill="black"/>
<path d="M10.5 10H4.5C4.224 10 4 9.776 4 9.5C4 9.224 4.224 9 4.5 9H10.5C10.776 9 11 9.224 11 9.5C11 9.776 10.776 10 10.5 10Z" fill="black"/>
<path d="M10.5 12H4.5C4.224 12 4 11.776 4 11.5C4 11.224 4.224 11 4.5 11H10.5C10.776 11 11 11.224 11 11.5C11 11.776 10.776 12 10.5 12Z" fill="black"/>
<path d="M10.5 14H4.5C4.224 14 4 13.776 4 13.5C4 13.224 4.224 13 4.5 13H10.5C10.776 13 11 13.224 11 13.5C11 13.776 10.776 14 10.5 14Z" fill="black"/>
<path d="M9.5 16H4.5C4.224 16 4 15.776 4 15.5C4 15.224 4.224 15 4.5 15H9.5C9.776 15 10 15.224 10 15.5C10 15.776 9.776 16 9.5 16Z" fill="black"/>
<path d="M18.884 7.138L18.071 6.547L17.76 5.591H16.755L15.942 5L15.129 5.591H14.124L13.813 6.547L13 7.138L13.311 8.094L13 9.05L13.813 9.641L13.945 10.047C13.943 10.063 13.943 10.078 13.943 10.094V15.094C13.943 15.296 14.065 15.479 14.252 15.556C14.439 15.633 14.654 15.591 14.797 15.448L15.943 14.302L17.089 15.448C17.185 15.544 17.312 15.595 17.443 15.594C17.507 15.594 17.572 15.582 17.634 15.556C17.821 15.479 17.943 15.296 17.943 15.094V10.094C17.943 10.078 17.942 10.062 17.941 10.047L18.073 9.641L18.886 9.05L18.575 8.094L18.886 7.138H18.884ZM14.174 7.52L14.662 7.165L14.849 6.591H15.453L15.941 6.236L16.429 6.591H17.033L17.22 7.165L17.708 7.52L17.521 8.094L17.708 8.668L17.22 9.023L17.033 9.597H16.429L15.941 9.952L15.453 9.597H14.849L14.662 9.023L14.174 8.668L14.361 8.094L14.174 7.52ZM16.295 13.24C16.1 13.045 15.783 13.045 15.588 13.24L14.942 13.886V10.596H15.129L15.942 11.187L16.755 10.596H16.942V13.886L16.296 13.24H16.295Z" fill="black"/>
</svg>
