<svg width="22" height="22" viewBox="0 0 22 22" fill="none" xmlns="http://www.w3.org/2000/svg">
<path d="M10.5 12C7.467 12 5 9.533 5 6.5C5 3.467 7.467 1 10.5 1C13.533 1 16 3.467 16 6.5C16 9.533 13.533 12 10.5 12ZM10.5 2C8.019 2 6 4.019 6 6.5C6 8.981 8.019 11 10.5 11C12.981 11 15 8.981 15 6.5C15 4.019 12.981 2 10.5 2Z" fill="black" stroke="black"/>
<path d="M18.5 21H2.5C1.673 21 1 20.327 1 19.5C1 19.432 1.014 17.815 2.225 16.2C2.93 15.26 3.895 14.513 5.094 13.981C6.558 13.33 8.377 13 10.5 13C12.623 13 14.442 13.33 15.906 13.981C17.105 14.514 18.07 15.26 18.775 16.2C19.986 17.815 20 19.432 20 19.5C20 20.327 19.327 21 18.5 21ZM10.5 14C7.013 14 4.44 14.953 3.059 16.756C2.024 18.107 2.001 19.488 2 19.502C2 19.776 2.224 20 2.5 20H18.5C18.776 20 19 19.776 19 19.5C19 19.488 18.977 18.107 17.941 16.756C16.559 14.953 13.986 14 10.5 14Z" fill="black" stroke="black"/>
</svg>
