<svg width="22" height="22" viewBox="0 0 22 22" fill="none" xmlns="http://www.w3.org/2000/svg">
<path d="M19.5 18.999H8.5C7.673 18.999 7 18.326 7 17.499C7 17.451 7.011 16.309 7.924 15.184C8.449 14.538 9.165 14.026 10.052 13.662C11.123 13.222 12.452 13 14 13C15.548 13 16.876 13.223 17.948 13.662C18.835 14.026 19.551 14.538 20.076 15.184C20.99 16.309 21 17.451 21 17.499C21 18.326 20.327 18.999 19.5 18.999ZM8 17.502C8.001 17.777 8.225 17.999 8.5 17.999H19.5C19.775 17.999 19.999 17.776 20 17.502C19.999 17.467 19.968 16.607 19.261 15.768C18.287 14.611 16.468 14 14 14C11.532 14 9.713 14.612 8.739 15.768C8.032 16.608 8.001 17.467 8 17.502Z" fill="black"/>
<path d="M14 12C11.794 12 10 10.206 10 8C10 5.794 11.794 4 14 4C16.206 4 18 5.794 18 8C18 10.206 16.206 12 14 12ZM14 5C12.346 5 11 6.346 11 8C11 9.654 12.346 11 14 11C15.654 11 17 9.654 17 8C17 6.346 15.654 5 14 5Z" fill="black"/>
<path d="M5.5 19H2.5C1.673 19 1 18.327 1 17.5C1 17.463 1.008 16.573 1.663 15.7C2.041 15.195 2.557 14.796 3.196 14.512C3.96 14.172 4.904 14 6.001 14C6.18 14 6.357 14.005 6.528 14.014C6.804 14.029 7.015 14.264 7.001 14.54C6.987 14.816 6.751 15.028 6.475 15.013C6.322 15.005 6.163 15.001 6.002 15.001C2.108 15.001 2.005 17.38 2.002 17.504C2.003 17.778 2.227 18.001 2.502 18.001H5.502C5.778 18.001 6.002 18.225 6.002 18.501C6.002 18.777 5.778 19.001 5.502 19.001L5.5 19Z" fill="black"/>
<path d="M6 13C4.346 13 3 11.654 3 10C3 8.346 4.346 7 6 7C7.654 7 9 8.346 9 10C9 11.654 7.654 13 6 13ZM6 8C4.897 8 4 8.897 4 10C4 11.103 4.897 12 6 12C7.103 12 8 11.103 8 10C8 8.897 7.103 8 6 8Z" fill="black"/>
</svg>
