<svg width="30" height="30" viewBox="0 0 30 30" fill="none" xmlns="http://www.w3.org/2000/svg">
    <path d="M0 15C0 6.71573 6.71573 0 15 0V0C23.2843 0 30 6.71573 30 15V15C30 23.2843 23.2843 30 15 30V30C6.71573 30 0 23.2843 0 15V15Z" fill="white"/>
    <path d="M15 28.75C7.40608 28.75 1.25 22.5939 1.25 15H-1.25C-1.25 23.9746 6.02537 31.25 15 31.25V28.75ZM28.75 15C28.75 22.5939 22.5939 28.75 15 28.75V31.25C23.9746 31.25 31.25 23.9746 31.25 15H28.75ZM15 1.25C22.5939 1.25 28.75 7.40608 28.75 15H31.25C31.25 6.02537 23.9746 -1.25 15 -1.25V1.25ZM15 -1.25C6.02537 -1.25 -1.25 6.02537 -1.25 15H1.25C1.25 7.40608 7.40608 1.25 15 1.25V-1.25Z" fill="#A6A6A6"/>
</svg>
