<svg width="30" height="30" viewBox="0 0 30 30" fill="none" xmlns="http://www.w3.org/2000/svg">
<path d="M0 15C0 6.71573 6.71573 0 15 0C23.2843 0 30 6.71573 30 15C30 23.2843 23.2843 30 15 30C6.71573 30 0 23.2843 0 15Z" fill="#705391"/>
<path d="M10.3708 15.5563C10.0849 15.2566 9.61013 15.2454 9.31042 15.5313C9.01072 15.8172 8.99954 16.292 9.28546 16.5917L12.2626 19.7124C12.5692 20.0337 13.0862 20.0198 13.375 19.6824L20.5343 11.3185C20.8037 11.0039 20.7669 10.5304 20.4522 10.2611C20.1376 9.9917 19.6641 10.0284 19.3948 10.3431L13.1349 17.6563C12.9423 17.8812 12.5976 17.8905 12.3933 17.6763L10.3708 15.5563Z" fill="white"/>
</svg>
