<svg width="56" height="64" viewBox="0 0 56 64" fill="none" xmlns="http://www.w3.org/2000/svg">
<path d="M-2.44839e-06 27.9937C-1.09799e-06 43.4405 12.5611 56 27.9991 56C43.4374 56 56 43.4405 56 27.9937C56 13.4006 44.784 1.38045 30.522 0.101965L30.4533 0.101965C30.2192 0.0818351 29.9847 0.0643295 29.7496 0.0494522L29.6139 0.0413574C29.4013 0.028666 29.1852 0.0190339 28.9662 0.01269L28.7956 0.0126901C28.5305 0.0126901 28.2658 2.4246e-06 27.9976 2.44805e-06C27.7296 2.47147e-06 27.4918 2.49226e-06 27.2396 0.0109393L27.1327 0.0109393C26.9104 0.0175044 26.6892 0.0264766 26.469 0.0382907L26.4243 0.0382907C25.9276 0.0658634 25.4338 0.10678 24.9434 0.161044C10.9384 1.68065 -3.70824e-06 13.5826 -2.44839e-06 27.9937ZM25.0392 2.82654L25.3089 10.5723L18.5465 14.7222C17.7704 14.1901 16.8622 13.8832 15.9225 13.8354C14.9828 13.7877 14.0482 14.0011 13.2223 14.4518C12.3963 14.9026 11.7111 15.5732 11.2427 16.3895C10.7742 17.2057 10.5407 18.1357 10.568 19.0764C10.6765 21.7627 12.829 23.9158 15.5146 24.0241C16.266 24.0511 17.014 23.9104 17.7044 23.6125C18.3947 23.3145 19.0101 22.8666 19.506 22.3012C20.0019 21.7358 20.3657 21.0672 20.5712 20.3437C20.7767 19.6203 20.8187 18.8602 20.6942 18.1185L25.4669 15.1659L25.8132 24.926L19.1577 28.9975C16.8195 27.251 13.5642 27.4405 11.4446 29.4465C9.32465 31.4525 8.95519 34.6931 10.5691 37.1249C12.1828 39.5569 15.3121 40.4746 17.9832 39.2994C20.6544 38.1242 22.0929 35.197 21.3913 32.3637L25.9726 29.5194L26.2439 37.3082C25.1808 37.7194 24.2732 38.4533 23.6485 39.4069C23.0238 40.3604 22.7133 41.4857 22.7607 42.6248C22.874 45.3481 24.9797 47.5698 27.6924 47.8285C30.4049 48.0871 32.8921 46.3034 33.5182 43.6506C34.1438 40.9978 32.7162 38.2898 30.1742 37.3082L30.6687 21.1704L35.6552 24.3481C35.3225 25.708 35.4813 27.1418 36.1036 28.3958C37.1011 30.4708 39.1114 31.9422 41.4043 32.086C42.4351 32.1532 43.4666 31.9668 44.4086 31.5429C45.3506 31.1191 46.1744 30.4708 46.8079 29.6547C47.4414 28.8386 47.8653 27.8797 48.0424 26.8618C48.2196 25.8439 48.1447 24.7981 47.8242 23.8159C47.5037 22.8337 46.9474 21.9451 46.2041 21.2277C45.4607 20.5103 44.5529 19.9861 43.5601 19.701C42.5673 19.4158 41.5197 19.3784 40.5091 19.592C39.4985 19.8056 38.5557 20.2637 37.763 20.9262L30.8125 16.5273L31.2303 2.85695C43.6769 4.44483 53.3435 15.1116 53.3435 27.9934C53.3334 41.9658 41.9694 53.3365 27.9991 53.3365C14.0291 53.3365 2.66481 41.969 2.66481 27.9954C2.66481 15.0224 12.4604 4.29824 25.0392 2.82654Z" fill="white"/>
<path d="M28.3465 46C26.5161 45.9982 25.0327 44.5105 25.031 42.6748C25.031 40.8383 26.5154 39.3495 28.3465 39.3495C30.1777 39.3495 31.6622 40.8383 31.6622 42.6748C31.6622 44.5112 30.1777 46 28.3465 46ZM15.8471 22.0378C14.1868 22.0386 12.8384 20.6923 12.8321 19.027C12.8304 18.4298 13.0055 17.8456 13.335 17.3482C13.6646 16.8507 14.1338 16.4625 14.6834 16.2326C15.233 16.0027 15.8382 15.9415 16.4225 16.0567C17.0067 16.1718 17.5438 16.4582 17.9658 16.8795C18.3878 17.3009 18.6757 17.8383 18.793 18.4238C18.9104 19.0093 18.852 19.6166 18.6252 20.1688C18.3984 20.7209 18.0134 21.1933 17.5189 21.5259C17.0244 21.8586 16.4426 22.0368 15.8471 22.0378ZM13.9919 30.7964C15.7506 29.9391 17.8693 30.6718 18.7276 32.4341C19.0347 33.0659 19.148 33.7748 19.0533 34.4712C18.9586 35.1676 18.66 35.8202 18.1955 36.3464C17.731 36.8726 17.1213 37.2489 16.4435 37.4275C15.7657 37.6062 15.0504 37.5792 14.3879 37.3501C13.7254 37.121 13.1455 36.6999 12.7216 36.1403C12.2978 35.5806 12.0489 34.9074 12.0065 34.2058C11.9641 33.5043 12.1301 32.8059 12.4835 32.199C12.8369 31.5921 13.3618 31.1041 13.9919 30.7964ZM42.1822 29.8083C40.0727 29.8063 38.3629 28.0916 38.3611 25.976C38.362 23.8607 40.0721 22.1467 42.1811 22.1469C44.2901 22.1472 45.9998 23.8618 46 25.9771C46.0002 28.0923 44.2912 29.8072 42.1822 29.8083Z" fill="#AC54F0"/>
<path d="M56 54C56 55.3132 55.7413 56.6136 55.2388 57.8268C54.7362 59.0401 53.9997 60.1425 53.0711 61.0711C52.1425 61.9997 51.0401 62.7362 49.8268 63.2388C48.6136 63.7413 47.3132 64 46 64C44.6868 64 43.3864 63.7413 42.1732 63.2388C40.9599 62.7362 39.8575 61.9997 38.9289 61.0711C38.0003 60.1425 37.2638 59.0401 36.7612 57.8268C36.2587 56.6136 36 55.3132 36 54C36 51.3478 37.0536 48.8043 38.9289 46.9289C40.8043 45.0536 43.3478 44 46 44C48.6522 44 51.1957 45.0536 53.0711 46.9289C54.9464 48.8043 56 51.3478 56 54ZM51.5556 54C51.5556 53.7053 51.4385 53.4227 51.2301 53.2143C51.0217 53.006 50.7391 52.8889 50.4444 52.8889H41.5556C41.2609 52.8889 40.9783 53.006 40.7699 53.2143C40.5615 53.4227 40.4444 53.7053 40.4444 54C40.4444 54.2947 40.5615 54.5773 40.7699 54.7857C40.9783 54.9941 41.2609 55.1111 41.5556 55.1111H50.4444C50.7391 55.1111 51.0217 54.9941 51.2301 54.7857C51.4385 54.5773 51.5556 54.2947 51.5556 54Z" fill="white"/>
</svg>
