<svg width="19" height="16" viewBox="0 0 19 16" fill="none" xmlns="http://www.w3.org/2000/svg">
<path d="M16.3592 12.1661L13.4861 14.7639C13.3455 14.8958 13.2644 15.0755 13.2603 15.2643C13.2561 15.4531 13.3293 15.6359 13.464 15.7734C13.5987 15.9108 13.7842 15.992 13.9806 15.9994C14.177 16.0069 14.3686 15.9399 14.5141 15.813L18.7642 11.9702C18.8386 11.9028 18.898 11.8215 18.9385 11.7313C18.9791 11.6411 19 11.5439 19 11.4456C19 11.3473 18.9791 11.2501 18.9385 11.1599C18.898 11.0697 18.8386 10.9884 18.7642 10.921L14.5141 7.07815C14.4428 7.01127 14.3584 6.95871 14.2657 6.92354C14.173 6.88836 14.074 6.87128 13.9744 6.8733C13.8747 6.87531 13.7765 6.89638 13.6855 6.93526C13.5944 6.97415 13.5123 7.03008 13.444 7.09979C13.3757 7.16949 13.3226 7.25157 13.2877 7.34123C13.2528 7.4309 13.2368 7.52635 13.2407 7.622C13.2446 7.71766 13.2683 7.81161 13.3105 7.89836C13.3526 7.98511 13.4123 8.06293 13.4861 8.12726L16.3592 10.7251H6.25004C5.7859 10.7251 5.34078 10.5479 5.01259 10.2326C4.68439 9.91733 4.50002 9.48969 4.50002 9.04379V4.72054C4.50002 4.52944 4.421 4.34617 4.28034 4.21104C4.13969 4.07591 3.94892 4 3.75001 4C3.55109 4 3.36033 4.07591 3.21967 4.21104C3.07902 4.34617 3 4.52944 3 4.72054V9.04379C3 9.87189 3.34241 10.6661 3.95191 11.2516C4.56141 11.8372 5.38807 12.1661 6.25004 12.1661H16.3592Z" fill="#E2E8F0"/>
<circle cx="3.5" cy="3.5" r="2.75" fill="#AC54F0" stroke="white" stroke-width="1.5"/>
</svg>
