<svg width="30" height="30" viewBox="0 0 30 30" fill="none" xmlns="http://www.w3.org/2000/svg">
<path d="M12.0844 21.915V11.9138H10.8975C10.0475 12.3669 9.22592 12.8716 8.4375 13.425V14.7281C9.14063 14.2462 10.2544 13.5656 10.7963 13.2712H10.8188V21.915H12.0844ZM14.3119 19.4681C14.4 20.6681 15.4256 22.1044 17.505 22.1044C19.8638 22.1044 21.255 20.1056 21.255 16.7212C21.255 13.095 19.7906 11.7188 17.5931 11.7188C15.8569 11.7188 14.2238 12.9787 14.2238 15.1106C14.2238 17.2856 15.7688 18.4294 17.3663 18.4294C18.765 18.4294 19.6725 17.7244 19.9594 16.9481H20.01C20.0025 19.4156 19.1456 21.0056 17.5631 21.0056C16.3181 21.0056 15.6731 20.1619 15.5944 19.4681H14.3119ZM19.8488 15.1237C19.8488 16.4287 18.8006 17.3362 17.6288 17.3362C16.5019 17.3362 15.4838 16.6181 15.4838 15.0862C15.4838 13.5431 16.575 12.8175 17.6738 12.8175C18.8606 12.8175 19.8488 13.5637 19.8488 15.1237Z" fill="black"/>
<path d="M6.5625 0C6.81114 0 7.0496 0.0987721 7.22541 0.274587C7.40123 0.450403 7.5 0.68886 7.5 0.9375V1.875H22.5V0.9375C22.5 0.68886 22.5988 0.450403 22.7746 0.274587C22.9504 0.0987721 23.1889 0 23.4375 0C23.6861 0 23.9246 0.0987721 24.1004 0.274587C24.2762 0.450403 24.375 0.68886 24.375 0.9375V1.875H26.25C27.2446 1.875 28.1984 2.27009 28.9016 2.97335C29.6049 3.67661 30 4.63044 30 5.625V26.25C30 27.2446 29.6049 28.1984 28.9016 28.9016C28.1984 29.6049 27.2446 30 26.25 30H3.75C2.75544 30 1.80161 29.6049 1.09835 28.9016C0.395088 28.1984 0 27.2446 0 26.25V5.625C0 4.63044 0.395088 3.67661 1.09835 2.97335C1.80161 2.27009 2.75544 1.875 3.75 1.875H5.625V0.9375C5.625 0.68886 5.72377 0.450403 5.89959 0.274587C6.0754 0.0987721 6.31386 0 6.5625 0V0ZM1.875 7.5V26.25C1.875 26.7473 2.07254 27.2242 2.42417 27.5758C2.77581 27.9275 3.25272 28.125 3.75 28.125H26.25C26.7473 28.125 27.2242 27.9275 27.5758 27.5758C27.9275 27.2242 28.125 26.7473 28.125 26.25V7.5H1.875Z" fill="black"/>
</svg>
