<svg width="30" height="30" viewBox="0 0 30 30" fill="none" xmlns="http://www.w3.org/2000/svg">
<path d="M6.25 17.5V16.5C5.96011 16.5 5.68448 16.6258 5.49455 16.8448C5.30461 17.0638 5.21905 17.3544 5.26005 17.6414L6.25 17.5ZM23.75 17.5L24.7399 17.6414C24.7809 17.3544 24.6954 17.0638 24.5055 16.8448C24.3155 16.6258 24.0399 16.5 23.75 16.5V17.5ZM22.6533 25.1768L21.6634 25.0354L21.6634 25.0354L22.6533 25.1768ZM7.34668 25.1768L8.33663 25.0354L8.33663 25.0354L7.34668 25.1768ZM6.25 18.5H23.75V16.5H6.25V18.5ZM22.7601 17.3586L21.6634 25.0354L23.6433 25.3182L24.7399 17.6414L22.7601 17.3586ZM21.4159 25.25H8.58412V27.25H21.4159V25.25ZM8.33663 25.0354L7.23995 17.3586L5.26005 17.6414L6.35673 25.3182L8.33663 25.0354ZM8.58412 25.25C8.45971 25.25 8.35423 25.1585 8.33663 25.0354L6.35673 25.3182C6.51508 26.4267 7.46441 27.25 8.58412 27.25V25.25ZM21.6634 25.0354C21.6458 25.1585 21.5403 25.25 21.4159 25.25V27.25C22.5356 27.25 23.4849 26.4267 23.6433 25.3182L21.6634 25.0354Z" fill="black"/>
<path d="M17.5 26.25L17.5 17.5" stroke="black" stroke-width="2" stroke-linecap="round" stroke-linejoin="round"/>
<path d="M12.5 26.25L12.5 17.5" stroke="black" stroke-width="2" stroke-linecap="round" stroke-linejoin="round"/>
<path d="M6.25 17.5C4.64035 17.1136 3.75 15.6592 3.75 14.0625C3.75 12.8173 4.47226 11.7268 5.5537 11.1237C5.96371 10.895 6.25 10.492 6.25 10.0521C6.25 6.57154 9.32804 3.75 13.125 3.75C14.5399 3.75 15.855 4.14181 16.9482 4.81352C17.413 5.09916 18.0173 5.1287 18.5575 4.99484C18.8181 4.93028 19.0922 4.89583 19.375 4.89583C21.1009 4.89583 22.5 6.17835 22.5 7.76042C22.5 8.14741 22.7461 8.52484 23.137 8.67098C24.9631 9.35364 26.25 10.9974 26.25 12.9167C26.25 14.7045 25.3789 16.7444 23.75 17.5H6.25Z" stroke="black" stroke-width="2" stroke-linecap="round" stroke-linejoin="round"/>
</svg>
