<svg width="15" height="15" viewBox="0 0 15 15" fill="none" xmlns="http://www.w3.org/2000/svg">
<path d="M14.5022 1.94C14.5956 2.03372 14.6481 2.16066 14.6481 2.293C14.6481 2.42533 14.5956 2.55227 14.5022 2.646L13.4592 3.69L11.4592 1.69L12.5022 0.645997C12.596 0.552261 12.7231 0.499603 12.8557 0.499603C12.9883 0.499603 13.1154 0.552261 13.2092 0.645997L14.5022 1.939V1.94ZM12.7522 4.396L10.7522 2.396L3.9392 9.21C3.88417 9.26502 3.84273 9.33214 3.8182 9.406L3.0132 11.82C2.9986 11.864 2.99653 11.9112 3.00722 11.9563C3.0179 12.0014 3.04093 12.0427 3.07371 12.0755C3.1065 12.1083 3.14776 12.1313 3.19288 12.142C3.23799 12.1527 3.2852 12.1506 3.3292 12.136L5.7432 11.331C5.81697 11.3068 5.88407 11.2657 5.9392 11.211L12.7522 4.397V4.396Z" fill="black"/>
<path fill-rule="evenodd" clip-rule="evenodd" d="M0 13.5C0 13.8978 0.158035 14.2794 0.43934 14.5607C0.720644 14.842 1.10218 15 1.5 15H12.5C12.8978 15 13.2794 14.842 13.5607 14.5607C13.842 14.2794 14 13.8978 14 13.5V7.5C14 7.36739 13.9473 7.24021 13.8536 7.14645C13.7598 7.05268 13.6326 7 13.5 7C13.3674 7 13.2402 7.05268 13.1464 7.14645C13.0527 7.24021 13 7.36739 13 7.5V13.5C13 13.6326 12.9473 13.7598 12.8536 13.8536C12.7598 13.9473 12.6326 14 12.5 14H1.5C1.36739 14 1.24021 13.9473 1.14645 13.8536C1.05268 13.7598 1 13.6326 1 13.5V2.5C1 2.36739 1.05268 2.24021 1.14645 2.14645C1.24021 2.05268 1.36739 2 1.5 2H8C8.13261 2 8.25979 1.94732 8.35355 1.85355C8.44732 1.75979 8.5 1.63261 8.5 1.5C8.5 1.36739 8.44732 1.24021 8.35355 1.14645C8.25979 1.05268 8.13261 1 8 1H1.5C1.10218 1 0.720644 1.15804 0.43934 1.43934C0.158035 1.72064 0 2.10218 0 2.5V13.5Z" fill="black"/>
</svg>
