<svg width="186" height="30" viewBox="0 0 186 30" fill="none" xmlns="http://www.w3.org/2000/svg">
<rect width="186" height="30" rx="8" fill="white" fill-opacity="0.6"/>
<path d="M19.938 17.88V19H13.19V9.06H19.812V10.18H14.45V13.4H19.112V14.45H14.45V17.88H19.938ZM20.8305 15.36C20.8305 14.6693 20.9705 14.0393 21.2505 13.47C21.5398 12.8913 21.9318 12.4293 22.4265 12.084C22.9305 11.7387 23.5045 11.566 24.1485 11.566C24.7365 11.566 25.2638 11.72 25.7305 12.028C26.1972 12.336 26.5612 12.7093 26.8225 13.148V8.78H28.0545V17.6C28.0545 17.7493 28.0825 17.8613 28.1385 17.936C28.2038 18.0013 28.3065 18.0387 28.4465 18.048V19C28.2132 19.0373 28.0312 19.056 27.9005 19.056C27.6578 19.056 27.4432 18.972 27.2565 18.804C27.0792 18.636 26.9905 18.4493 26.9905 18.244V17.628C26.7012 18.0947 26.3138 18.4633 25.8285 18.734C25.3432 19.0047 24.8392 19.14 24.3165 19.14C23.8125 19.14 23.3458 19.042 22.9165 18.846C22.4965 18.6407 22.1278 18.3607 21.8105 18.006C21.5025 17.6513 21.2598 17.25 21.0825 16.802C20.9145 16.3447 20.8305 15.864 20.8305 15.36ZM26.8225 16.438V14.338C26.7105 14.0207 26.5285 13.736 26.2765 13.484C26.0245 13.2227 25.7398 13.0173 25.4225 12.868C25.1145 12.7093 24.8065 12.63 24.4985 12.63C24.1345 12.63 23.8032 12.7093 23.5045 12.868C23.2152 13.0173 22.9632 13.2227 22.7485 13.484C22.5432 13.736 22.3845 14.0253 22.2725 14.352C22.1605 14.6787 22.1045 15.0193 22.1045 15.374C22.1045 15.738 22.1652 16.0833 22.2865 16.41C22.4172 16.7367 22.5945 17.026 22.8185 17.278C23.0518 17.53 23.3178 17.726 23.6165 17.866C23.9245 18.006 24.2558 18.076 24.6105 18.076C24.8345 18.076 25.0632 18.034 25.2965 17.95C25.5392 17.866 25.7678 17.7493 25.9825 17.6C26.1972 17.4507 26.3792 17.278 26.5285 17.082C26.6778 16.8767 26.7758 16.662 26.8225 16.438ZM30.1112 19V11.692H31.3432V19H30.1112ZM30.1112 10.32V8.78H31.3432V10.32H30.1112ZM37.1178 18.636C37.0151 18.6827 36.8751 18.7433 36.6978 18.818C36.5204 18.8927 36.3151 18.958 36.0818 19.014C35.8484 19.07 35.6011 19.098 35.3398 19.098C35.0411 19.098 34.7658 19.0467 34.5138 18.944C34.2618 18.832 34.0611 18.664 33.9118 18.44C33.7624 18.2067 33.6878 17.9173 33.6878 17.572V12.658H32.6938V11.692H33.6878V9.256H34.9198V11.692H36.5578V12.658H34.9198V17.194C34.9384 17.4553 35.0271 17.6513 35.1858 17.782C35.3444 17.9033 35.5311 17.964 35.7458 17.964C35.9884 17.964 36.2124 17.922 36.4178 17.838C36.6231 17.754 36.7584 17.6933 36.8238 17.656L37.1178 18.636Z" fill="black"/>
<path d="M172.502 8.94003C172.595 9.03375 172.648 9.16069 172.648 9.29303C172.648 9.42536 172.595 9.5523 172.502 9.64603L171.459 10.69L169.459 8.69003L170.502 7.64603C170.596 7.55229 170.723 7.49963 170.855 7.49963C170.988 7.49963 171.115 7.55229 171.209 7.64603L172.502 8.93903V8.94003ZM170.752 11.396L168.752 9.39603L161.939 16.21C161.884 16.2651 161.842 16.3322 161.818 16.406L161.013 18.82C160.998 18.864 160.996 18.9112 161.007 18.9564C161.018 19.0015 161.041 19.0427 161.073 19.0755C161.106 19.1083 161.148 19.1313 161.193 19.142C161.238 19.1527 161.285 19.1506 161.329 19.136L163.743 18.331C163.817 18.3068 163.884 18.2657 163.939 18.211L170.752 11.397V11.396Z" fill="black"/>
<path fill-rule="evenodd" clip-rule="evenodd" d="M158 20.5C158 20.8978 158.158 21.2794 158.439 21.5607C158.721 21.842 159.102 22 159.5 22H170.5C170.898 22 171.279 21.842 171.561 21.5607C171.842 21.2794 172 20.8978 172 20.5V14.5C172 14.3674 171.947 14.2402 171.854 14.1464C171.76 14.0527 171.633 14 171.5 14C171.367 14 171.24 14.0527 171.146 14.1464C171.053 14.2402 171 14.3674 171 14.5V20.5C171 20.6326 170.947 20.7598 170.854 20.8536C170.76 20.9473 170.633 21 170.5 21H159.5C159.367 21 159.24 20.9473 159.146 20.8536C159.053 20.7598 159 20.6326 159 20.5V9.5C159 9.36739 159.053 9.24021 159.146 9.14645C159.24 9.05268 159.367 9 159.5 9H166C166.133 9 166.26 8.94732 166.354 8.85355C166.447 8.75979 166.5 8.63261 166.5 8.5C166.5 8.36739 166.447 8.24021 166.354 8.14645C166.26 8.05268 166.133 8 166 8H159.5C159.102 8 158.721 8.15804 158.439 8.43934C158.158 8.72064 158 9.10218 158 9.5V20.5Z" fill="black"/>
</svg>
