<svg width="18" height="27" viewBox="0 0 18 27" fill="none" xmlns="http://www.w3.org/2000/svg">
<path d="M8.7931 0C11.1252 0 13.3617 0.948212 15.0108 2.63604C16.6598 4.32387 17.5862 6.61305 17.5862 9C17.5862 13.455 14.4207 17.16 10.2586 17.88V21H13.1897V24H10.2586V27H7.32759V24H4.39655V21H7.32759V17.88C3.16552 17.16 0 13.455 0 9C0 6.61305 0.926414 4.32387 2.57544 2.63604C4.22447 0.948212 6.46103 0 8.7931 0ZM8.7931 3C7.23839 3 5.74735 3.63214 4.64799 4.75736C3.54864 5.88258 2.93103 7.4087 2.93103 9C2.93103 10.5913 3.54864 12.1174 4.64799 13.2426C5.74735 14.3679 7.23839 15 8.7931 15C10.3478 15 11.8389 14.3679 12.9382 13.2426C14.0376 12.1174 14.6552 10.5913 14.6552 9C14.6552 7.4087 14.0376 5.88258 12.9382 4.75736C11.8389 3.63214 10.3478 3 8.7931 3Z" fill="black"/>
</svg>
