<svg width="20" height="30" viewBox="0 0 20 30" fill="none" xmlns="http://www.w3.org/2000/svg">
<path d="M19.0697 5.99877C20.53 9.25876 20.1987 13.0963 18.5817 16.215C17.2551 18.7738 15.2755 20.89 13.644 23.2325C12.8982 24.305 12.1451 25.42 11.633 26.6413C11.4631 27.0475 11.3161 27.4638 11.1716 27.8813C11.0258 28.2975 10.9017 28.7225 10.7619 29.1413C10.6306 29.5338 10.4775 29.9963 10.0064 30H9.99798C9.4365 29.9988 9.30035 29.3375 9.16058 28.8913C8.81839 27.7988 8.46053 26.75 7.93278 25.735C7.31828 24.555 6.55317 23.4638 5.77601 22.3963L19.0697 5.99877ZM5.83746 9.63126L1.06725 15.515C1.9396 17.44 3.26137 19.0938 4.52652 20.74C4.82413 21.1275 5.12174 21.5175 5.41454 21.91L11.4198 14.5038L11.3848 14.5163C9.28709 15.2675 6.93753 14.1525 6.0929 12.0325C5.97736 11.7447 5.8929 11.4446 5.84107 11.1375C5.76516 10.5913 5.74829 10.1863 5.83625 9.64001L5.83746 9.63126ZM2.15889 3.93627L2.15527 3.94127C-0.19067 7.02377 -0.593107 11.2913 0.809399 14.9038L6.57486 7.79252L6.50497 7.73002L2.15889 3.93627ZM13.2066 0.54502L8.58222 6.24877C8.59286 6.24405 8.60372 6.23988 8.61476 6.23627C10.5426 5.54752 12.715 6.42377 13.6994 8.26876C13.9115 8.66751 14.0886 9.12251 14.1537 9.57501C14.2356 10.1325 14.2561 10.5413 14.1682 11.1L14.1645 11.12L18.7865 5.41877C17.5787 3.13333 15.5931 1.39698 13.2175 0.54877L13.2066 0.54502ZM6.94717 7.33502L12.6054 0.35627L12.5488 0.34127C11.7115 0.112952 10.8492 -0.00175438 9.98353 2.02798e-05C8.58175 0.0136412 7.19782 0.327817 5.91867 0.922816C4.63953 1.51781 3.49279 2.38078 2.55048 3.45752L2.5312 3.48002L6.94717 7.33502Z" fill="black"/>
</svg>
