<svg width="24" height="25" viewBox="0 0 24 25" fill="none" xmlns="http://www.w3.org/2000/svg">
<path d="M5 21.3397L19 21.3397C19.5523 21.3397 20 20.8919 20 20.3397L20 10.3397C20 9.78738 19.5523 9.33966 19 9.33966L5 9.33966C4.44772 9.33966 4 9.78738 4 10.3397L4 20.3397C4 20.8919 4.44772 21.3397 5 21.3397Z" stroke="#705391" stroke-width="2" stroke-linecap="round" stroke-linejoin="round"/>
<path d="M14.7692 9.33966V8.33966V9.33966ZM9.23077 9.33966L9.23077 10.3397H9.23077L9.23077 9.33966ZM9 9.10889H8H9ZM9 6.33966H10H9ZM15 6.33966H14V6.33966L15 6.33966ZM15 9.10889H16H15ZM12 3.33966V4.33966V3.33966ZM14.7692 8.33966L9.23077 8.33966L9.23077 10.3397L14.7692 10.3397V8.33966ZM10 9.10889L10 6.33966H8L8 9.10889H10ZM14 6.33966L14 9.10889H16L16 6.33966L14 6.33966ZM12 4.33966C13.1046 4.33966 14 5.23509 14 6.33966H16C16 4.13052 14.2091 2.33966 12 2.33966V4.33966ZM10 6.33966C10 5.23509 10.8954 4.33966 12 4.33966V2.33966C9.79086 2.33966 8 4.13052 8 6.33966H10ZM9.23077 8.33966C9.65561 8.33966 10 8.68406 10 9.10889H8C8 9.78862 8.55103 10.3397 9.23077 10.3397L9.23077 8.33966ZM14.7692 10.3397C15.449 10.3397 16 9.78863 16 9.10889H14C14 8.68405 14.3444 8.33966 14.7692 8.33966V10.3397Z" fill="#705391"/>
</svg>
