<svg width="20" height="21" viewBox="0 0 20 21" fill="none" xmlns="http://www.w3.org/2000/svg">
<path d="M7.50289 2.59688L6.57441 2.96827V2.96827L7.50289 2.59688ZM8.55715 5.23254L9.48563 4.86115V4.86115L8.55715 5.23254ZM8.23664 7.25569L9.00486 7.89588V7.89587L8.23664 7.25569ZM7.66925 7.93656L8.43747 8.57674L7.66925 7.93656ZM7.79148 10.6311L7.08437 11.3382L7.79148 10.6311ZM9.70852 12.5482L10.4156 11.8411L9.70852 12.5482ZM12.4031 12.6704L11.7629 11.9022L12.4031 12.6704ZM13.084 12.103L13.7242 12.8712L13.7242 12.8712L13.084 12.103ZM15.1071 11.7825L14.7357 12.711L15.1071 11.7825ZM17.7428 12.8368L18.1142 11.9083L17.7428 12.8368ZM2.89474 2.33966H5.64593V0.339661H2.89474V2.33966ZM6.57441 2.96827L7.62867 5.60393L9.48563 4.86115L8.43136 2.22549L6.57441 2.96827ZM7.46842 6.61551L6.90103 7.29638L8.43747 8.57674L9.00486 7.89588L7.46842 6.61551ZM7.08437 11.3382L9.00141 13.2553L10.4156 11.8411L8.49859 9.92404L7.08437 11.3382ZM13.0433 13.4386L13.7242 12.8712L12.4438 11.3348L11.7629 11.9022L13.0433 13.4386ZM14.7357 12.711L17.3714 13.7652L18.1142 11.9083L15.4785 10.854L14.7357 12.711ZM18 14.6937V17.4449H20V14.6937H18ZM17.1053 18.3397C8.76286 18.3397 2 11.5768 2 3.2344H0C0 12.6814 7.65829 20.3397 17.1053 20.3397V18.3397ZM18 17.4449C18 17.9391 17.5994 18.3397 17.1053 18.3397V20.3397C18.704 20.3397 20 19.0436 20 17.4449H18ZM17.3714 13.7652C17.751 13.9171 18 14.2848 18 14.6937H20C20 13.467 19.2531 12.3639 18.1142 11.9083L17.3714 13.7652ZM13.7242 12.8712C14.0063 12.6361 14.3947 12.5746 14.7357 12.711L15.4785 10.854C14.4554 10.4448 13.2903 10.6294 12.4438 11.3348L13.7242 12.8712ZM9.00141 13.2553C10.0986 14.3524 11.8513 14.4319 13.0433 13.4386L11.7629 11.9022C11.3656 12.2333 10.7813 12.2068 10.4156 11.8411L9.00141 13.2553ZM6.90103 7.29638C5.90771 8.48836 5.98722 10.2411 7.08437 11.3382L8.49859 9.92404C8.13287 9.55832 8.10637 8.97407 8.43747 8.57674L6.90103 7.29638ZM7.62867 5.60393C7.76509 5.94497 7.70356 6.33334 7.46842 6.61551L9.00486 7.89587C9.71029 7.04936 9.89487 5.88425 9.48563 4.86115L7.62867 5.60393ZM5.64593 2.33966C6.05484 2.33966 6.42255 2.58861 6.57441 2.96827L8.43136 2.22549C7.97577 1.08651 6.87265 0.339661 5.64593 0.339661V2.33966ZM2.89474 0.339661C1.29602 0.339661 0 1.63568 0 3.2344H2C2 2.74025 2.40059 2.33966 2.89474 2.33966V0.339661Z" fill="#705391"/>
</svg>
