<svg width="24" height="25" viewBox="0 0 24 25" fill="none" xmlns="http://www.w3.org/2000/svg">
<path d="M6 6.1698V5.1698C5.44772 5.1698 5 5.61752 5 6.1698H6ZM18 6.1698H19C19 5.61752 18.5523 5.1698 18 5.1698V6.1698ZM6 7.1698H18V5.1698H6V7.1698ZM17 6.1698V20.1698H19V6.1698H17ZM17 20.1698H7V22.1698H17V20.1698ZM7 20.1698V6.1698H5V20.1698H7ZM7 20.1698H7H5C5 21.2744 5.89543 22.1698 7 22.1698V20.1698ZM17 20.1698V22.1698C18.1046 22.1698 19 21.2744 19 20.1698H17Z" fill="#705391"/>
<path d="M4 6.1698H20" stroke="#705391" stroke-width="2" stroke-linecap="round" stroke-linejoin="round"/>
<path d="M16 6.1698V7.1698C16.5523 7.1698 17 6.72208 17 6.1698H16ZM8 6.1698H7C7 6.72208 7.44772 7.1698 8 7.1698V6.1698ZM9 4.1698H15V2.1698H9V4.1698ZM15 4.1698V6.1698H17V4.1698H15ZM16 5.1698H8V7.1698H16V5.1698ZM9 6.1698V4.1698H7V6.1698H9ZM15 4.1698H17C17 3.06523 16.1046 2.1698 15 2.1698V4.1698ZM9 2.1698C7.89543 2.1698 7 3.06523 7 4.1698H9V4.1698V2.1698Z" fill="#705391"/>
</svg>
